<?xml version="1.0" encoding="UTF-8" standalone="no"?>
<svg
   xmlns:dc="http://purl.org/dc/elements/1.1/"
   xmlns:cc="http://creativecommons.org/ns#"
   xmlns:rdf="http://www.w3.org/1999/02/22-rdf-syntax-ns#"
   xmlns:svg="http://www.w3.org/2000/svg"
   xmlns="http://www.w3.org/2000/svg"
   xmlns:sodipodi="http://sodipodi.sourceforge.net/DTD/sodipodi-0.dtd"
   xmlns:inkscape="http://www.inkscape.org/namespaces/inkscape"
   xml:space="preserve"
   width="27.447599mm"
   height="8.0423002mm"
   version="1.1"
   style="clip-rule:evenodd;fill-rule:evenodd;image-rendering:optimizeQuality;shape-rendering:geometricPrecision;text-rendering:geometricPrecision"
   viewBox="0 0 2744.7599 804.23002"
   id="svg894"
   sodipodi:docname="gob_pe.svg"
   inkscape:version="1.0.2 (e86c870879, 2021-01-15, custom)"><metadata
   id="metadata898"><rdf:RDF><cc:Work
       rdf:about=""><dc:format>image/svg+xml</dc:format><dc:type
         rdf:resource="http://purl.org/dc/dcmitype/StillImage" /><dc:title></dc:title></cc:Work></rdf:RDF></metadata><sodipodi:namedview
   pagecolor="#ffffff"
   bordercolor="#666666"
   borderopacity="1"
   objecttolerance="10"
   gridtolerance="10"
   guidetolerance="10"
   inkscape:pageopacity="0"
   inkscape:pageshadow="2"
   inkscape:window-width="1920"
   inkscape:window-height="1001"
   id="namedview896"
   showgrid="false"
   fit-margin-top="0"
   fit-margin-left="0"
   fit-margin-right="0"
   fit-margin-bottom="0"
   inkscape:zoom="1.0091964"
   inkscape:cx="64.826465"
   inkscape:cy="96.039678"
   inkscape:window-x="-9"
   inkscape:window-y="-9"
   inkscape:window-maximized="1"
   inkscape:current-layer="svg894" />
 <defs
   id="defs835">
  <style
   type="text/css"
   id="style833">
   <![CDATA[
    .fil0 {fill:#BF0909}
    .fil1 {fill:white;fill-rule:nonzero}
   ]]>
  </style>
 </defs>
 <g
   id="Capa_x0020_1"
   transform="translate(-13134.8,-7958.9502)">
  <metadata
   id="CorelCorpID_0Corel-Layer" />
  <rect
   class="fil0"
   x="13134.8"
   y="7958.9502"
   width="2744.76"
   height="804.22998"
   rx="159.28"
   ry="145.27"
   id="rect838" />
  <g
   id="escudo_text_gobpe_bicentenario-ac50fd00900e62759d6e9a3045387571403435ab9b650021e3c49b39e6a9b660_x005b_1_x005d_.svg">
   <g
   id="g890">
    <path
   class="fil1"
   d="m 14273.79,8266.93 c -17.09,-23.15 -48.74,-34.29 -75.5,-34.29 -60.37,0 -115.37,47.87 -115.37,123.47 0,75.61 54.8,124.06 115.37,124.06 26.08,0 58.41,-11.63 75.5,-34.78 v 6.65 c 0,61.05 -26.76,84.79 -69.06,84.79 -25.2,0 -49.43,-15.05 -59.49,-36.64 l -54.99,23.45 c 20.12,43.86 63.98,71.99 114.48,71.99 83.13,0 135,-47.86 135,-150.72 V 8238.7 h -65.94 z m -62.9,151.89 c -33.22,0 -60.96,-28.23 -60.96,-62.42 0,-34.77 27.65,-61.93 60.96,-61.93 30.67,0 60.95,25.6 60.95,61.93 0,35.76 -28.72,62.52 -60.95,62.42 z"
   id="path840" />
    <path
   class="fil1"
   d="m 14518.2,8232.84 c -67.01,0 -126.4,49.42 -126.4,124.05 0,74.14 59.48,123.47 126.4,123.47 67.01,0 126.4,-49.42 126.4,-123.47 0,-74.63 -59.39,-124.05 -126.4,-124.05 z m 0,185.98 c -32.73,0 -59.49,-25.59 -59.49,-61.93 0,-36.63 26.76,-62.42 59.49,-62.42 32.72,0 59.49,25.79 59.49,62.42 0,36.24 -26.77,62.03 -59.49,61.93 z"
   id="path842" />
    <path
   class="fil1"
   d="m 14838.3,8232.93 c -26.66,0 -58.9,10.55 -75.5,34.29 v -156.29 h -65.94 v 363.38 h 65.94 V 8445 c 16.5,24.13 48.74,35.27 75.5,35.27 60.37,0 115.37,-48.55 115.37,-124.06 0,-75.51 -55,-123.28 -115.37,-123.28 z m -12.79,185.89 c -32.24,0 -60.96,-26.66 -60.96,-62.42 0,-36.24 30.19,-61.93 60.96,-61.93 33.41,0 60.46,27.16 60.46,61.93 0,34.1 -27.05,62.52 -60.46,62.42 z"
   id="path844" />
    <path
   class="fil1"
   d="m 15036.11,8407.79 c -22.66,0 -41.81,17.19 -41.81,40.34 0,23.74 19.15,40.73 41.81,40.93 23.15,0 42.79,-17.19 42.79,-40.93 0,-23.35 -19.54,-40.34 -42.79,-40.34 z"
   id="path846" />
    <path
   class="fil1"
   d="m 15278.17,8232.84 c -26.67,0 -58.9,11.13 -75.51,34.77 v -28.72 h -65.93 v 350.68 h 65.93 V 8445 c 16.51,24.13 48.75,35.27 75.51,35.27 60.37,0 115.37,-47.97 115.37,-124.06 0,-74.92 -54.9,-123.28 -115.37,-123.37 z m -12.7,185.98 c -30.67,0 -60.95,-26.08 -60.95,-61.93 0,-35.65 28.72,-62.42 60.95,-62.42 33.41,0 60.47,27.65 60.47,62.42 0,34.78 -27.06,62.03 -60.47,61.93 z"
   id="path848" />
    <path
   class="fil1"
   d="m 15679.16,8352.59 c 0,-71.99 -54.99,-119.95 -122.4,-119.95 -67.01,0 -124.93,47.96 -124.93,124.06 0,72.58 52.84,123.47 125.42,123.47 41.32,0 82.25,-17.58 104.33,-47.38 l -38.29,-38.87 c -14.56,16.5 -37.81,27.64 -61.94,27.64 -31.35,0 -53.43,-16.22 -60.46,-43.86 h 176.9 c 0.98,-10.26 1.57,-18.36 1.37,-25.11 z m -178.37,-17.38 c 6.94,-31.75 30.28,-45.43 57.44,-45.43 29.69,0 52.36,17.78 54.41,45.43 z"
   id="path850" />
    <g
   id="g888">
     <path
   class="fil1"
   d="m 13606.62,8569.16 0.19,-1.08 c 0.1,-0.48 0.2,-0.78 0.49,-1.27 -4.88,-4.1 -10.45,-2.73 -13.18,-1.36 0.29,0.88 0.58,1.95 0.68,2.73 0.98,6.64 -1.76,12.6 -7.42,16.41 2.83,4.98 8.2,7.33 12.69,7.13 h 0.1 c 6.25,-0.49 9.38,-3.03 11.33,-6.15 -2.44,-2.15 -6.54,-7.33 -4.88,-16.41 z"
   id="path852" />
     <path
   class="fil1"
   d="m 13541.27,8550.21 c 4.39,-0.78 7.52,-2.54 9.47,-5.18 2.06,-2.64 3.23,-6.06 3.03,-10.06 -0.1,-2.44 -0.88,-4.98 -2.34,-7.62 0,0 2.64,2.64 3.91,5.76 0.48,0.98 1.36,3.23 1.46,6.16 0.49,0.29 0.88,0.58 1.37,0.88 h 0.19 c 2.84,1.66 6.16,2.15 9.48,1.46 3.03,-0.68 5.86,-2.34 7.72,-4.59 0,0 0,-0.1 -0.1,-0.1 h -0.1 c -1.76,-2.44 -2.64,-5.37 -2.83,-8.79 v -0.19 c -0.1,-1.57 -0.3,-4.69 1.66,-8.89 -0.88,0 -1.76,0.09 -2.54,0.09 -7.13,0.59 -14.85,2.35 -22.37,4.69 l -0.1,0.2 -0.19,-0.1 c -9.28,2.93 -18.08,6.84 -24.52,10.45 -0.1,1.57 0,2.93 0.29,4.5 1.47,6.54 6.94,11.13 13.48,11.72 l 0.88,0.1 c 0.68,-0.1 1.37,-0.1 1.95,-0.2 z"
   id="path854" />
     <path
   class="fil1"
   d="m 13649.79,8546.2 c -5.07,0.59 -8.79,2.44 -10.94,5.28 -2.05,2.73 -2.63,6.05 -2.73,8.2 0,1.96 0.29,6.45 2.15,10.36 -2.54,-2.84 -4.1,-7.82 -4.1,-7.82 -0.59,-2.54 -2.45,-7.42 2.44,-13.87 2.54,-3.22 5.27,-5.27 9.86,-6.15 -1.75,-6.25 -7.42,-10.55 -13.57,-10.94 1.36,7.13 -1.08,14.65 -7.23,19.05 -2.84,2.14 -6.16,2.93 -9.48,3.12 -3.91,0.2 -7.91,-0.98 -11.33,-3.51 0,0 -4.98,-3.52 -5.37,-10.07 -1.96,1.76 -4.2,2.84 -7.23,3.52 -1.76,0.1 -4.49,0.29 -6.25,0 -2.83,-0.68 -5.28,-1.76 -7.33,-3.13 -2.44,2.93 -5.96,4.99 -9.86,5.87 -0.88,0.19 -1.96,0.29 -2.74,0.29 -3.42,0.19 -6.74,-0.59 -9.67,-2.25 -0.49,1.27 -0.98,2.35 -1.95,3.52 -2.84,3.81 -7.43,6.25 -13.48,7.13 -0.1,1.56 -0.1,3.22 0,4.3 0.48,2.83 1.66,6.25 5.47,9.08 1.95,1.47 4.59,2.44 7.52,2.54 0.19,0 0.49,0 0.68,0 l 0.29,-0.29 c 0.1,0 0.2,0 0.3,0 0.49,0 0.88,0 1.37,-0.1 0.48,-0.1 0.87,-0.1 1.36,-0.19 1.47,-0.3 2.84,-0.98 4.11,-1.67 0,0 0,0 0,0.1 -1.27,0.78 -2.64,1.37 -4.01,1.76 1.66,-0.29 2.93,-0.88 4.2,-1.66 0,0 0,0 0,-0.1 0.49,-0.29 0.98,-0.58 1.37,-1.07 v 0 c 1.07,-0.88 2.05,-1.96 2.64,-2.93 2.34,-3.52 2.24,-7.33 1.95,-9.48 l 0.1,-0.1 c -0.2,-0.97 -0.49,-1.56 -0.49,-1.56 0,0 -0.68,-2.15 -1.76,-3.61 0.49,0.29 2.05,1.95 3.13,3.9 v 0 c 0.19,0.39 0.49,0.79 0.68,1.27 0.1,-0.97 0.1,-1.66 0,-2.05 l 0.1,-0.09 c 0,0 0.1,0.87 0,2.34 1.46,3.13 2.24,7.33 -0.49,11.82 -1.47,2.25 -3.22,3.91 -5.67,5.18 0.59,3.42 2.25,7.91 7.62,10.45 3.52,1.66 8.8,1.37 12.9,-0.88 l 0.58,-0.29 c 5.96,-3.81 6.84,-9.09 6.65,-12.02 -0.2,-5.27 -3.13,-10.65 -9.38,-13.48 v -0.1 c 4.3,0.49 7.72,2.74 9.87,5.86 3.51,-2.05 11.42,-3.22 17.87,1.27 2.44,-2.83 6.25,-5.08 12.11,-5.37 1.96,0 5.77,0.2 8.6,2.15 -1.47,-0.59 -4.69,-0.59 -4.69,-0.59 -11.82,0.49 -14.07,8.7 -14.55,10.36 -1.27,6.93 1.56,11.23 3.12,13.09 l 0.59,0.49 c 3.61,3.02 8.3,4.29 13.09,3.22 5.66,-1.37 10.16,-5.76 11.33,-11.43 l 0.49,-2.05 1.66,1.07 c 3.42,2.25 7.52,2.84 11.43,2.06 8.01,-1.96 13.09,-9.87 11.33,-17.98 -1.66,-6.93 -7.72,-11.72 -14.66,-11.82 z"
   id="path856" />
     <path
   class="fil1"
   d="m 13557.88,8570.33 v 0 c -0.1,0 -0.1,0 -0.2,0 0.1,0.1 0.1,0 0.2,0 z"
   id="path858" />
     <path
   class="fil1"
   d="m 13603.59,8545.71 c 1.47,1.27 3.03,2.15 4.69,2.64 0,0 7.72,3.52 14.85,-1.46 3.81,-2.64 6.93,-9.28 4.98,-16.51 -0.2,-0.1 -0.88,-0.49 -0.88,-0.49 -9.28,-4.69 -26.08,-10.84 -45.32,-11.43 h -0.79 c -0.68,0 -1.36,0 -2.05,0 -2.64,4.3 -2.44,7.42 -2.34,8.79 v 0.3 c 0.49,7.62 5.76,11.42 10.55,12.6 4.88,1.07 11.82,0 15.53,-6.74 l 0.29,-0.39 v 0 c -0.88,2.54 -1.85,4.49 -2.93,5.96 l -0.1,0.09 c -0.19,0.2 -0.29,0.39 -0.48,0.69 0.09,0.49 0.29,0.97 0.39,1.46 v 0 c 0.97,2.25 2.15,3.22 3.61,4.49 z"
   id="path860" />
     <path
   class="fil1"
   d="m 13557.68,8570.43 c -0.39,0.1 -0.78,0.1 -1.17,0.19 0.39,0 0.78,-0.09 1.17,-0.19 z"
   id="path862" />
     <path
   class="fil1"
   d="m 13739.86,8465.61 c -2.05,-5.66 -7.52,-13.77 -16.02,-16.02 -6.25,-4.68 -13.38,-4.1 -17.19,-2.63 -7.33,-0.1 -11.73,4.39 -13.58,7.91 -0.78,0.59 -1.66,1.46 -2.54,2.54 -1.37,2.05 -2.64,5.47 -1.08,10.84 0.1,6.84 3.81,10.65 7.62,12.11 4.3,2.06 8.89,-0.09 9.77,-0.58 l 4.3,-2.25 -2.44,-4.2 c 0,0 -1.37,-2.34 -1.66,-4.88 0,-0.49 0,-1.08 0.1,-1.96 0.58,-0.58 1.27,-1.07 1.95,-1.36 l 0.1,-0.1 c 1.46,-0.59 3.81,0 5.47,0.58 0.58,1.96 1.66,4.4 3.51,6.26 -1.07,2.44 -2.05,5.47 -2.24,8.79 -3.23,1.07 -5.08,3.9 -6.06,6.05 -0.98,0.2 -1.76,0.69 -2.44,0.98 -1.47,0.29 -2.64,0.49 -7.72,-0.1 h -0.39 l -0.68,-0.09 c -3.52,-0.3 -8.11,-2.54 -9.67,-3.33 l -0.2,-0.09 c -0.29,-0.2 -30.48,-17.59 -48.74,-27.94 l -0.3,-0.2 c -6.25,-3.22 -21,-10.94 -40.14,-10.16 -14.07,0.3 -29.8,6.55 -40.05,15.63 l -3.42,3.03 c -6.25,1.27 -11.04,2.44 -11.33,2.44 l -3.13,0.79 -0.98,12.11 c -5.76,2.24 -9.96,4.59 -10.35,4.78 l -2.05,1.18 c -0.1,0 -0.1,0.09 -0.2,0.09 l -0.1,0.1 0.1,-0.1 c 0,0 -0.1,0 -0.1,0.1 l -1.46,0.88 v 0 l -0.1,2.64 c 0,0.88 -0.1,3.61 0.1,6.74 l 4.98,-2.05 1.27,-0.49 2.64,-0.98 v 0 l 2.93,-0.88 c 15.53,-4.88 37.31,-6.83 55.29,-0.78 14.75,4.98 22.07,11.33 28.62,16.9 1.27,1.08 2.44,2.15 3.61,3.03 v 0 0 c -7.32,-4.69 -20.22,-12.5 -33.8,-16.31 -13.38,-3.81 -32.33,-4.11 -50.11,1.46 0,0 -2.63,0.88 -6.44,2.35 0,0 0,0 0,-0.1 -0.2,0.1 -0.3,0.1 -0.49,0.19 -0.59,0.2 -1.08,0.49 -1.66,0.69 -4.3,1.76 -9.48,3.81 -13,5.76 l 0.1,2.25 c 0,0.49 0.69,9.86 2.54,18.36 l 0.3,1.37 c 0,0 0,-0.1 0.09,-0.1 0.2,0.78 0.3,1.27 0.3,1.27 0.29,-0.1 0.68,-0.19 0.97,-0.49 v 0 c 4.01,-1.95 19.25,-8.79 30.09,-11.23 6.06,-1.37 10.94,-2.44 15.82,-2.83 0.1,0 0.1,0 0.2,0 0.68,-0.1 1.37,-0.1 1.95,-0.1 0,0 -0.09,0 -0.09,-0.1 h 0.09 l 0.1,0.1 c 0.68,0 1.47,-0.1 2.15,-0.1 0.68,0 1.37,0 2.05,0 -0.1,-0.1 -0.1,-0.1 -0.19,-0.19 v 0 l 0.09,0.09 c 0.69,0 1.27,0 1.76,0 v 0 c 0.78,0 1.47,0 2.15,0 l 0.1,-0.09 c 0.1,0 0.29,0 0.39,0 0.49,0.09 1.07,0.09 1.76,0.19 v 0 c 1.37,0 2.64,0.1 3.91,0.2 0.39,0 0.87,0.09 1.27,0.09 14.26,1.37 27.35,5.57 34.87,8.41 0.68,0.29 1.37,0.58 1.95,0.87 1.08,0.49 2.64,1.08 2.74,1.08 1.36,0.58 2.05,0.88 2.05,0.88 l 2.64,-4.98 c 10.94,4.39 40.14,15.53 55.97,15.23 2.24,0.3 5.37,0.69 9.08,0.59 5.18,-0.1 11.24,-0.88 17,-3.03 15.73,-3.12 24.71,-18.36 26.86,-25 5.18,-6.26 6.16,-17.88 3.91,-25.6 -0.1,-5.37 -1.08,-12.01 -5.47,-16.51 z m -35.56,48.94 c -1.27,9.09 -4.78,12.6 -4.78,12.6 0,0 1.75,-7.22 -0.88,-20.31 -1.08,-5.38 -3.91,-10.85 -3.91,-10.85 l 8.5,1.47 c 0,0 2.73,4.98 1.07,17.09 z m 25.99,-29.11 c -3.23,-1.46 -5.57,-1.85 -5.57,-1.85 0,0 0,-2.54 0.49,-4.69 3.12,0.29 6.54,2.25 8.4,4.2 1.95,2.05 3.71,4.98 4.88,7.91 -1.95,-1.66 -4.59,-3.91 -8.2,-5.57 z"
   id="path864" />
     <path
   class="fil1"
   d="m 13529.84,8131.83 c 4.3,7.13 9.08,11.43 14.75,13.19 0.68,1.07 1.37,2.15 2.15,3.03 -2.93,0.09 -6.15,0.49 -9.48,1.46 5.77,4.79 11.73,8.11 18.56,8.4 0.79,0.69 1.66,1.37 2.45,2.05 -2.45,0.2 -4.79,0.59 -7.23,1.08 6.93,6.25 14.45,8.89 20.9,7.81 1.27,0.69 2.64,1.37 4.1,2.05 -1.36,0.69 -2.63,1.47 -4,2.25 5.96,2.25 11.53,3.03 16.12,2.54 9.18,3.13 17.58,5.47 17.58,5.47 0,0 17.97,2.54 21.59,10.36 5.66,-8.6 12.11,-9.77 14.26,-10.36 8.79,-1.95 15.53,-3.42 21.78,-5.47 4.11,0.2 8.79,-0.68 13.87,-2.64 -0.97,-0.68 -1.95,-1.27 -2.83,-1.85 1.56,-0.78 3.03,-1.66 4.69,-2.54 7.62,0.29 13.68,-3.32 20.42,-7.91 -2.64,-0.49 -5.18,-0.98 -7.72,-1.18 0.59,-0.58 1.17,-1.07 1.76,-1.66 7.03,-0.68 12.79,-4.49 18.17,-9.86 -3.03,-0.88 -6.16,-1.27 -9.19,-1.08 0.49,-0.78 0.98,-1.56 1.47,-2.34 6.54,-1.86 11.92,-6.55 14.65,-13.19 -3.9,0.39 -7.23,0.98 -10.06,1.66 0.29,-1.27 0.49,-2.44 0.68,-3.61 4.3,-3.42 6.94,-8.4 7.23,-14.07 -2.24,1.27 -4.69,2.25 -7.03,3.22 -0.2,-1.95 -0.59,-3.81 -1.17,-5.76 1.95,-3.61 2.05,-8.01 0.39,-13.68 -1.76,1.18 -3.32,2.45 -4.69,3.42 -0.98,-1.66 -2.05,-3.12 -3.13,-4.69 1.27,-3.9 -0.19,-8.98 -4.2,-15.72 -2.44,1.95 -4.1,3.9 -5.27,5.96 -1.47,-1.27 -2.93,-2.45 -4.59,-3.42 -0.49,-4.98 -4.59,-9.67 -12.8,-14.65 -0.59,2.63 -0.88,4.98 -0.88,7.22 -1.66,-0.68 -3.12,-1.36 -4.88,-2.05 -2.25,-5.27 -7.72,-9.08 -15.14,-10.45 0.19,2.34 0.58,4.3 1.07,6.15 -2.15,-0.48 -4.3,-0.97 -6.54,-1.36 -4.01,-4.11 -10.85,-6.25 -18.95,-5.57 0.68,1.37 1.36,2.64 2.15,3.61 -2.54,-0.19 -4.79,-0.19 -7.14,-0.19 -1.85,0 -3.61,0.1 -5.47,0.19 0.69,-1.17 1.37,-2.44 1.86,-3.71 -8.21,-0.29 -14.55,1.56 -18.46,5.47 -2.25,0.39 -4.3,0.88 -6.45,1.37 0.49,-2.05 0.68,-4.01 0.39,-6.25 -7.91,2.93 -12.7,6.15 -14.65,10.55 -1.66,0.68 -3.22,1.27 -4.89,2.05 -0.09,-1.95 -0.29,-4.01 -0.68,-6.35 -7.42,4.2 -11.72,8.89 -12.7,13.58 -1.85,1.27 -3.61,2.54 -5.27,3.81 -1.08,-1.76 -2.64,-3.32 -4.5,-5.08 -3.81,5.57 -5.47,10.45 -4.78,14.36 -1.08,1.27 -1.96,2.63 -2.74,3.9 -1.56,-1.17 -3.32,-2.24 -5.47,-3.22 -1.46,5.37 -1.27,9.57 0.69,13.09 -0.69,2.05 -1.18,4.01 -1.57,6.06 -1.85,-0.69 -3.9,-1.37 -6.15,-1.96 0.88,4.79 2.83,8.5 5.76,11.53 0.2,1.86 0.39,3.52 0.88,5.27 -3.71,-0.68 -6.54,-0.39 -9.67,-0.29 z m 94.56,-33.31 c 25.98,-0.1 43.56,14.85 43.66,25.59 0.1,8.8 -9.86,14.66 -28.13,19.44 -8.6,2.35 -11.14,6.06 -14.17,9.28 -1.27,-2.05 -5.17,-5.76 -13.38,-7.62 -19.53,-4.29 -32.53,-11.82 -32.53,-20.71 0,-10.64 18.56,-25.88 44.55,-25.98 z"
   id="path866" />
     <path
   class="fil1"
   d="m 13869.68,8125.09 -131.29,76.68 -0.09,-0.1 -5.87,3.23 c -0.19,0.1 -18.56,10.25 -40.53,13.77 -33.51,5.37 -58.81,-15.73 -59.1,-16.02 l -6.06,-5.37 -5.86,5.66 c -0.78,0.79 -19.44,17.98 -56.26,16.51 -14.36,-0.58 -29.21,-6.93 -37.61,-11.13 l -143.11,-82.64 -0.19,112.14 -48.55,-27.65 0.78,259.25 v 0.49 c 1.37,24.62 2.83,45.23 9.08,66.52 7.23,24.43 20.03,46.11 39.37,66.33 13.19,13.38 28.33,23.74 44.93,30.77 14.27,5.96 30.19,9.57 47.28,10.65 4.3,0.29 8.4,0.49 12.7,0.49 25.98,0 50.41,-5.08 70.63,-9.09 9.37,-1.95 17.97,-3.61 24.71,-4.39 23.15,-0.39 31.55,9.86 37.32,12.21 1.27,0.78 2.73,1.27 4.59,1.27 0.48,0 0.78,-0.1 1.07,0 1.66,-0.2 2.93,-0.78 4.1,-1.56 l 0.1,0.09 c 5.96,-4.1 10.55,-6.93 15.24,-8.79 19.44,-7.72 36.73,-3.42 58.51,2.15 3.71,0.98 7.62,1.95 11.63,2.83 l 0.48,0.1 c 15.05,2.54 31.95,4.98 49.33,4.98 9.68,0 19.54,-0.78 29.5,-2.44 28.14,-5.37 52.75,-19.34 75.51,-42.88 19.15,-19.83 31.07,-38.78 37.61,-59.39 5.86,-18.76 6.84,-37.61 8.01,-59.3 l 0.2,-4.1 0.58,-265.6 -48.74,27.74 z m -17.19,80.69 -0.1,42.39 -41.52,24.91 -15.53,-15.34 -8.5,-8.88 z m -171.53,31.65 c 4.39,0 8.98,-0.3 13.87,-1.08 17.48,-2.73 32.53,-8.98 40.44,-12.79 l 63.39,62.42 c -8.59,9.47 -23.24,28.81 -29.5,54.7 -5.47,1.27 -10.25,4.3 -10.94,4.69 l -4.59,3.03 3.62,4.2 c 0.19,0.19 3.51,4 9.08,6.44 -0.19,3.42 -0.29,6.94 -0.19,10.55 0.48,14.07 2.93,28.82 6.35,42.4 -13.88,-2.64 -34.78,-5.57 -60.47,-5.67 -0.39,0 -0.78,0 -1.07,0 v -33.89 l 0.09,-0.01 c 0,-0.19 0,-0.29 -0.1,-0.48 1.18,-5.77 7.04,-6.55 8.21,-6.74 l -0.49,-4.89 0.29,4.89 -0.78,-9.67 c -2.05,0.19 -4.69,0.78 -7.42,2.24 v -7.23 c 1.56,-6.44 14.65,-7.42 14.75,-7.42 l -0.49,-9.77 c -0.49,0.1 -7.81,0.49 -14.26,3.71 v -11.43 0 0 -0.48 c 0.29,-0.49 0.68,-1.18 1.07,-1.86 4.89,0.78 13.78,0.98 21.59,-6.15 7.13,-6.16 8.3,-15.44 8.3,-15.83 l 0.69,-4.88 -4.89,-0.69 c -0.58,-0.09 -12.11,-1.46 -21.58,7.23 -3.81,3.32 -7.23,7.43 -9.67,10.94 -2.74,-4.3 -7.23,-9.08 -14.46,-13.09 -7.82,-4.3 -15.53,-4.1 -15.83,-4.1 l -5.47,0.2 0.88,5.37 c 0.1,0.68 2.64,16.31 15.34,20.61 5.86,2.05 10.65,1.37 13.48,0.49 0.39,0.97 0.59,1.76 0.68,2.24 v 11.43 c -6.44,-3.32 -13.77,-3.71 -14.26,-3.71 l -0.49,9.77 c 0,0 3.81,0.19 7.82,1.56 4,1.47 6.44,3.32 6.93,5.86 v 7.23 c -2.63,-1.37 -5.37,-2.05 -7.42,-2.15 l -0.78,9.67 c 0.29,0 7.13,0.69 8.11,6.94 v 33.99 c -30.68,0.69 -52.95,4.69 -65.16,7.62 v -52.75 c 1.66,0.39 3.52,0.69 5.76,0.78 0.1,0 0.2,0 0.3,0 7.42,0 15.24,-5.86 16.02,-6.54 l 4.39,-3.42 -3.9,-3.91 c -0.3,-0.19 -7.43,-7.32 -17.78,-7.32 -1.76,0 -3.23,0.19 -4.69,0.68 V 8225.7 c 10.74,5.57 26.47,11.73 45.23,11.73 z m -116.64,-0.2 c 1.66,0.1 3.42,0.1 5.08,0.1 21.78,0 38.2,-5.67 48.94,-11.23 v 187.94 h -0.19 c -6.45,-1.57 -20.52,-4.5 -39.76,-6.25 -0.39,-5.57 -1.56,-19.83 -1.56,-19.83 0,0 1.27,-11.73 1.56,-13.39 2.73,-8.2 4.3,-14.36 4.98,-15.63 1.66,-0.87 6.64,-3.9 9.38,-7.42 2.64,-3.22 3.71,-4.3 4.59,-9.67 l 2.15,-18.07 -2.44,-46.11 14.26,-1.95 2.73,-3.91 0.2,-4.39 -19.05,-13.48 c 0,0 -8.11,2.73 -10.06,3.22 -3.81,-2.05 -10.84,-3.03 -17.98,2.44 0.79,2.64 3.13,5.18 6.16,6.84 3.71,2.25 10.55,2.15 10.55,2.15 0,0 0.1,1.76 0.1,3.42 0.68,19.83 0.29,41.71 0.29,41.71 l -19.54,1.37 -50.21,-2.25 -17.77,16.8 -2.25,6.06 c -2.05,5.47 -1.76,11.72 0.68,17.09 l 8.7,-9.47 3.51,16.8 -4.69,22.95 3.23,9.09 c 0,0 3.22,8.2 6.45,16.41 -15.54,1.66 -26.57,3.9 -32.44,5.37 4.3,-16.51 5.38,-25.59 5.67,-27.74 0.78,-4.4 6.54,-40.25 -4.98,-66.43 -5.28,-12.01 -11.53,-21.29 -17.1,-28.03 -1.85,-3.13 -3.51,-5.67 -5.08,-7.82 l 3.81,-4.1 55.39,-56.17 c 9.38,4.69 27.84,12.8 46.69,13.58 z m 5.18,169.97 c -0.88,-0.1 -1.86,-0.1 -2.64,-0.2 -0.58,-8.4 -1.85,-27.54 -1.85,-27.54 l 0.88,-2.35 1.95,-10.55 -0.29,11.63 v 3.81 z m -10.65,-0.49 c -2.64,-0.1 -5.47,-0.1 -8.2,-0.19 -4.99,0 -9.77,0.09 -14.27,0.19 -2.24,-7.23 -3.71,-13.77 -5.86,-20.61 -0.68,-2.05 0.79,-11.23 0.79,-11.23 l 9.28,-15.34 7.52,2.74 6.93,-1.37 -0.68,20.22 z m -31.26,0.29 c 0,0.1 0,0.1 0,0.2 -2.54,0.2 -4.98,0.29 -7.32,0.49 -3.03,-8.89 -7.33,-24.72 -7.33,-24.72 l 8.3,-22.27 -0.97,24.72 c 0.09,-0.1 5.66,14.16 7.32,21.58 z m -126.69,-199.76 67.2,41.22 -23.24,23.64 -44.06,-24.51 z m 36.24,289.93 -67.99,-39.96 c -7.13,-5.56 -15.73,-15.14 -15.92,-29.4 -0.1,-2.73 -0.1,-4.49 -0.29,-5.47 l -0.2,-82.64 c 11.53,6.45 92.02,51.28 111.16,65.45 -3.32,13.58 -9.28,33.99 -19.73,61.54 -4,9.96 -6.25,20.22 -7.03,30.48 z m 341.79,70.13 c -23.54,20.22 -46.69,32.43 -94.95,34.29 -31.25,1.27 -47.47,11.72 -57.04,21.2 -7.82,-7.92 -24.13,-20.13 -58.32,-21.2 -33.51,-0.98 -55.48,-9.87 -68.18,-17.19 -13.29,-7.72 -19.25,-15.34 -19.54,-15.73 l -0.29,-0.68 -0.59,-0.59 c -0.1,-0.1 -10.35,-10.26 -17.78,-27.16 -9.67,-22.07 -10.16,-44.83 -1.46,-67.59 6.05,-15.93 10.65,-29.5 14.16,-40.93 h 303.21 c 6.94,22.07 14.56,38.68 15.83,41.32 0.68,1.95 6.05,16.6 7.13,34.97 1.07,25.79 -6.26,45.62 -22.18,59.29 z m 121.91,-227.79 -0.2,88.89 c -0.48,16.21 -10.25,25.1 -16.7,29.2 l -3.32,2.06 c -1.37,0.68 -2.25,0.97 -2.25,0.97 l 0.59,-0.1 -61.54,35.56 c -2.35,-17 -7.03,-29.01 -7.33,-29.69 l -0.19,-0.59 c -0.2,-0.39 -13.39,-28.82 -21,-61.35 z"
   id="path868" />
     <path
   class="fil1"
   d="m 13642.86,8318.21 -4.4,1.76 1.57,4.49 c 0.09,0.49 4.2,11.24 16.99,14.95 2.25,0.68 4.5,0.88 6.74,0.88 8.21,0 15.63,-3.42 16.22,-3.62 l 5.08,-2.44 -3.42,-5.18 c -2.34,-3.61 -6.15,-9.67 -16.9,-13.09 -8.99,-2.63 -20.61,1.66 -21.88,2.25 z"
   id="path870" />
     <path
   class="fil1"
   d="m 13747.77,8318.11 c -8.4,2.25 -15.53,11.63 -16.31,12.7 l -3.23,4.5 4.89,2.63 c 0.29,0.2 6.54,3.52 14.55,3.52 2.54,0 5.18,-0.2 7.82,-1.08 10.16,-2.93 14.94,-13.18 15.24,-13.57 l 2.15,-4.4 -4.99,-2.34 c -3.9,-1.86 -10.06,-4.79 -20.12,-1.96 z"
   id="path872" />
     <path
   class="fil1"
   d="m 13705.86,8307.47 3.52,-3.03 c 0.29,-0.2 8.01,-6.84 8.6,-19.93 0.49,-11.04 -7.91,-18.27 -8.21,-18.56 l -3.61,-3.03 -3.13,3.52 c -0.1,0.19 -0.29,0.29 -0.49,0.58 -2.54,2.64 -7.32,7.72 -7.62,17.98 -0.29,10.45 7.53,18.95 7.82,19.24 z"
   id="path874" />
     <path
   class="fil1"
   d="m 13748.45,8311.47 c 0.49,0.1 2.45,0.68 5.28,0.68 2.93,0 7.13,-0.58 11.04,-2.83 6.74,-3.91 8.2,-11.72 8.4,-12.6 l 0.88,-4.88 -5.18,-0.98 c -2.64,-0.59 -7.72,-1.56 -14.36,2.25 -0.98,0.58 -5.96,3.61 -9.38,11.82 l -2.15,5.17 z"
   id="path876" />
     <path
   class="fil1"
   d="m 13649.31,8309.32 c 2.34,1.08 4.69,1.47 6.83,1.47 4.3,0 7.82,-1.57 8.31,-1.66 l 4.39,-2.15 -2.24,-4.69 c -1.27,-2.54 -3.23,-7.23 -10.26,-10.45 -0.98,-0.49 -6.45,-2.74 -14.95,-0.79 l -5.37,1.27 2.05,5.18 c 0.3,0.69 3.32,8.21 11.24,11.82 z"
   id="path878" />
     <path
   class="fil1"
   d="m 13728.04,8292.42 c 1.56,0 6.54,-0.29 10.65,-4.2 4.29,-3.71 4.29,-9.57 4.29,-10.25 l -0.09,-4.89 -5.18,0.1 c -1.76,0.1 -5.67,0.1 -9.77,3.71 -3.52,2.93 -4.59,8.4 -4.88,9.57 l -0.98,5.47 5.47,0.3 c 0,0.19 0.29,0.19 0.49,0.19 z"
   id="path880" />
     <path
   class="fil1"
   d="m 13683.79,8290.86 4.88,0.68 0.78,-5.08 c 0.2,-1.66 0.69,-5.17 -2.05,-9.47 -2.24,-3.52 -6.93,-5.37 -7.91,-5.77 l -5.27,-1.95 -1.27,5.37 c -0.1,0.59 -1.27,5.86 2.05,10.65 2.93,4.69 8.2,5.47 8.79,5.57 z"
   id="path882" />
     <path
   class="fil1"
   d="m 13666.3,8354.74 c -7.62,4.3 -9.47,13.09 -9.67,14.07 l -0.97,4.88 4.88,0.88 c 0.98,0.2 2.83,0.59 5.27,0.59 3.03,0 7.23,-0.59 11.43,-2.74 7.62,-3.9 10.55,-12.89 10.94,-13.87 l 1.57,-4.88 -4.89,-1.37 c -0.39,-0.1 -9.96,-2.64 -18.56,2.44 z"
   id="path884" />
     <path
   class="fil1"
   d="m 13726.57,8353.47 -3.71,2.74 2.54,3.81 c 0.59,0.88 5.67,8.11 13.09,10.26 1.76,0.48 3.52,0.68 5.28,0.68 5.86,0 11.33,-2.05 12.3,-2.44 l 4.99,-1.96 -2.35,-4.69 c -0.19,-0.48 -4.49,-9.28 -13.87,-11.72 -10.35,-2.44 -17.97,3.13 -18.27,3.32 z"
   id="path886" />
    </g>
   </g>
  </g>
 </g>
</svg>
