<?xml version="1.0" encoding="UTF-8" standalone="no"?>
<!-- Creator: CorelDRAW 2018 (64 Bit) -->

<svg
   xmlns:dc="http://purl.org/dc/elements/1.1/"
   xmlns:cc="http://creativecommons.org/ns#"
   xmlns:rdf="http://www.w3.org/1999/02/22-rdf-syntax-ns#"
   xmlns:svg="http://www.w3.org/2000/svg"
   xmlns="http://www.w3.org/2000/svg"
   xmlns:sodipodi="http://sodipodi.sourceforge.net/DTD/sodipodi-0.dtd"
   xmlns:inkscape="http://www.inkscape.org/namespaces/inkscape"
   xml:space="preserve"
   width="121"
   height="50"
   version="1.1"
   style="clip-rule:evenodd;fill-rule:evenodd;image-rendering:optimizeQuality;shape-rendering:geometricPrecision;text-rendering:geometricPrecision"
   viewBox="0 0 3189.3577 1317.9165"
   id="svg366"
   sodipodi:docname="grc_icono.svg"
   inkscape:version="0.92.4 (5da689c313, 2019-01-14)"><metadata
   id="metadata370"><rdf:RDF><cc:Work
       rdf:about=""><dc:format>image/svg+xml</dc:format><dc:type
         rdf:resource="http://purl.org/dc/dcmitype/StillImage" /><dc:title></dc:title></cc:Work></rdf:RDF></metadata><sodipodi:namedview
   pagecolor="#ffffff"
   bordercolor="#666666"
   borderopacity="1"
   objecttolerance="10"
   gridtolerance="10"
   guidetolerance="10"
   inkscape:pageopacity="0"
   inkscape:pageshadow="2"
   inkscape:window-width="1920"
   inkscape:window-height="1017"
   id="namedview368"
   showgrid="false"
   scale-x="26.35833"
   fit-margin-top="0"
   fit-margin-left="0"
   fit-margin-right="0"
   fit-margin-bottom="0"
   inkscape:zoom="6.7280649"
   inkscape:cx="8.7902146"
   inkscape:cy="13.5705"
   inkscape:window-x="-8"
   inkscape:window-y="-8"
   inkscape:window-maximized="1"
   inkscape:current-layer="svg366"
   units="px" />
 <defs
   id="defs319">
  <style
   type="text/css"
   id="style302">
   <![CDATA[
    .str1 {stroke:white;stroke-width:7.62;stroke-miterlimit:22.9256}
    .str0 {stroke:white;stroke-width:7.62;stroke-miterlimit:22.9256}
    .str2 {stroke:white;stroke-width:7.62;stroke-miterlimit:22.9256}
    .str3 {stroke:white;stroke-width:7.62;stroke-miterlimit:22.9256}
    .fil2 {fill:none}
    .fil1 {fill:none;fill-rule:nonzero}
    .fil3 {fill:white}
    .fil0 {fill:white;fill-rule:nonzero}
   ]]>
  </style>
   <clipPath
   id="id0"
   style="clip-rule:nonzero">
    <path
   d="m 19101.87,7859.71 v -48.73 l 0.66,-18.69 2.01,-17.68 3,-16.69 4.34,-15.35 5.67,-14.69 7.01,-13.35 8.34,-12.34 9.35,-11.35 5.34,-5.34 5.34,-4.67 5.67,-4.68 5.67,-4.33 6.35,-3.68 6.34,-3.67 6.67,-3.33 6.68,-2.67 7.34,-2.67 7.34,-2.01 7.68,-2 7.67,-1.33 8.01,-1.34 8.34,-1 8.68,-0.33 8.68,-0.34 9.01,0.34 8.34,0.33 8.35,1 8.34,1.34 8.01,1.33 7.68,2 7.34,2.01 7.34,2.67 7.01,2.67 7.01,3.33 6.34,3.67 6.67,3.68 6.01,4.33 6.01,4.68 5.67,4.67 5.67,5.34 7.01,8.01 6.34,9.01 5.01,10.01 4.34,11.01 3.34,12.02 2.33,12.68 1.34,13.68 0.66,15.02 h -72.08 l -0.34,-8.01 -0.66,-7.67 -1.34,-6.68 -2,-6.67 -2.34,-5.68 -3,-5.67 -3.67,-4.67 -4.01,-4.34 -4.67,-4.01 -5.34,-3.33 -5.67,-2.67 -6.34,-2.34 -7.01,-2 -7.34,-1.34 -8.01,-0.66 -8.68,-0.34 -10.01,0.67 -9.35,1.33 -8.34,2.67 -8.01,3.34 -6.68,4.34 -6,4.34 -5.01,5.01 -4,5 -3.34,5.67 -3,7.35 -2.67,8.34 -0.22,1.04 c -0.39,-0.78 -0.79,-0.86 -1.26,0.46 -0.63,1.77 -2.41,7.77 -3.11,9.06 -0.77,1.39 -2.06,1.52 -1.13,4.15 1.14,3.23 0.31,1.95 -0.46,4.55 -0.68,2.3 0.55,2.77 1.21,4.23 -2.32,4.03 -1.14,4.74 -0.26,6.7 l -0.78,6.52 -0.22,2.43 c -0.11,0.21 -0.28,0.5 -0.59,0.93 -1.04,1.49 -0.98,1.35 -0.46,3.52 0.82,3.39 -0.43,3.57 0.6,5.26 v 2.54 l -0.09,2.26 -0.01,0.03 c -1.41,-0.26 -6.17,-3.49 -8.13,-4.28 -6.24,-2.53 -11.22,-5.11 -17.97,-7.52 -3.35,-1.19 -6.56,-1.97 -9.5,-3.46 -1.63,-0.83 -2.92,-1.2 -4.48,-1.85 -1.92,-0.81 -21.68,-11.8 -22.38,-5.66 -0.42,3.66 4.7,4.26 6.06,5.03 0.98,0.55 -0.36,-0.33 0.48,0.3 0.63,0.48 0.18,-0.01 0.64,0.63 -1.92,0.05 -11.78,-1.3 -8.69,3.67 1.15,1.85 7.23,1.94 8.92,2.57 l 0.55,0.25 c 0.73,0.41 0.21,0.03 0.76,0.59 -2.05,-0.02 -3.96,-0.26 -4.67,1.25 -2.25,4.72 8.05,3.72 11.39,5.51 -2.49,1.35 -7.64,2.58 -4.21,7.05 2.62,3.42 5.98,1.93 9.14,3.76 l -1.01,0.79 c -0.94,0.45 -2.93,0.55 -3.38,2.27 -1.42,5.49 10.82,5.19 16.46,6.42 -2.48,0.06 -5.49,-0.49 -7.81,0.32 -1.93,0.68 -3.17,2.86 -1.87,5.21 2.64,4.81 6.34,2.87 11.72,4.48 -1.13,1.07 -3.96,1.38 -4.73,3.56 -1.02,2.9 1.15,4.48 2.81,5.42 3.65,2.07 11.73,-0.07 14.31,2.18 l -1.73,0.47 c -3.37,0.17 -9.05,-1.3 -10.15,1.94 -0.62,1.85 0.62,2.49 0.99,3.36 3.17,0.94 3.79,1.47 7.65,1.36 l 5.93,-0.49 c 1.75,0.04 1.06,-0.04 1.62,0.75 -0.38,0.55 0.75,0.85 -2.37,0.79 -4.95,-0.09 -4.56,-0.23 -7.96,1.63 -0.27,5.15 3.7,5.99 7.94,5.6 2.11,-0.19 2.22,-0.99 3.91,0.25 0.01,1.64 -0.71,0.95 -3.26,3.44 -1.28,1.25 -1.77,3.5 -0.07,5.1 2.27,2.12 7.49,-0.6 11.53,-0.48 -0.26,1.91 -2.59,1.86 -3.59,3.98 -1.06,2.22 0.39,4.47 2.38,4.93 1.05,0.25 2.2,0.08 3.37,-0.3 l 0.5,5.32 0.67,8.35 0.67,8.67 1,7.01 1.33,5.67 1.34,4.68 1.67,4 2,4.67 2.34,5.34 2.67,5.68 3.33,5.67 3.34,4.67 4.01,4.01 1.45,1.09 c -9.35,6.98 -22.38,12.29 -38.83,11.58 -7.87,1.74 -5.85,4.76 -3.49,5.11 1.01,-0.02 1.76,0.04 2.77,0.13 5.56,0.49 0.35,1.08 -1.87,1.15 -1.06,1.1 -1.43,1.33 -1.22,3.68 0.21,2.5 -4.73,2.37 -4.45,4.12 0.57,3.53 -2.72,3.92 2.08,7.73 -0.45,2.06 -3.3,3.74 -1.02,6.6 2.37,2.96 4.41,1.04 7.16,0.94 -1.07,2.55 -4.69,4.66 -4.86,5.01 -0.47,4.13 10.63,3.31 14.3,3.15 -0.15,3.31 -0.43,1.55 -1.41,3.38 -0.89,1.64 -0.18,2.53 0.8,3.15 3.19,1.6 24.07,-6.56 26.56,-7.39 0.72,0.93 1.05,2.29 2.87,2.01 1.7,-0.26 0.17,-0.41 1.65,-0.59 1.46,-0.17 0.48,0.2 1.87,0.56 3.14,0.8 3.93,-2.73 5.8,-3.54 0.78,0.86 0.93,1.69 2.24,1.83 2.51,0.26 4.75,-3.63 6.85,-5.8 0.43,-0.97 3.2,-5.33 4.2,-6.07 1.95,0.62 1.38,1.44 2.01,3.79 1.46,1.89 4.3,2.06 5.64,-0.16 1.01,-1.69 0.75,-5.85 0.86,-8.02 1.87,0.33 1.93,2.22 3.24,3.66 2.77,0.19 3.97,-1.3 4.52,-3.33 0.17,-2.2 0.12,-5.74 1.08,-7.4 0.92,0.77 0.89,0.63 0.66,3.34 -0.3,3.49 -0.37,4.56 2.59,4.52 2.96,-1.53 1.52,-11.37 1.5,-15.26 0.06,0.07 0.16,0.08 0.19,0.21 l 0.59,0.9 c 1.37,3.12 0.28,9.99 3.98,9.24 2.2,-0.45 1.85,-3.28 2.17,-5.64 0.34,-2.54 0.44,-4.03 0.54,-6.45 l 2.2,0.1 c -0.02,0.5 -0.15,1.21 -0.26,2.13 -0.37,2.9 -0.51,3.39 0.82,5.21 5.11,1.03 2.48,-4.31 4.22,-5.89 0.45,1.15 0.15,1.19 0.92,2.61 3.38,0.89 3.86,-1.74 3.75,-4.56 l 2.41,-0.14 11.01,-2.01 9.68,-3 9.01,-4.67 8.01,-5.68 7.34,-7 6.01,-8.35 5.67,-9.68 v -26.7 h -42.43 c 0.28,-1.05 0.48,-2.37 1.3,-4.69 0.83,-2.36 1.57,-2.77 2.97,-4.48 5.94,-7.25 8.31,-15.38 8.26,-24.71 -0.03,-6.34 -0.2,-11.45 -0.82,-17.35 -0.51,-4.86 -2.21,-7.95 -1.97,-12.84 h 98.44 v 119.14 l -4.68,9.68 -5,9.34 -6.01,8.35 -6.34,8.01 -7.01,7.34 -8.01,6.67 -8.34,6.01 -8.68,5.34 -9.68,5.01 -9.67,4 -10.02,3.67 -10.34,2.67 -10.68,2.34 -11.02,1.67 -11.34,1 -11.68,0.33 -10.02,-0.33 -10.01,-0.67 -9.68,-0.67 -9.01,-1.33 -9.01,-1.67 -8.34,-2 -8.01,-2.34 -7.68,-2.67 -7.67,-3.34 -7.01,-3.33 -6.68,-4.01 -6,-4 -6.01,-4.68 -5.67,-5 -5.01,-5.34 -5.01,-5.67 -4.67,-6.01 -4,-6.34 -4.01,-6.68 -3.67,-7.34 -3.34,-7.34 -3,-8.01 -3,-8.34 -2.34,-8.68 -2.34,-9.01 -1.66,-9.68 -1.67,-9.68 -1.34,-10.01 -1,-10.68 -0.67,-11.01 -0.66,-11.35 z"
   id="path304"
   inkscape:connector-curvature="0" />
   </clipPath>
   <clipPath
   id="id1">
    <path
   d="m 19101.87,7859.71 v -48.73 l 0.66,-18.69 2.01,-17.68 3,-16.69 4.34,-15.35 5.67,-14.69 7.01,-13.35 8.34,-12.34 9.35,-11.35 5.34,-5.34 5.34,-4.67 5.67,-4.68 5.67,-4.33 6.35,-3.68 6.34,-3.67 6.67,-3.33 6.68,-2.67 7.34,-2.67 7.34,-2.01 7.68,-2 7.67,-1.33 8.01,-1.34 8.34,-1 8.68,-0.33 8.68,-0.34 9.01,0.34 8.34,0.33 8.35,1 8.34,1.34 8.01,1.33 7.68,2 7.34,2.01 7.34,2.67 7.01,2.67 7.01,3.33 6.34,3.67 6.67,3.68 6.01,4.33 6.01,4.68 5.67,4.67 5.67,5.34 7.01,8.01 6.34,9.01 5.01,10.01 4.34,11.01 3.34,12.02 2.33,12.68 1.34,13.68 0.66,15.02 h -72.08 l -0.34,-8.01 -0.66,-7.67 -1.34,-6.68 -2,-6.67 -2.34,-5.68 -3,-5.67 -3.67,-4.67 -4.01,-4.34 -4.67,-4.01 -5.34,-3.33 -5.67,-2.67 -6.34,-2.34 -7.01,-2 -7.34,-1.34 -8.01,-0.66 -8.68,-0.34 -10.01,0.67 -9.35,1.33 -8.34,2.67 -8.01,3.34 -6.68,4.34 -6,4.34 -5.01,5.01 -4,5 -3.34,5.67 -3,7.35 -2.67,8.34 -0.22,1.04 c -0.39,-0.78 -0.79,-0.86 -1.26,0.46 -0.63,1.77 -2.41,7.77 -3.11,9.06 -0.77,1.39 -2.06,1.52 -1.13,4.15 1.14,3.23 0.31,1.95 -0.46,4.55 -0.68,2.3 0.55,2.77 1.21,4.23 -2.32,4.03 -1.14,4.74 -0.26,6.7 l -0.78,6.52 -0.22,2.43 c -0.11,0.21 -0.28,0.5 -0.59,0.93 -1.04,1.49 -0.98,1.35 -0.46,3.52 0.82,3.39 -0.43,3.57 0.6,5.26 v 2.54 l -0.09,2.26 -0.01,0.03 c -1.41,-0.26 -6.17,-3.49 -8.13,-4.28 -6.24,-2.53 -11.22,-5.11 -17.97,-7.52 -3.35,-1.19 -6.56,-1.97 -9.5,-3.46 -1.63,-0.83 -2.92,-1.2 -4.48,-1.85 -1.92,-0.81 -21.68,-11.8 -22.38,-5.66 -0.42,3.66 4.7,4.26 6.06,5.03 0.98,0.55 -0.36,-0.33 0.48,0.3 0.63,0.48 0.18,-0.01 0.64,0.63 -1.92,0.05 -11.78,-1.3 -8.69,3.67 1.15,1.85 7.23,1.94 8.92,2.57 l 0.55,0.25 c 0.73,0.41 0.21,0.03 0.76,0.59 -2.05,-0.02 -3.96,-0.26 -4.67,1.25 -2.25,4.72 8.05,3.72 11.39,5.51 -2.49,1.35 -7.64,2.58 -4.21,7.05 2.62,3.42 5.98,1.93 9.14,3.76 l -1.01,0.79 c -0.94,0.45 -2.93,0.55 -3.38,2.27 -1.42,5.49 10.82,5.19 16.46,6.42 -2.48,0.06 -5.49,-0.49 -7.81,0.32 -1.93,0.68 -3.17,2.86 -1.87,5.21 2.64,4.81 6.34,2.87 11.72,4.48 -1.13,1.07 -3.96,1.38 -4.73,3.56 -1.02,2.9 1.15,4.48 2.81,5.42 3.65,2.07 11.73,-0.07 14.31,2.18 l -1.73,0.47 c -3.37,0.17 -9.05,-1.3 -10.15,1.94 -0.62,1.85 0.62,2.49 0.99,3.36 3.17,0.94 3.79,1.47 7.65,1.36 l 5.93,-0.49 c 1.75,0.04 1.06,-0.04 1.62,0.75 -0.38,0.55 0.75,0.85 -2.37,0.79 -4.95,-0.09 -4.56,-0.23 -7.96,1.63 -0.27,5.15 3.7,5.99 7.94,5.6 2.11,-0.19 2.22,-0.99 3.91,0.25 0.01,1.64 -0.71,0.95 -3.26,3.44 -1.28,1.25 -1.77,3.5 -0.07,5.1 2.27,2.12 7.49,-0.6 11.53,-0.48 -0.26,1.91 -2.59,1.86 -3.59,3.98 -1.06,2.22 0.39,4.47 2.38,4.93 1.05,0.25 2.2,0.08 3.37,-0.3 l 0.5,5.32 0.67,8.35 0.67,8.67 1,7.01 1.33,5.67 1.34,4.68 1.67,4 2,4.67 2.34,5.34 2.67,5.68 3.33,5.67 3.34,4.67 4.01,4.01 1.45,1.09 c -9.35,6.98 -22.38,12.29 -38.83,11.58 -7.87,1.74 -5.85,4.76 -3.49,5.11 1.01,-0.02 1.76,0.04 2.77,0.13 5.56,0.49 0.35,1.08 -1.87,1.15 -1.06,1.1 -1.43,1.33 -1.22,3.68 0.21,2.5 -4.73,2.37 -4.45,4.12 0.57,3.53 -2.72,3.92 2.08,7.73 -0.45,2.06 -3.3,3.74 -1.02,6.6 2.37,2.96 4.41,1.04 7.16,0.94 -1.07,2.55 -4.69,4.66 -4.86,5.01 -0.47,4.13 10.63,3.31 14.3,3.15 -0.15,3.31 -0.43,1.55 -1.41,3.38 -0.89,1.64 -0.18,2.53 0.8,3.15 3.19,1.6 24.07,-6.56 26.56,-7.39 0.72,0.93 1.05,2.29 2.87,2.01 1.7,-0.26 0.17,-0.41 1.65,-0.59 1.46,-0.17 0.48,0.2 1.87,0.56 3.14,0.8 3.93,-2.73 5.8,-3.54 0.78,0.86 0.93,1.69 2.24,1.83 2.51,0.26 4.75,-3.63 6.85,-5.8 0.43,-0.97 3.2,-5.33 4.2,-6.07 1.95,0.62 1.38,1.44 2.01,3.79 1.46,1.89 4.3,2.06 5.64,-0.16 1.01,-1.69 0.75,-5.85 0.86,-8.02 1.87,0.33 1.93,2.22 3.24,3.66 2.77,0.19 3.97,-1.3 4.52,-3.33 0.17,-2.2 0.12,-5.74 1.08,-7.4 0.92,0.77 0.89,0.63 0.66,3.34 -0.3,3.49 -0.37,4.56 2.59,4.52 2.96,-1.53 1.52,-11.37 1.5,-15.26 0.06,0.07 0.16,0.08 0.19,0.21 l 0.59,0.9 c 1.37,3.12 0.28,9.99 3.98,9.24 2.2,-0.45 1.85,-3.28 2.17,-5.64 0.34,-2.54 0.44,-4.03 0.54,-6.45 l 2.2,0.1 c -0.02,0.5 -0.15,1.21 -0.26,2.13 -0.37,2.9 -0.51,3.39 0.82,5.21 5.11,1.03 2.48,-4.31 4.22,-5.89 0.45,1.15 0.15,1.19 0.92,2.61 3.38,0.89 3.86,-1.74 3.75,-4.56 l 2.41,-0.14 11.01,-2.01 9.68,-3 9.01,-4.67 8.01,-5.68 7.34,-7 6.01,-8.35 5.67,-9.68 v -26.7 h -42.43 c 0.28,-1.05 0.48,-2.37 1.3,-4.69 0.83,-2.36 1.57,-2.77 2.97,-4.48 5.94,-7.25 8.31,-15.38 8.26,-24.71 -0.03,-6.34 -0.2,-11.45 -0.82,-17.35 -0.51,-4.86 -2.21,-7.95 -1.97,-12.84 h 98.44 v 119.14 l -4.68,9.68 -5,9.34 -6.01,8.35 -6.34,8.01 -7.01,7.34 -8.01,6.67 -8.34,6.01 -8.68,5.34 -9.68,5.01 -9.67,4 -10.02,3.67 -10.34,2.67 -10.68,2.34 -11.02,1.67 -11.34,1 -11.68,0.33 -10.02,-0.33 -10.01,-0.67 -9.68,-0.67 -9.01,-1.33 -9.01,-1.67 -8.34,-2 -8.01,-2.34 -7.68,-2.67 -7.67,-3.34 -7.01,-3.33 -6.68,-4.01 -6,-4 -6.01,-4.68 -5.67,-5 -5.01,-5.34 -5.01,-5.67 -4.67,-6.01 -4,-6.34 -4.01,-6.68 -3.67,-7.34 -3.34,-7.34 -3,-8.01 -3,-8.34 -2.34,-8.68 -2.34,-9.01 -1.66,-9.68 -1.67,-9.68 -1.34,-10.01 -1,-10.68 -0.67,-11.01 -0.66,-11.35 z"
   id="path307"
   inkscape:connector-curvature="0" />
   </clipPath>
   <clipPath
   id="id2"
   style="clip-rule:nonzero">
    <path
   d="m 20005.92,7892.44 h 71.45 l -0.67,18.36 -1.67,17.03 -3,16.02 -4.01,15.03 -5.34,14.02 -6.35,12.69 -7.68,12.02 -9.01,10.35 -9.68,9.68 -11.02,8.02 -11.69,7.01 -13.02,5.67 -13.69,4.68 -14.69,3 -15.69,2.01 -16.7,0.66 -9.35,-0.33 -9.01,-0.33 -8.68,-1 -8.35,-1.34 -8.35,-1.34 -7.68,-2 -7.68,-2.34 -7.01,-2.67 -7.01,-3 -6.68,-3.01 -6.34,-3.67 -6.01,-4.01 -5.68,-4.34 -5.67,-4.67 -5.01,-5.01 -5.01,-5.68 -4.67,-5.67 -4.01,-6.01 -4.01,-6.35 -3.67,-6.67 -3.67,-7.35 -3.01,-7.34 -2.67,-7.68 -2.67,-8.35 -2,-8.35 -2.01,-9.01 -1.67,-9.35 -1.33,-9.35 -1,-10.02 -0.67,-10.01 -0.67,-10.69 v -11.02 -33.05 l 0.34,-17.37 1,-16.02 1.33,-15.69 2.01,-14.7 3,-13.69 3.34,-13.02 3.67,-12.35 4.68,-11.35 5.01,-10.35 6.01,-10.02 6.34,-8.68 7.01,-8.35 7.35,-7.34 8.34,-6.35 8.69,-5.67 9.34,-4.68 8.02,-3.67 8.01,-2.67 8.68,-2.67 9.02,-2.01 9.35,-1.33 10.01,-1.34 10.02,-0.67 10.68,-0.33 15.36,0.67 14.69,1.67 14.03,2.67 13.02,3.67 12.69,5.01 11.68,6.01 11.02,7.01 10.35,8.01 9.02,9.35 8.34,10.02 6.68,11.02 5.68,12.02 4.34,13.02 3,13.69 1.67,15.02 0.67,16.03 h -71.79 l -1.67,-8.01 -2,-7.35 -2.34,-7.01 -2.67,-6.34 -2.67,-6.01 -3.34,-5.35 -3.34,-5 -3.67,-4.34 -4.34,-4.01 -4.67,-3.34 -5.01,-2.67 -6.01,-2.34 -6.35,-2 -7.01,-1.34 -7.34,-0.66 -8.02,-0.34 -9.35,0.34 -8.68,1.33 -8.34,1.67 -7.35,2.67 -7.01,3.67 -6.34,4.01 -5.68,5.01 -5.01,5.67 -3,4.68 -3.01,5.34 -2.34,6.35 -2,7.01 -1.67,7.68 -1.67,8.34 -1,9.35 -0.67,10.02 -0.67,7.34 -0.33,8.35 v 9.69 10.68 34.39 15.36 l 0.42,5.82 c -8.7,-2.42 -17.31,-4.87 -34.69,-4.65 -5.74,0.22 -16.84,1.88 -21.58,3.82 -1.74,0.72 -2.43,1.31 -3.21,1.97 -1.65,1.39 -1.91,1.12 -1.31,3.62 l 0.75,2.44 c 4.01,16.27 14.76,25.86 31.01,30.02 3.11,0.79 6.24,2.13 9.28,2.61 2.7,1.48 11.34,1.42 12.99,3.62 -0.35,1.68 -0.73,3.08 -0.96,5.13 -0.24,2.04 -0.89,3.53 -0.95,4.7 -0.67,0.98 -0.64,1.05 -0.36,3.4 l 0.54,5.37 -0.78,1.77 c -2.38,5.61 -7.42,9.62 -9.83,15.26 -1.24,2.89 -0.8,6.53 2.22,7.89 0.78,0.83 4.45,1.8 5.71,1.75 l 0.33,0.84 c 0.31,5.18 -0.71,5.57 -1.76,9.29 -0.57,2.62 1.61,2.17 2.23,2.34 l 2.41,0.2 c 1.54,0.17 1.45,0.01 1.97,1.44 -1.33,0.41 -6.26,1.91 -6.3,2.13 -0.27,1.34 0.31,2.09 1.07,3.15 0.46,0.65 0.81,0.86 1.32,1.27 0.67,1.28 1.92,4.12 2.44,5.79 0.1,1.6 0.11,6.19 0.77,7.36 1.65,2.9 6.76,10.01 13.94,6.11 42.58,-10.4 82.82,10.69 91.25,-3.27 8.02,-13.26 -23.07,-41.47 13.75,-17 0.15,0.05 3.88,2.17 6.08,3.27 18.37,8.87 19.11,16.12 40.18,7.08 9.63,-4.06 6.14,-9.78 1.99,-18.82 -4.9,-10.72 -14.61,-21.08 -22.34,-30.29 l -7.78,-7.51 0.08,-0.14 3.34,-6.35 3.01,-7.34 2.34,-7.68 2.33,-8.68 2.01,-9.35 1.33,-10.35 z"
   id="path310"
   inkscape:connector-curvature="0" />
   </clipPath>
   <clipPath
   id="id3">
    <path
   d="m 20005.92,7892.44 h 71.45 l -0.67,18.36 -1.67,17.03 -3,16.02 -4.01,15.03 -5.34,14.02 -6.35,12.69 -7.68,12.02 -9.01,10.35 -9.68,9.68 -11.02,8.02 -11.69,7.01 -13.02,5.67 -13.69,4.68 -14.69,3 -15.69,2.01 -16.7,0.66 -9.35,-0.33 -9.01,-0.33 -8.68,-1 -8.35,-1.34 -8.35,-1.34 -7.68,-2 -7.68,-2.34 -7.01,-2.67 -7.01,-3 -6.68,-3.01 -6.34,-3.67 -6.01,-4.01 -5.68,-4.34 -5.67,-4.67 -5.01,-5.01 -5.01,-5.68 -4.67,-5.67 -4.01,-6.01 -4.01,-6.35 -3.67,-6.67 -3.67,-7.35 -3.01,-7.34 -2.67,-7.68 -2.67,-8.35 -2,-8.35 -2.01,-9.01 -1.67,-9.35 -1.33,-9.35 -1,-10.02 -0.67,-10.01 -0.67,-10.69 v -11.02 -33.05 l 0.34,-17.37 1,-16.02 1.33,-15.69 2.01,-14.7 3,-13.69 3.34,-13.02 3.67,-12.35 4.68,-11.35 5.01,-10.35 6.01,-10.02 6.34,-8.68 7.01,-8.35 7.35,-7.34 8.34,-6.35 8.69,-5.67 9.34,-4.68 8.02,-3.67 8.01,-2.67 8.68,-2.67 9.02,-2.01 9.35,-1.33 10.01,-1.34 10.02,-0.67 10.68,-0.33 15.36,0.67 14.69,1.67 14.03,2.67 13.02,3.67 12.69,5.01 11.68,6.01 11.02,7.01 10.35,8.01 9.02,9.35 8.34,10.02 6.68,11.02 5.68,12.02 4.34,13.02 3,13.69 1.67,15.02 0.67,16.03 h -71.79 l -1.67,-8.01 -2,-7.35 -2.34,-7.01 -2.67,-6.34 -2.67,-6.01 -3.34,-5.35 -3.34,-5 -3.67,-4.34 -4.34,-4.01 -4.67,-3.34 -5.01,-2.67 -6.01,-2.34 -6.35,-2 -7.01,-1.34 -7.34,-0.66 -8.02,-0.34 -9.35,0.34 -8.68,1.33 -8.34,1.67 -7.35,2.67 -7.01,3.67 -6.34,4.01 -5.68,5.01 -5.01,5.67 -3,4.68 -3.01,5.34 -2.34,6.35 -2,7.01 -1.67,7.68 -1.67,8.34 -1,9.35 -0.67,10.02 -0.67,7.34 -0.33,8.35 v 9.69 10.68 34.39 15.36 l 0.42,5.82 c -8.7,-2.42 -17.31,-4.87 -34.69,-4.65 -5.74,0.22 -16.84,1.88 -21.58,3.82 -1.74,0.72 -2.43,1.31 -3.21,1.97 -1.65,1.39 -1.91,1.12 -1.31,3.62 l 0.75,2.44 c 4.01,16.27 14.76,25.86 31.01,30.02 3.11,0.79 6.24,2.13 9.28,2.61 2.7,1.48 11.34,1.42 12.99,3.62 -0.35,1.68 -0.73,3.08 -0.96,5.13 -0.24,2.04 -0.89,3.53 -0.95,4.7 -0.67,0.98 -0.64,1.05 -0.36,3.4 l 0.54,5.37 -0.78,1.77 c -2.38,5.61 -7.42,9.62 -9.83,15.26 -1.24,2.89 -0.8,6.53 2.22,7.89 0.78,0.83 4.45,1.8 5.71,1.75 l 0.33,0.84 c 0.31,5.18 -0.71,5.57 -1.76,9.29 -0.57,2.62 1.61,2.17 2.23,2.34 l 2.41,0.2 c 1.54,0.17 1.45,0.01 1.97,1.44 -1.33,0.41 -6.26,1.91 -6.3,2.13 -0.27,1.34 0.31,2.09 1.07,3.15 0.46,0.65 0.81,0.86 1.32,1.27 0.67,1.28 1.92,4.12 2.44,5.79 0.1,1.6 0.11,6.19 0.77,7.36 1.65,2.9 6.76,10.01 13.94,6.11 42.58,-10.4 82.82,10.69 91.25,-3.27 8.02,-13.26 -23.07,-41.47 13.75,-17 0.15,0.05 3.88,2.17 6.08,3.27 18.37,8.87 19.11,16.12 40.18,7.08 9.63,-4.06 6.14,-9.78 1.99,-18.82 -4.9,-10.72 -14.61,-21.08 -22.34,-30.29 l -7.78,-7.51 0.08,-0.14 3.34,-6.35 3.01,-7.34 2.34,-7.68 2.33,-8.68 2.01,-9.35 1.33,-10.35 z"
   id="path313"
   inkscape:connector-curvature="0" />
   </clipPath>
   <clipPath
   id="id4"
   style="clip-rule:nonzero">
    <path
   d="m 19758.02,8045.36 h -89.15 -39.58 c 1.82,0 1.6,-1.05 1.73,-2.79 l 9.23,-7.25 8.71,3.6 c 3.85,-3.58 13.65,0.38 13.65,-9.94 3.74,-0.93 6.91,-1.74 8.86,-4.7 l -0.67,-2.9 c 5.06,-2.86 10.38,-0.7 10.65,-8.51 l 7.29,-8.58 -0.31,-1.19 -4.26,-8.82 c 0,-4.78 -5.55,-10.72 -8.2,-17.39 -3.48,-8.79 -8.07,-17.5 -10.63,-21.58 0,-4.87 -0.61,-3 -1.44,-6.06 -0.35,-1.31 -0.38,-5.58 -0.61,-6.95 -0.76,-4.69 -2.35,-8.19 -2.33,-12.71 0.03,-7.62 -4.3,-19.21 -8.73,-20.47 0.66,-1.71 -2.51,-4.94 -3.58,-7.28 -1.28,-2.84 -2.06,-6.02 -3.41,-8.63 -1.49,-2.9 -10.33,-11.79 -12.13,-10.99 -0.8,-3.23 -5.88,-6.54 -7.87,-9.7 -3.04,-4.84 -3.54,-8.45 -5.78,-12.52 -2.18,-3.95 -4.64,-7.23 -8.54,-9.57 -1.95,-1.16 -10.22,-5.86 -11.67,-6.22 v -5.26 c 0,-4.21 -9.83,-9.18 -9.83,-18.13 v -2.34 c 0,-4.98 1.7,-6.97 3.11,-10.7 1.92,-5.07 0.8,-5.35 3.78,-9.99 1.85,-2.9 8.95,-15.52 11.13,-16.15 0.13,-6.31 3.83,-6.85 3.83,-11.69 0,-3.43 -3.76,-3.83 -5.04,-5.72 -0.13,-0.2 -3.09,-7.43 -3.16,-7.73 -6.47,-0.58 -10.92,-4.89 -10.92,-12.28 v -2.92 c 0,-5.28 3.92,-11.28 6.01,-14.62 0,-3.44 -1.87,-9.23 -1.72,-11.12 l 2.81,-25.72 c 0.33,-2.76 -1.71,-8.3 -2.73,-9.94 -3.42,0 -4.24,0.17 -4.92,-2.92 h -2.18 c -1.02,4.06 -14.9,9.06 -19.02,14.72 -2.23,3.07 -4.98,6.78 -6.83,10.23 -3.18,5.92 -4.19,5.03 -4.19,12.47 -1.05,1.67 -4.55,7.6 -6.56,7.6 -4.3,0 -7.82,-2.92 -13.11,-2.92 h -2.73 c -1.47,0 -1.5,0.28 -2.73,0.58 -0.07,3.29 -4,4.67 -6.34,8.42 -2.04,3.29 -3.12,6.29 -5.34,9.48 -1.47,2.12 -12.35,16.68 -12.35,17.77 0,5.39 4.37,11.97 4.37,18.71 2.48,0.96 2.73,4.64 2.73,8.19 0,1.35 -6.06,7.44 -7.1,8.18 0,4.92 -0.88,3.75 -3.83,5.27 0.59,2.34 2.19,3.05 2.19,5.84 0,6.31 -2.73,13.67 -2.73,15.21 0,4.54 5.46,14.07 5.46,19.29 0,2.8 -6.14,6.89 -7.64,10.04 l 7.09,-0.68 h 2.73 c 2.93,0 6.31,3.51 12.57,3.51 0.66,1.05 1.09,1.03 1.09,2.34 0,0.26 -2.4,12.7 -2.53,13.08 -1.78,5.22 -7.49,3.62 -10.61,5.6 -1.48,0.94 -5.25,7.56 -6.93,9.54 -2.09,2.48 -6.15,6.15 -6.15,10.37 0,1.4 2.29,3.32 2.94,5.05 0.71,1.86 -0.21,4.94 -0.21,7.81 v 2.93 h 3.83 c 2.42,0 2.21,6.02 3.27,8.77 1.66,4.36 2.94,4.35 5.47,5.84 1.7,1.33 -0.08,2.02 2.7,3.56 2.41,1.34 2.39,-0.63 5.96,0.6 6.37,2.19 6.55,-0.5 9.36,5.79 -3.34,5.33 -10.01,7.61 -14.53,14.26 -2.24,3.3 -3.9,5.88 -3.76,9.85 0.19,5.01 -3.01,10.04 -3.01,10.97 v 1.17 c 0,0.9 2.24,4.48 2.73,5.26 0,8.9 3.28,5.69 3.28,10.53 v 1.17 c 0,2.25 -3.08,1.75 -4.76,5.43 -1.14,2.49 -1.43,5.53 -3.98,6.26 1.24,3.23 1.77,2.58 6.22,4.44 2.4,1.01 7.36,2.12 8.93,3.31 4.53,3.44 9.65,6.84 16.53,7.45 -0.2,2.58 -1.1,2.56 -1.1,4.1 0,7.63 4.85,13.18 9.26,16.21 l 2.76,-0.43 v -4.67 c 2.76,-1.07 6.68,-7.9 7.85,-11.48 0.88,-2.65 8.95,-7.24 12.36,-7.24 h 10.93 c 2.29,0 5.46,2.6 5.46,4.68 v 2.34 c 0,2.56 -1.09,2.12 -1.09,4.68 l -0.03,1.9 10.95,1.61 h 1.09 c 4.62,0 7.29,-2.99 7.65,-7.6 l 1.64,0.01 9.28,0.57 c 0.18,2.32 0.55,1.41 0.55,2.92 0,3.74 -3.82,2.51 -3.82,8.78 l -1.26,0.17 -0.93,2.16 c 1.95,3.01 3.4,6.27 6.72,8.02 3.26,1.71 6.83,3.41 6.94,8.36 h -90.46 -77.13 v -309.85 l 0.34,-10.69 1,-10.01 1.67,-9.02 2,-8.35 3.01,-7.68 3.67,-7.01 4,-6.34 4.68,-5.34 5.67,-4.68 6.35,-4.34 7.35,-3.34 8.01,-2.67 9.01,-2.34 10.02,-1.67 10.68,-1 11.69,-0.33 h 65.44 l 14.36,0.67 13.36,1.67 13.02,3 12.02,3.67 11.02,5.01 10.68,6.35 9.68,7.01 9.02,8.34 8.35,9.35 7.01,10.02 6.01,10.35 4.67,11.02 3.67,11.69 3.01,12.02 1.33,13.02 0.67,13.35 -0.33,9.69 -1,9.34 -1.67,9.35 -2.01,8.68 -3,8.35 -3.67,8.35 -4.34,7.68 -4.68,7.34 -5.34,7.02 -5.68,6.34 -6.01,6.01 -6.34,5.34 -6.34,4.68 -7.02,4.34 -7.01,3.34 -7.68,3.34 z"
   id="path316"
   inkscape:connector-curvature="0" />
   </clipPath>
 </defs>
 <g
   id="Capa_x0020_1"
   transform="matrix(3.2129109,0,0,3.2129109,-61360.365,-24554.057)">
  <metadata
   id="CorelCorpID_0Corel-Layer" />
  <path
   class="fil0"
   d="m 19101.87,7859.71 v -48.73 l 0.66,-18.69 2.01,-17.68 3,-16.69 4.34,-15.35 5.67,-14.69 7.01,-13.35 8.34,-12.34 9.35,-11.35 5.34,-5.34 5.34,-4.67 5.67,-4.68 5.67,-4.33 6.35,-3.68 6.34,-3.67 6.67,-3.33 6.68,-2.67 7.34,-2.67 7.34,-2.01 7.68,-2 7.67,-1.33 8.01,-1.34 8.34,-1 8.68,-0.33 8.68,-0.34 9.01,0.34 8.34,0.33 8.35,1 8.34,1.34 8.01,1.33 7.68,2 7.34,2.01 7.34,2.67 7.01,2.67 7.01,3.33 6.34,3.67 6.67,3.68 6.01,4.33 6.01,4.68 5.67,4.67 5.67,5.34 7.01,8.01 6.34,9.01 5.01,10.01 4.34,11.01 3.34,12.02 2.33,12.68 1.34,13.68 0.66,15.02 h -72.08 l -0.34,-8.01 -0.66,-7.67 -1.34,-6.68 -2,-6.67 -2.34,-5.68 -3,-5.67 -3.67,-4.67 -4.01,-4.34 -4.67,-4.01 -5.34,-3.33 -5.67,-2.67 -6.34,-2.34 -7.01,-2 -7.34,-1.34 -8.01,-0.66 -8.68,-0.34 -10.01,0.67 -9.35,1.33 -8.34,2.67 -8.01,3.34 -6.68,4.34 -6,4.34 -5.01,5.01 -4,5 -3.34,5.67 -3,7.35 -2.67,8.34 -0.22,1.04 c -0.39,-0.78 -0.79,-0.86 -1.26,0.46 -0.63,1.77 -2.41,7.77 -3.11,9.06 -0.77,1.39 -2.06,1.52 -1.13,4.15 1.14,3.23 0.31,1.95 -0.46,4.55 -0.68,2.3 0.55,2.77 1.21,4.23 -2.32,4.03 -1.14,4.74 -0.26,6.7 l -0.78,6.52 -0.22,2.43 c -0.11,0.21 -0.28,0.5 -0.59,0.93 -1.04,1.49 -0.98,1.35 -0.46,3.52 0.82,3.39 -0.43,3.57 0.6,5.26 v 2.54 l -0.09,2.26 -0.01,0.03 c -1.41,-0.26 -6.17,-3.49 -8.13,-4.28 -6.24,-2.53 -11.22,-5.11 -17.97,-7.52 -3.35,-1.19 -6.56,-1.97 -9.5,-3.46 -1.63,-0.83 -2.92,-1.2 -4.48,-1.85 -1.92,-0.81 -21.68,-11.8 -22.38,-5.66 -0.42,3.66 4.7,4.26 6.06,5.03 0.98,0.55 -0.36,-0.33 0.48,0.3 0.63,0.48 0.18,-0.01 0.64,0.63 -1.92,0.05 -11.78,-1.3 -8.69,3.67 1.15,1.85 7.23,1.94 8.92,2.57 l 0.55,0.25 c 0.73,0.41 0.21,0.03 0.76,0.59 -2.05,-0.02 -3.96,-0.26 -4.67,1.25 -2.25,4.72 8.05,3.72 11.39,5.51 -2.49,1.35 -7.64,2.58 -4.21,7.05 2.62,3.42 5.98,1.93 9.14,3.76 l -1.01,0.79 c -0.94,0.45 -2.93,0.55 -3.38,2.27 -1.42,5.49 10.82,5.19 16.46,6.42 -2.48,0.06 -5.49,-0.49 -7.81,0.32 -1.93,0.68 -3.17,2.86 -1.87,5.21 2.64,4.81 6.34,2.87 11.72,4.48 -1.13,1.07 -3.96,1.38 -4.73,3.56 -1.02,2.9 1.15,4.48 2.81,5.42 3.65,2.07 11.73,-0.07 14.31,2.18 l -1.73,0.47 c -3.37,0.17 -9.05,-1.3 -10.15,1.94 -0.62,1.85 0.62,2.49 0.99,3.36 3.17,0.94 3.79,1.47 7.65,1.36 l 5.93,-0.49 c 1.75,0.04 1.06,-0.04 1.62,0.75 -0.38,0.55 0.75,0.85 -2.37,0.79 -4.95,-0.09 -4.56,-0.23 -7.96,1.63 -0.27,5.15 3.7,5.99 7.94,5.6 2.11,-0.19 2.22,-0.99 3.91,0.25 0.01,1.64 -0.71,0.95 -3.26,3.44 -1.28,1.25 -1.77,3.5 -0.07,5.1 2.27,2.12 7.49,-0.6 11.53,-0.48 -0.26,1.91 -2.59,1.86 -3.59,3.98 -1.06,2.22 0.39,4.47 2.38,4.93 1.05,0.25 2.2,0.08 3.37,-0.3 l 0.5,5.32 0.67,8.35 0.67,8.67 1,7.01 1.33,5.67 1.34,4.68 1.67,4 2,4.67 2.34,5.34 2.67,5.68 3.33,5.67 3.34,4.67 4.01,4.01 1.45,1.09 c -9.35,6.98 -22.38,12.29 -38.83,11.58 -7.87,1.74 -5.85,4.76 -3.49,5.11 1.01,-0.02 1.76,0.04 2.77,0.13 5.56,0.49 0.35,1.08 -1.87,1.15 -1.06,1.1 -1.43,1.33 -1.22,3.68 0.21,2.5 -4.73,2.37 -4.45,4.12 0.57,3.53 -2.72,3.92 2.08,7.73 -0.45,2.06 -3.3,3.74 -1.02,6.6 2.37,2.96 4.41,1.04 7.16,0.94 -1.07,2.55 -4.69,4.66 -4.86,5.01 -0.47,4.13 10.63,3.31 14.3,3.15 -0.15,3.31 -0.43,1.55 -1.41,3.38 -0.89,1.64 -0.18,2.53 0.8,3.15 3.19,1.6 24.07,-6.56 26.56,-7.39 0.72,0.93 1.05,2.29 2.87,2.01 1.7,-0.26 0.17,-0.41 1.65,-0.59 1.46,-0.17 0.48,0.2 1.87,0.56 3.14,0.8 3.93,-2.73 5.8,-3.54 0.78,0.86 0.93,1.69 2.24,1.83 2.51,0.26 4.75,-3.63 6.85,-5.8 0.43,-0.97 3.2,-5.33 4.2,-6.07 1.95,0.62 1.38,1.44 2.01,3.79 1.46,1.89 4.3,2.06 5.64,-0.16 1.01,-1.69 0.75,-5.85 0.86,-8.02 1.87,0.33 1.93,2.22 3.24,3.66 2.77,0.19 3.97,-1.3 4.52,-3.33 0.17,-2.2 0.12,-5.74 1.08,-7.4 0.92,0.77 0.89,0.63 0.66,3.34 -0.3,3.49 -0.37,4.56 2.59,4.52 2.96,-1.53 1.52,-11.37 1.5,-15.26 0.06,0.07 0.16,0.08 0.19,0.21 l 0.59,0.9 c 1.37,3.12 0.28,9.99 3.98,9.24 2.2,-0.45 1.85,-3.28 2.17,-5.64 0.34,-2.54 0.44,-4.03 0.54,-6.45 l 2.2,0.1 c -0.02,0.5 -0.15,1.21 -0.26,2.13 -0.37,2.9 -0.51,3.39 0.82,5.21 5.11,1.03 2.48,-4.31 4.22,-5.89 0.45,1.15 0.15,1.19 0.92,2.61 3.38,0.89 3.86,-1.74 3.75,-4.56 l 2.41,-0.14 11.01,-2.01 9.68,-3 9.01,-4.67 8.01,-5.68 7.34,-7 6.01,-8.35 5.67,-9.68 v -26.7 h -42.43 c 0.28,-1.05 0.48,-2.37 1.3,-4.69 0.83,-2.36 1.57,-2.77 2.97,-4.48 5.94,-7.25 8.31,-15.38 8.26,-24.71 -0.03,-6.34 -0.2,-11.45 -0.82,-17.35 -0.51,-4.86 -2.21,-7.95 -1.97,-12.84 h 98.44 v 119.14 l -4.68,9.68 -5,9.34 -6.01,8.35 -6.34,8.01 -7.01,7.34 -8.01,6.67 -8.34,6.01 -8.68,5.34 -9.68,5.01 -9.67,4 -10.02,3.67 -10.34,2.67 -10.68,2.34 -11.02,1.67 -11.34,1 -11.68,0.33 -10.02,-0.33 -10.01,-0.67 -9.68,-0.67 -9.01,-1.33 -9.01,-1.67 -8.34,-2 -8.01,-2.34 -7.68,-2.67 -7.67,-3.34 -7.01,-3.33 -6.68,-4.01 -6,-4 -6.01,-4.68 -5.67,-5 -5.01,-5.34 -5.01,-5.67 -4.67,-6.01 -4,-6.34 -4.01,-6.68 -3.67,-7.34 -3.34,-7.34 -3,-8.01 -3,-8.34 -2.34,-8.68 -2.34,-9.01 -1.66,-9.68 -1.67,-9.68 -1.34,-10.01 -1,-10.68 -0.67,-11.01 -0.66,-11.35 z"
   id="path322"
   inkscape:connector-curvature="0"
   style="fill:#ffffff;fill-rule:nonzero" />
  <g
   clip-path="url(#id0)"
   id="g325">
   <g
   id="_1269776524496">
   </g>
  </g>
  <path
   id="1"
   class="fil1 str0"
   d="m 19101.87,7859.71 v -48.73 l 0.66,-18.69 2.01,-17.68 3,-16.69 4.34,-15.35 5.67,-14.69 7.01,-13.35 8.34,-12.34 9.35,-11.35 5.34,-5.34 5.34,-4.67 5.67,-4.68 5.67,-4.33 6.35,-3.68 6.34,-3.67 6.67,-3.33 6.68,-2.67 7.34,-2.67 7.34,-2.01 7.68,-2 7.67,-1.33 8.01,-1.34 8.34,-1 8.68,-0.33 8.68,-0.34 9.01,0.34 8.34,0.33 8.35,1 8.34,1.34 8.01,1.33 7.68,2 7.34,2.01 7.34,2.67 7.01,2.67 7.01,3.33 6.34,3.67 6.67,3.68 6.01,4.33 6.01,4.68 5.67,4.67 5.67,5.34 7.01,8.01 6.34,9.01 5.01,10.01 4.34,11.01 3.34,12.02 2.33,12.68 1.34,13.68 0.66,15.02 h -72.08 l -0.34,-8.01 -0.66,-7.67 -1.34,-6.68 -2,-6.67 -2.34,-5.68 -3,-5.67 -3.67,-4.67 -4.01,-4.34 -4.67,-4.01 -5.34,-3.33 -5.67,-2.67 -6.34,-2.34 -7.01,-2 -7.34,-1.34 -8.01,-0.66 -8.68,-0.34 -10.01,0.67 -9.35,1.33 -8.34,2.67 -8.01,3.34 -6.68,4.34 -6,4.34 -5.01,5.01 -4,5 -3.34,5.67 -3,7.35 -2.67,8.34 -0.22,1.04 c -0.39,-0.78 -0.79,-0.86 -1.26,0.46 -0.63,1.77 -2.41,7.77 -3.11,9.06 -0.77,1.39 -2.06,1.52 -1.13,4.15 1.14,3.23 0.31,1.95 -0.46,4.55 -0.68,2.3 0.55,2.77 1.21,4.23 -2.32,4.03 -1.14,4.74 -0.26,6.7 l -0.78,6.52 -0.22,2.43 c -0.11,0.21 -0.28,0.5 -0.59,0.93 -1.04,1.49 -0.98,1.35 -0.46,3.52 0.82,3.39 -0.43,3.57 0.6,5.26 v 2.54 l -0.09,2.26 -0.01,0.03 c -1.41,-0.26 -6.17,-3.49 -8.13,-4.28 -6.24,-2.53 -11.22,-5.11 -17.97,-7.52 -3.35,-1.19 -6.56,-1.97 -9.5,-3.46 -1.63,-0.83 -2.92,-1.2 -4.48,-1.85 -1.92,-0.81 -21.68,-11.8 -22.38,-5.66 -0.42,3.66 4.7,4.26 6.06,5.03 0.98,0.55 -0.36,-0.33 0.48,0.3 0.63,0.48 0.18,-0.01 0.64,0.63 -1.92,0.05 -11.78,-1.3 -8.69,3.67 1.15,1.85 7.23,1.94 8.92,2.57 l 0.55,0.25 c 0.73,0.41 0.21,0.03 0.76,0.59 -2.05,-0.02 -3.96,-0.26 -4.67,1.25 -2.25,4.72 8.05,3.72 11.39,5.51 -2.49,1.35 -7.64,2.58 -4.21,7.05 2.62,3.42 5.98,1.93 9.14,3.76 l -1.01,0.79 c -0.94,0.45 -2.93,0.55 -3.38,2.27 -1.42,5.49 10.82,5.19 16.46,6.42 -2.48,0.06 -5.49,-0.49 -7.81,0.32 -1.93,0.68 -3.17,2.86 -1.87,5.21 2.64,4.81 6.34,2.87 11.72,4.48 -1.13,1.07 -3.96,1.38 -4.73,3.56 -1.02,2.9 1.15,4.48 2.81,5.42 3.65,2.07 11.73,-0.07 14.31,2.18 l -1.73,0.47 c -3.37,0.17 -9.05,-1.3 -10.15,1.94 -0.62,1.85 0.62,2.49 0.99,3.36 3.17,0.94 3.79,1.47 7.65,1.36 l 5.93,-0.49 c 1.75,0.04 1.06,-0.04 1.62,0.75 -0.38,0.55 0.75,0.85 -2.37,0.79 -4.95,-0.09 -4.56,-0.23 -7.96,1.63 -0.27,5.15 3.7,5.99 7.94,5.6 2.11,-0.19 2.22,-0.99 3.91,0.25 0.01,1.64 -0.71,0.95 -3.26,3.44 -1.28,1.25 -1.77,3.5 -0.07,5.1 2.27,2.12 7.49,-0.6 11.53,-0.48 -0.26,1.91 -2.59,1.86 -3.59,3.98 -1.06,2.22 0.39,4.47 2.38,4.93 1.05,0.25 2.2,0.08 3.37,-0.3 l 0.5,5.32 0.67,8.35 0.67,8.67 1,7.01 1.33,5.67 1.34,4.68 1.67,4 2,4.67 2.34,5.34 2.67,5.68 3.33,5.67 3.34,4.67 4.01,4.01 1.45,1.09 c -9.35,6.98 -22.38,12.29 -38.83,11.58 -7.87,1.74 -5.85,4.76 -3.49,5.11 1.01,-0.02 1.76,0.04 2.77,0.13 5.56,0.49 0.35,1.08 -1.87,1.15 -1.06,1.1 -1.43,1.33 -1.22,3.68 0.21,2.5 -4.73,2.37 -4.45,4.12 0.57,3.53 -2.72,3.92 2.08,7.73 -0.45,2.06 -3.3,3.74 -1.02,6.6 2.37,2.96 4.41,1.04 7.16,0.94 -1.07,2.55 -4.69,4.66 -4.86,5.01 -0.47,4.13 10.63,3.31 14.3,3.15 -0.15,3.31 -0.43,1.55 -1.41,3.38 -0.89,1.64 -0.18,2.53 0.8,3.15 3.19,1.6 24.07,-6.56 26.56,-7.39 0.72,0.93 1.05,2.29 2.87,2.01 1.7,-0.26 0.17,-0.41 1.65,-0.59 1.46,-0.17 0.48,0.2 1.87,0.56 3.14,0.8 3.93,-2.73 5.8,-3.54 0.78,0.86 0.93,1.69 2.24,1.83 2.51,0.26 4.75,-3.63 6.85,-5.8 0.43,-0.97 3.2,-5.33 4.2,-6.07 1.95,0.62 1.38,1.44 2.01,3.79 1.46,1.89 4.3,2.06 5.64,-0.16 1.01,-1.69 0.75,-5.85 0.86,-8.02 1.87,0.33 1.93,2.22 3.24,3.66 2.77,0.19 3.97,-1.3 4.52,-3.33 0.17,-2.2 0.12,-5.74 1.08,-7.4 0.92,0.77 0.89,0.63 0.66,3.34 -0.3,3.49 -0.37,4.56 2.59,4.52 2.96,-1.53 1.52,-11.37 1.5,-15.26 0.06,0.07 0.16,0.08 0.19,0.21 l 0.59,0.9 c 1.37,3.12 0.28,9.99 3.98,9.24 2.2,-0.45 1.85,-3.28 2.17,-5.64 0.34,-2.54 0.44,-4.03 0.54,-6.45 l 2.2,0.1 c -0.02,0.5 -0.15,1.21 -0.26,2.13 -0.37,2.9 -0.51,3.39 0.82,5.21 5.11,1.03 2.48,-4.31 4.22,-5.89 0.45,1.15 0.15,1.19 0.92,2.61 3.38,0.89 3.86,-1.74 3.75,-4.56 l 2.41,-0.14 11.01,-2.01 9.68,-3 9.01,-4.67 8.01,-5.68 7.34,-7 6.01,-8.35 5.67,-9.68 v -26.7 h -42.43 c 0.28,-1.05 0.48,-2.37 1.3,-4.69 0.83,-2.36 1.57,-2.77 2.97,-4.48 5.94,-7.25 8.31,-15.38 8.26,-24.71 -0.03,-6.34 -0.2,-11.45 -0.82,-17.35 -0.51,-4.86 -2.21,-7.95 -1.97,-12.84 h 98.44 v 119.14 l -4.68,9.68 -5,9.34 -6.01,8.35 -6.34,8.01 -7.01,7.34 -8.01,6.67 -8.34,6.01 -8.68,5.34 -9.68,5.01 -9.67,4 -10.02,3.67 -10.34,2.67 -10.68,2.34 -11.02,1.67 -11.34,1 -11.68,0.33 -10.02,-0.33 -10.01,-0.67 -9.68,-0.67 -9.01,-1.33 -9.01,-1.67 -8.34,-2 -8.01,-2.34 -7.68,-2.67 -7.67,-3.34 -7.01,-3.33 -6.68,-4.01 -6,-4 -6.01,-4.68 -5.67,-5 -5.01,-5.34 -5.01,-5.67 -4.67,-6.01 -4,-6.34 -4.01,-6.68 -3.67,-7.34 -3.34,-7.34 -3,-8.01 -3,-8.34 -2.34,-8.68 -2.34,-9.01 -1.66,-9.68 -1.67,-9.68 -1.34,-10.01 -1,-10.68 -0.67,-11.01 -0.66,-11.35 z"
   inkscape:connector-curvature="0"
   style="fill:none;fill-rule:nonzero;stroke:#ffffff;stroke-width:7.61999989;stroke-miterlimit:22.92560005" />
  <g
   clip-path="url(#id1)"
   id="g329">
   <path
   id="2"
   class="fil2 str1"
   d="m 19101.87,7647.45 297.35,401.15 m 0,-401.15 -297.35,401.15"
   inkscape:connector-curvature="0"
   style="fill:none;stroke:#ffffff;stroke-width:7.61999989;stroke-miterlimit:22.92560005" />
  </g>
  <path
   class="fil2 str1"
   d="m 19221.78,7800.5 c 0.72,3.01 12.48,16.94 15.32,20.85 2.23,3.07 5.61,6.56 8.16,9.52 2.33,2.71 5.72,8.8 7.37,9.71 0.06,-2.04 -0.32,-12.79 0.57,-16.47 2.1,-12.46 18.04,-16.06 25.69,-12.62 5.22,-0.73 11.51,2.62 12.04,2.95 1.89,1.2 10.74,-0.14 13.71,-0.26 3.46,-0.58 9.98,-2.22 13.15,-3.38 7.41,-2.7 47.03,-14.43 49.81,-14.86 2.74,-0.41 -33.03,16.45 -36.24,18.02 -8.77,4.56 -17.29,9.41 -25.49,14.23 -1.42,0.62 -1.39,0.93 -2.51,1.66 -0.23,4.18 -0.26,4.83 -1.36,8 -0.77,2.2 -1.09,4.79 -1.55,7.31 -1.22,6.69 1.03,9.96 1.64,15.71 0.62,5.9 0.79,11.01 0.82,17.35 0.05,9.33 -2.32,17.46 -8.26,24.71 -1.4,1.71 -2.15,2.12 -2.97,4.48 -1.97,5.62 -0.38,5.33 -4.9,9.81 -2.01,1.99 -4.86,4.86 -7.36,5.95 -2.52,1.1 -3.03,1.91 -0.67,3.15 0.22,1.31 1.74,1.87 1.9,3.98 0.1,1.26 -0.86,3.28 -1.43,4.48 -0.58,1.25 -1.92,2.24 -3.77,2.4 -3.13,0.28 -2.15,-0.55 -4.96,0.72 -3.63,0.28 -1.65,7.34 -3.7,6.24 -1.33,0.45 -2.16,1.2 -2.75,2.1 -0.39,0.59 -1.47,2.53 -1.67,3.14 0.78,0.89 1,1.01 2.08,1.48 0.65,2.34 2.71,6.04 4,7.9 3.12,4.54 6.72,7.03 5.84,12.03 -0.43,2.43 -1.25,0.66 -0.89,5.17 0.27,3.42 1.3,9.19 -3.47,7.93 -0.78,-1.42 -0.48,-1.46 -0.93,-2.61 -1.74,1.58 0.89,6.92 -4.22,5.89 -1.33,-1.82 -1.19,-2.31 -0.82,-5.21 0.35,-2.78 0.8,-3.54 -1.91,-2.98 -0.11,2.88 -0.2,4.4 -0.57,7.2 -0.32,2.36 0.03,5.19 -2.17,5.64 -3.7,0.75 -2.61,-6.12 -3.98,-9.24 l -0.59,-0.9 c -0.03,-0.13 -0.13,-0.14 -0.19,-0.21 0.02,3.89 1.46,13.73 -1.5,15.26 -2.96,0.04 -2.89,-1.03 -2.59,-4.52 0.23,-2.71 0.26,-2.57 -0.66,-3.34 -0.96,1.66 -0.91,5.2 -1.08,7.4 -0.55,2.03 -1.75,3.52 -4.52,3.33 -1.31,-1.44 -1.37,-3.33 -3.24,-3.66 -0.11,2.17 0.15,6.33 -0.86,8.02 -1.34,2.22 -4.18,2.05 -5.64,0.16 -0.63,-2.35 -0.06,-3.17 -2.01,-3.79 -1,0.74 -3.77,5.1 -4.2,6.07 -2.1,2.17 -4.34,6.06 -6.85,5.8 -1.31,-0.14 -1.46,-0.97 -2.24,-1.83 -1.87,0.81 -2.66,4.34 -5.8,3.54 -1.39,-0.36 -0.41,-0.73 -1.87,-0.56 -1.48,0.18 0.05,0.33 -1.65,0.59 -1.82,0.28 -2.15,-1.08 -2.87,-2.01 -2.49,0.83 -23.37,8.99 -26.56,7.39 -0.98,-0.62 -1.69,-1.51 -0.8,-3.15 0.98,-1.83 1.26,-0.07 1.41,-3.38 -3.67,0.16 -14.77,0.98 -14.3,-3.15 0.17,-0.35 3.79,-2.46 4.86,-5.01 -2.75,0.1 -4.79,2.02 -7.16,-0.94 -2.28,-2.86 0.57,-4.54 1.02,-6.6 -4.8,-3.81 -1.51,-4.2 -2.08,-7.73 -0.28,-1.75 4.66,-1.62 4.45,-4.12 -0.21,-2.35 0.16,-2.58 1.22,-3.68 2.22,-0.07 7.43,-0.66 1.87,-1.15 -1.01,-0.09 -1.76,-0.15 -2.77,-0.13 -2.36,-0.35 -4.38,-3.37 3.49,-5.11 32.37,1.39 51.49,-20.49 55.42,-32.62 1.4,-4.32 0.71,-19.14 0.13,-23.51 -0.7,-5.31 -0.63,-8.31 2.31,-12.65 0.15,-0.23 0.39,-0.85 0.59,-1.22 0.55,-1.01 0.77,-1.07 1.19,-2.43 0.84,-0.91 1.17,-1.41 1.34,-3.1 0.16,-1.59 0.67,-3.21 0.07,-4.41 -0.65,1.5 -3.02,9.03 -3.84,9.79 -1.45,1.35 -6.77,1.92 -4.8,-5.18 0.24,-0.84 -0.16,-7.89 -0.39,-8.55 l -2.02,-0.09 c -0.9,1.61 -1.42,5.13 -1.6,7.25 0.17,6.09 -5.85,6.19 -6.87,2.55 -0.79,-2.84 0.72,-2.89 -0.44,-6.15 -0.51,-1.42 -0.46,-1.57 -0.05,-3.01 l 0.16,-2.26 c -0.01,-0.14 -0.06,-0.18 -0.12,-0.26 -3.25,3.97 -2.6,11.5 -7.01,11.56 -6.11,0.09 -2.11,-8.28 -2.21,-9.34 -0.08,-0.93 -1.03,-2.6 -1.67,-3.17 -0.87,1.97 -3.98,5.97 -5.55,6.36 -5.53,0.43 -5.17,-1.89 -4.48,-6.34 0.29,-1.47 0.71,-0.79 0.57,-3.12 -3.03,0.33 -7.88,4.66 -11.59,3.79 -1.99,-0.46 -3.44,-2.71 -2.38,-4.93 1,-2.12 3.32,-2.07 3.59,-3.98 -4.04,-0.12 -9.26,2.6 -11.53,0.48 -1.7,-1.6 -1.21,-3.85 0.07,-5.1 2.55,-2.49 3.27,-1.8 3.26,-3.45 -1.69,-1.23 -1.8,-0.43 -3.91,-0.24 -4.24,0.39 -8.21,-0.45 -7.94,-5.6 3.4,-1.86 3.01,-1.72 7.97,-1.63 3.11,0.06 1.98,-0.24 2.36,-0.79 -0.56,-0.79 0.13,-0.71 -1.62,-0.75 l -5.93,0.49 c -3.86,0.11 -4.48,-0.42 -7.65,-1.36 -0.37,-0.87 -1.61,-1.51 -0.99,-3.36 1.1,-3.24 6.78,-1.77 10.15,-1.94 l 1.73,-0.47 c -2.58,-2.25 -10.66,-0.11 -14.31,-2.18 -1.66,-0.94 -3.83,-2.52 -2.81,-5.42 0.77,-2.18 3.6,-2.49 4.73,-3.56 -5.38,-1.61 -9.08,0.33 -11.72,-4.48 -1.3,-2.35 -0.06,-4.53 1.87,-5.21 2.32,-0.81 5.33,-0.26 7.81,-0.32 -5.64,-1.23 -17.88,-0.93 -16.46,-6.42 0.45,-1.72 2.44,-1.82 3.38,-2.27 l 1.01,-0.79 c -3.16,-1.83 -6.52,-0.34 -9.14,-3.76 -3.43,-4.47 1.72,-5.7 4.21,-7.05 -3.34,-1.79 -13.64,-0.79 -11.39,-5.51 0.71,-1.51 2.62,-1.27 4.67,-1.25 -0.55,-0.56 -0.03,-0.18 -0.76,-0.59 l -0.55,-0.25 c -1.69,-0.63 -7.77,-0.72 -8.92,-2.57 -3.09,-4.97 6.77,-3.62 8.69,-3.67 -0.45,-0.64 -0.01,-0.15 -0.64,-0.63 -0.84,-0.63 0.5,0.25 -0.48,-0.3 -1.36,-0.77 -6.48,-1.37 -6.06,-5.03 0.7,-6.14 20.46,4.85 22.38,5.66 1.56,0.65 2.85,1.02 4.48,1.85 2.94,1.49 6.15,2.27 9.5,3.46 6.75,2.41 11.73,4.99 17.97,7.52 1.96,0.79 6.72,4.02 8.13,4.28 0.45,-0.83 0.2,-0.98 0.58,-1.89 0.37,-0.86 0.38,-0.4 0.76,-1.34 -3.01,-3.4 -0.82,-2.64 -1.84,-6.86 -0.52,-2.17 -0.58,-2.03 0.46,-3.52 1.35,-1.91 0.25,-1.05 0.96,-3.08 0.54,-1.56 1.24,-0.92 1.3,-3.14 0.15,-5.63 -3.75,-4.58 -0.41,-10.36 -0.66,-1.46 -1.89,-1.93 -1.21,-4.23 0.77,-2.6 1.6,-1.32 0.46,-4.55 -0.93,-2.63 0.36,-2.76 1.13,-4.15 0.7,-1.29 2.48,-7.29 3.11,-9.06 1.3,-3.66 2.04,3.41 3.67,6.35 1.17,2.12 0.56,2.19 2.36,3.56 1.27,0.97 1.85,1.49 3.07,2.48 4.1,3.32 8.31,6.41 12.68,10.6 1.73,1.66 3.92,3.46 6.28,5.52 1.69,1.48 1.43,1.42 2.71,3.21 0.83,1.16 1.53,1.65 2.18,3.02 z"
   id="path331"
   inkscape:connector-curvature="0"
   style="fill:none;stroke:#ffffff;stroke-width:7.61999989;stroke-miterlimit:22.92560005" />
  <path
   class="fil0"
   d="m 20005.92,7892.44 h 71.45 l -0.67,18.36 -1.67,17.03 -3,16.02 -4.01,15.03 -5.34,14.02 -6.35,12.69 -7.68,12.02 -9.01,10.35 -9.68,9.68 -11.02,8.02 -11.69,7.01 -13.02,5.67 -13.69,4.68 -14.69,3 -15.69,2.01 -16.7,0.66 -9.35,-0.33 -9.01,-0.33 -8.68,-1 -8.35,-1.34 -8.35,-1.34 -7.68,-2 -7.68,-2.34 -7.01,-2.67 -7.01,-3 -6.68,-3.01 -6.34,-3.67 -6.01,-4.01 -5.68,-4.34 -5.67,-4.67 -5.01,-5.01 -5.01,-5.68 -4.67,-5.67 -4.01,-6.01 -4.01,-6.35 -3.67,-6.67 -3.67,-7.35 -3.01,-7.34 -2.67,-7.68 -2.67,-8.35 -2,-8.35 -2.01,-9.01 -1.67,-9.35 -1.33,-9.35 -1,-10.02 -0.67,-10.01 -0.67,-10.69 v -11.02 -33.05 l 0.34,-17.37 1,-16.02 1.33,-15.69 2.01,-14.7 3,-13.69 3.34,-13.02 3.67,-12.35 4.68,-11.35 5.01,-10.35 6.01,-10.02 6.34,-8.68 7.01,-8.35 7.35,-7.34 8.34,-6.35 8.69,-5.67 9.34,-4.68 8.02,-3.67 8.01,-2.67 8.68,-2.67 9.02,-2.01 9.35,-1.33 10.01,-1.34 10.02,-0.67 10.68,-0.33 15.36,0.67 14.69,1.67 14.03,2.67 13.02,3.67 12.69,5.01 11.68,6.01 11.02,7.01 10.35,8.01 9.02,9.35 8.34,10.02 6.68,11.02 5.68,12.02 4.34,13.02 3,13.69 1.67,15.02 0.67,16.03 h -71.79 l -1.67,-8.01 -2,-7.35 -2.34,-7.01 -2.67,-6.34 -2.67,-6.01 -3.34,-5.35 -3.34,-5 -3.67,-4.34 -4.34,-4.01 -4.67,-3.34 -5.01,-2.67 -6.01,-2.34 -6.35,-2 -7.01,-1.34 -7.34,-0.66 -8.02,-0.34 -9.35,0.34 -8.68,1.33 -8.34,1.67 -7.35,2.67 -7.01,3.67 -6.34,4.01 -5.68,5.01 -5.01,5.67 -3,4.68 -3.01,5.34 -2.34,6.35 -2,7.01 -1.67,7.68 -1.67,8.34 -1,9.35 -0.67,10.02 -0.67,7.34 -0.33,8.35 v 9.69 10.68 34.39 15.36 l 0.42,5.82 c -8.7,-2.42 -17.31,-4.87 -34.69,-4.65 -5.74,0.22 -16.84,1.88 -21.58,3.82 -1.74,0.72 -2.43,1.31 -3.21,1.97 -1.65,1.39 -1.91,1.12 -1.31,3.62 l 0.75,2.44 c 4.01,16.27 14.76,25.86 31.01,30.02 3.11,0.79 6.24,2.13 9.28,2.61 2.7,1.48 11.34,1.42 12.99,3.62 -0.35,1.68 -0.73,3.08 -0.96,5.13 -0.24,2.04 -0.89,3.53 -0.95,4.7 -0.67,0.98 -0.64,1.05 -0.36,3.4 l 0.54,5.37 -0.78,1.77 c -2.38,5.61 -7.42,9.62 -9.83,15.26 -1.24,2.89 -0.8,6.53 2.22,7.89 0.78,0.83 4.45,1.8 5.71,1.75 l 0.33,0.84 c 0.31,5.18 -0.71,5.57 -1.76,9.29 -0.57,2.62 1.61,2.17 2.23,2.34 l 2.41,0.2 c 1.54,0.17 1.45,0.01 1.97,1.44 -1.33,0.41 -6.26,1.91 -6.3,2.13 -0.27,1.34 0.31,2.09 1.07,3.15 0.46,0.65 0.81,0.86 1.32,1.27 0.67,1.28 1.92,4.12 2.44,5.79 0.1,1.6 0.11,6.19 0.77,7.36 1.65,2.9 6.76,10.01 13.94,6.11 42.58,-10.4 82.82,10.69 91.25,-3.27 8.02,-13.26 -23.07,-41.47 13.75,-17 0.15,0.05 3.88,2.17 6.08,3.27 18.37,8.87 19.11,16.12 40.18,7.08 9.63,-4.06 6.14,-9.78 1.99,-18.82 -4.9,-10.72 -14.61,-21.08 -22.34,-30.29 l -7.78,-7.51 0.08,-0.14 3.34,-6.35 3.01,-7.34 2.34,-7.68 2.33,-8.68 2.01,-9.35 1.33,-10.35 z"
   id="path333"
   inkscape:connector-curvature="0"
   style="fill:#ffffff;fill-rule:nonzero" />
  <g
   clip-path="url(#id2)"
   id="g336">
   <g
   id="_1269776523824">
   </g>
  </g>
  <path
   id="path338"
   class="fil1 str2"
   d="m 20005.92,7892.44 h 71.45 l -0.67,18.36 -1.67,17.03 -3,16.02 -4.01,15.03 -5.34,14.02 -6.35,12.69 -7.68,12.02 -9.01,10.35 -9.68,9.68 -11.02,8.02 -11.69,7.01 -13.02,5.67 -13.69,4.68 -14.69,3 -15.69,2.01 -16.7,0.66 -9.35,-0.33 -9.01,-0.33 -8.68,-1 -8.35,-1.34 -8.35,-1.34 -7.68,-2 -7.68,-2.34 -7.01,-2.67 -7.01,-3 -6.68,-3.01 -6.34,-3.67 -6.01,-4.01 -5.68,-4.34 -5.67,-4.67 -5.01,-5.01 -5.01,-5.68 -4.67,-5.67 -4.01,-6.01 -4.01,-6.35 -3.67,-6.67 -3.67,-7.35 -3.01,-7.34 -2.67,-7.68 -2.67,-8.35 -2,-8.35 -2.01,-9.01 -1.67,-9.35 -1.33,-9.35 -1,-10.02 -0.67,-10.01 -0.67,-10.69 v -11.02 -33.05 l 0.34,-17.37 1,-16.02 1.33,-15.69 2.01,-14.7 3,-13.69 3.34,-13.02 3.67,-12.35 4.68,-11.35 5.01,-10.35 6.01,-10.02 6.34,-8.68 7.01,-8.35 7.35,-7.34 8.34,-6.35 8.69,-5.67 9.34,-4.68 8.02,-3.67 8.01,-2.67 8.68,-2.67 9.02,-2.01 9.35,-1.33 10.01,-1.34 10.02,-0.67 10.68,-0.33 15.36,0.67 14.69,1.67 14.03,2.67 13.02,3.67 12.69,5.01 11.68,6.01 11.02,7.01 10.35,8.01 9.02,9.35 8.34,10.02 6.68,11.02 5.68,12.02 4.34,13.02 3,13.69 1.67,15.02 0.67,16.03 h -71.79 l -1.67,-8.01 -2,-7.35 -2.34,-7.01 -2.67,-6.34 -2.67,-6.01 -3.34,-5.35 -3.34,-5 -3.67,-4.34 -4.34,-4.01 -4.67,-3.34 -5.01,-2.67 -6.01,-2.34 -6.35,-2 -7.01,-1.34 -7.34,-0.66 -8.02,-0.34 -9.35,0.34 -8.68,1.33 -8.34,1.67 -7.35,2.67 -7.01,3.67 -6.34,4.01 -5.68,5.01 -5.01,5.67 -3,4.68 -3.01,5.34 -2.34,6.35 -2,7.01 -1.67,7.68 -1.67,8.34 -1,9.35 -0.67,10.02 -0.67,7.34 -0.33,8.35 v 9.69 10.68 34.39 15.36 l 0.42,5.82 c -8.7,-2.42 -17.31,-4.87 -34.69,-4.65 -5.74,0.22 -16.84,1.88 -21.58,3.82 -1.74,0.72 -2.43,1.31 -3.21,1.97 -1.65,1.39 -1.91,1.12 -1.31,3.62 l 0.75,2.44 c 4.01,16.27 14.76,25.86 31.01,30.02 3.11,0.79 6.24,2.13 9.28,2.61 2.7,1.48 11.34,1.42 12.99,3.62 -0.35,1.68 -0.73,3.08 -0.96,5.13 -0.24,2.04 -0.89,3.53 -0.95,4.7 -0.67,0.98 -0.64,1.05 -0.36,3.4 l 0.54,5.37 -0.78,1.77 c -2.38,5.61 -7.42,9.62 -9.83,15.26 -1.24,2.89 -0.8,6.53 2.22,7.89 0.78,0.83 4.45,1.8 5.71,1.75 l 0.33,0.84 c 0.31,5.18 -0.71,5.57 -1.76,9.29 -0.57,2.62 1.61,2.17 2.23,2.34 l 2.41,0.2 c 1.54,0.17 1.45,0.01 1.97,1.44 -1.33,0.41 -6.26,1.91 -6.3,2.13 -0.27,1.34 0.31,2.09 1.07,3.15 0.46,0.65 0.81,0.86 1.32,1.27 0.67,1.28 1.92,4.12 2.44,5.79 0.1,1.6 0.11,6.19 0.77,7.36 1.65,2.9 6.76,10.01 13.94,6.11 42.58,-10.4 82.82,10.69 91.25,-3.27 8.02,-13.26 -23.07,-41.47 13.75,-17 0.15,0.05 3.88,2.17 6.08,3.27 18.37,8.87 19.11,16.12 40.18,7.08 9.63,-4.06 6.14,-9.78 1.99,-18.82 -4.9,-10.72 -14.61,-21.08 -22.34,-30.29 l -7.78,-7.51 0.08,-0.14 3.34,-6.35 3.01,-7.34 2.34,-7.68 2.33,-8.68 2.01,-9.35 1.33,-10.35 z"
   inkscape:connector-curvature="0"
   style="fill:none;fill-rule:nonzero;stroke:#ffffff;stroke-width:7.61999989;stroke-miterlimit:22.92560005" />
  <g
   clip-path="url(#id3)"
   id="g342">
   <path
   id="path340"
   class="fil2 str1"
   d="m 19782.21,7647.36 295.16,401.33 m 0,-401.33 -295.16,401.33"
   inkscape:connector-curvature="0"
   style="fill:none;stroke:#ffffff;stroke-width:7.61999989;stroke-miterlimit:22.92560005" />
  </g>
  <path
   class="fil0"
   d="m 19758.02,8045.36 h -89.15 -39.58 c 1.82,0 1.6,-1.05 1.73,-2.79 l 9.23,-7.25 8.71,3.6 c 3.85,-3.58 13.65,0.38 13.65,-9.94 3.74,-0.93 6.91,-1.74 8.86,-4.7 l -0.67,-2.9 c 5.06,-2.86 10.38,-0.7 10.65,-8.51 l 7.29,-8.58 -0.31,-1.19 -4.26,-8.82 c 0,-4.78 -5.55,-10.72 -8.2,-17.39 -3.48,-8.79 -8.07,-17.5 -10.63,-21.58 0,-4.87 -0.61,-3 -1.44,-6.06 -0.35,-1.31 -0.38,-5.58 -0.61,-6.95 -0.76,-4.69 -2.35,-8.19 -2.33,-12.71 0.03,-7.62 -4.3,-19.21 -8.73,-20.47 0.66,-1.71 -2.51,-4.94 -3.58,-7.28 -1.28,-2.84 -2.06,-6.02 -3.41,-8.63 -1.49,-2.9 -10.33,-11.79 -12.13,-10.99 -0.8,-3.23 -5.88,-6.54 -7.87,-9.7 -3.04,-4.84 -3.54,-8.45 -5.78,-12.52 -2.18,-3.95 -4.64,-7.23 -8.54,-9.57 -1.95,-1.16 -10.22,-5.86 -11.67,-6.22 v -5.26 c 0,-4.21 -9.83,-9.18 -9.83,-18.13 v -2.34 c 0,-4.98 1.7,-6.97 3.11,-10.7 1.92,-5.07 0.8,-5.35 3.78,-9.99 1.85,-2.9 8.95,-15.52 11.13,-16.15 0.13,-6.31 3.83,-6.85 3.83,-11.69 0,-3.43 -3.76,-3.83 -5.04,-5.72 -0.13,-0.2 -3.09,-7.43 -3.16,-7.73 -6.47,-0.58 -10.92,-4.89 -10.92,-12.28 v -2.92 c 0,-5.28 3.92,-11.28 6.01,-14.62 0,-3.44 -1.87,-9.23 -1.72,-11.12 l 2.81,-25.72 c 0.33,-2.76 -1.71,-8.3 -2.73,-9.94 -3.42,0 -4.24,0.17 -4.92,-2.92 h -2.18 c -1.02,4.06 -14.9,9.06 -19.02,14.72 -2.23,3.07 -4.98,6.78 -6.83,10.23 -3.18,5.92 -4.19,5.03 -4.19,12.47 -1.05,1.67 -4.55,7.6 -6.56,7.6 -4.3,0 -7.82,-2.92 -13.11,-2.92 h -2.73 c -1.47,0 -1.5,0.28 -2.73,0.58 -0.07,3.29 -4,4.67 -6.34,8.42 -2.04,3.29 -3.12,6.29 -5.34,9.48 -1.47,2.12 -12.35,16.68 -12.35,17.77 0,5.39 4.37,11.97 4.37,18.71 2.48,0.96 2.73,4.64 2.73,8.19 0,1.35 -6.06,7.44 -7.1,8.18 0,4.92 -0.88,3.75 -3.83,5.27 0.59,2.34 2.19,3.05 2.19,5.84 0,6.31 -2.73,13.67 -2.73,15.21 0,4.54 5.46,14.07 5.46,19.29 0,2.8 -6.14,6.89 -7.64,10.04 l 7.09,-0.68 h 2.73 c 2.93,0 6.31,3.51 12.57,3.51 0.66,1.05 1.09,1.03 1.09,2.34 0,0.26 -2.4,12.7 -2.53,13.08 -1.78,5.22 -7.49,3.62 -10.61,5.6 -1.48,0.94 -5.25,7.56 -6.93,9.54 -2.09,2.48 -6.15,6.15 -6.15,10.37 0,1.4 2.29,3.32 2.94,5.05 0.71,1.86 -0.21,4.94 -0.21,7.81 v 2.93 h 3.83 c 2.42,0 2.21,6.02 3.27,8.77 1.66,4.36 2.94,4.35 5.47,5.84 1.7,1.33 -0.08,2.02 2.7,3.56 2.41,1.34 2.39,-0.63 5.96,0.6 6.37,2.19 6.55,-0.5 9.36,5.79 -3.34,5.33 -10.01,7.61 -14.53,14.26 -2.24,3.3 -3.9,5.88 -3.76,9.85 0.19,5.01 -3.01,10.04 -3.01,10.97 v 1.17 c 0,0.9 2.24,4.48 2.73,5.26 0,8.9 3.28,5.69 3.28,10.53 v 1.17 c 0,2.25 -3.08,1.75 -4.76,5.43 -1.14,2.49 -1.43,5.53 -3.98,6.26 1.24,3.23 1.77,2.58 6.22,4.44 2.4,1.01 7.36,2.12 8.93,3.31 4.53,3.44 9.65,6.84 16.53,7.45 -0.2,2.58 -1.1,2.56 -1.1,4.1 0,7.63 4.85,13.18 9.26,16.21 l 2.76,-0.43 v -4.67 c 2.76,-1.07 6.68,-7.9 7.85,-11.48 0.88,-2.65 8.95,-7.24 12.36,-7.24 h 10.93 c 2.29,0 5.46,2.6 5.46,4.68 v 2.34 c 0,2.56 -1.09,2.12 -1.09,4.68 l -0.03,1.9 10.95,1.61 h 1.09 c 4.62,0 7.29,-2.99 7.65,-7.6 l 1.64,0.01 9.28,0.57 c 0.18,2.32 0.55,1.41 0.55,2.92 0,3.74 -3.82,2.51 -3.82,8.78 l -1.26,0.17 -0.93,2.16 c 1.95,3.01 3.4,6.27 6.72,8.02 3.26,1.71 6.83,3.41 6.94,8.36 h -90.46 -77.13 v -309.85 l 0.34,-10.69 1,-10.01 1.67,-9.02 2,-8.35 3.01,-7.68 3.67,-7.01 4,-6.34 4.68,-5.34 5.67,-4.68 6.35,-4.34 7.35,-3.34 8.01,-2.67 9.01,-2.34 10.02,-1.67 10.68,-1 11.69,-0.33 h 65.44 l 14.36,0.67 13.36,1.67 13.02,3 12.02,3.67 11.02,5.01 10.68,6.35 9.68,7.01 9.02,8.34 8.35,9.35 7.01,10.02 6.01,10.35 4.67,11.02 3.67,11.69 3.01,12.02 1.33,13.02 0.67,13.35 -0.33,9.69 -1,9.34 -1.67,9.35 -2.01,8.68 -3,8.35 -3.67,8.35 -4.34,7.68 -4.68,7.34 -5.34,7.02 -5.68,6.34 -6.01,6.01 -6.34,5.34 -6.34,4.68 -7.02,4.34 -7.01,3.34 -7.68,3.34 z"
   id="path344"
   inkscape:connector-curvature="0"
   style="fill:#ffffff;fill-rule:nonzero" />
  <g
   clip-path="url(#id4)"
   id="g349">
   <g
   id="_1269776522448">
    <path
   id="path346"
   class="fil2"
   d="m 19498.09,8045.36 c -30.71,-38.59 -11.69,-150.41 -11.69,-209.48 0,-55.79 -9.59,-116.03 11.21,-151.13 22.95,-38.72 68.59,-18.13 120.82,-18.13 40.28,0 38.95,-1.91 70.78,27.03 19.53,17.75 90.33,66.21 75.26,89.23 -9.08,13.88 -71.73,48.98 -39.82,39.12 24.67,0 44.66,23.56 44.66,52.61 v 86.66 c 0,13.96 -4.7,27.34 -13.08,37.2 -34.11,40.2 -79.46,62.33 -127.69,62.33"
   inkscape:connector-curvature="0"
   style="fill:none" />
   </g>
  </g>
  <path
   class="fil1 str3"
   d="m 19758.02,8045.36 h -89.15 -39.58 c 1.82,0 1.6,-1.05 1.73,-2.79 l 9.23,-7.25 8.71,3.6 c 3.85,-3.58 13.65,0.38 13.65,-9.94 3.74,-0.93 6.91,-1.74 8.86,-4.7 l -0.67,-2.9 c 5.06,-2.86 10.38,-0.7 10.65,-8.51 l 7.29,-8.58 -0.31,-1.19 -4.26,-8.82 c 0,-4.78 -5.55,-10.72 -8.2,-17.39 -3.48,-8.79 -8.07,-17.5 -10.63,-21.58 0,-4.87 -0.61,-3 -1.44,-6.06 -0.35,-1.31 -0.38,-5.58 -0.61,-6.95 -0.76,-4.69 -2.35,-8.19 -2.33,-12.71 0.03,-7.62 -4.3,-19.21 -8.73,-20.47 0.66,-1.71 -2.51,-4.94 -3.58,-7.28 -1.28,-2.84 -2.06,-6.02 -3.41,-8.63 -1.49,-2.9 -10.33,-11.79 -12.13,-10.99 -0.8,-3.23 -5.88,-6.54 -7.87,-9.7 -3.04,-4.84 -3.54,-8.45 -5.78,-12.52 -2.18,-3.95 -4.64,-7.23 -8.54,-9.57 -1.95,-1.16 -10.22,-5.86 -11.67,-6.22 v -5.26 c 0,-4.21 -9.83,-9.18 -9.83,-18.13 v -2.34 c 0,-4.98 1.7,-6.97 3.11,-10.7 1.92,-5.07 0.8,-5.35 3.78,-9.99 1.85,-2.9 8.95,-15.52 11.13,-16.15 0.13,-6.31 3.83,-6.85 3.83,-11.69 0,-3.43 -3.76,-3.83 -5.04,-5.72 -0.13,-0.2 -3.09,-7.43 -3.16,-7.73 -6.47,-0.58 -10.92,-4.89 -10.92,-12.28 v -2.92 c 0,-5.28 3.92,-11.28 6.01,-14.62 0,-3.44 -1.87,-9.23 -1.72,-11.12 l 2.81,-25.72 c 0.33,-2.76 -1.71,-8.3 -2.73,-9.94 -3.42,0 -4.24,0.17 -4.92,-2.92 h -2.18 c -1.02,4.06 -14.9,9.06 -19.02,14.72 -2.23,3.07 -4.98,6.78 -6.83,10.23 -3.18,5.92 -4.19,5.03 -4.19,12.47 -1.05,1.67 -4.55,7.6 -6.56,7.6 -4.3,0 -7.82,-2.92 -13.11,-2.92 h -2.73 c -1.47,0 -1.5,0.28 -2.73,0.58 -0.07,3.29 -4,4.67 -6.34,8.42 -2.04,3.29 -3.12,6.29 -5.34,9.48 -1.47,2.12 -12.35,16.68 -12.35,17.77 0,5.39 4.37,11.97 4.37,18.71 2.48,0.96 2.73,4.64 2.73,8.19 0,1.35 -6.06,7.44 -7.1,8.18 0,4.92 -0.88,3.75 -3.83,5.27 0.59,2.34 2.19,3.05 2.19,5.84 0,6.31 -2.73,13.67 -2.73,15.21 0,4.54 5.46,14.07 5.46,19.29 0,2.8 -6.14,6.89 -7.64,10.04 l 7.09,-0.68 h 2.73 c 2.93,0 6.31,3.51 12.57,3.51 0.66,1.05 1.09,1.03 1.09,2.34 0,0.26 -2.4,12.7 -2.53,13.08 -1.78,5.22 -7.49,3.62 -10.61,5.6 -1.48,0.94 -5.25,7.56 -6.93,9.54 -2.09,2.48 -6.15,6.15 -6.15,10.37 0,1.4 2.29,3.32 2.94,5.05 0.71,1.86 -0.21,4.94 -0.21,7.81 v 2.93 h 3.83 c 2.42,0 2.21,6.02 3.27,8.77 1.66,4.36 2.94,4.35 5.47,5.84 1.7,1.33 -0.08,2.02 2.7,3.56 2.41,1.34 2.39,-0.63 5.96,0.6 6.37,2.19 6.55,-0.5 9.36,5.79 -3.34,5.33 -10.01,7.61 -14.53,14.26 -2.24,3.3 -3.9,5.88 -3.76,9.85 0.19,5.01 -3.01,10.04 -3.01,10.97 v 1.17 c 0,0.9 2.24,4.48 2.73,5.26 0,8.9 3.28,5.69 3.28,10.53 v 1.17 c 0,2.25 -3.08,1.75 -4.76,5.43 -1.14,2.49 -1.43,5.53 -3.98,6.26 1.24,3.23 1.77,2.58 6.22,4.44 2.4,1.01 7.36,2.12 8.93,3.31 4.53,3.44 9.65,6.84 16.53,7.45 -0.2,2.58 -1.1,2.56 -1.1,4.1 0,7.63 4.85,13.18 9.26,16.21 l 2.76,-0.43 v -4.67 c 2.76,-1.07 6.68,-7.9 7.85,-11.48 0.88,-2.65 8.95,-7.24 12.36,-7.24 h 10.93 c 2.29,0 5.46,2.6 5.46,4.68 v 2.34 c 0,2.56 -1.09,2.12 -1.09,4.68 l -0.03,1.9 10.95,1.61 h 1.09 c 4.62,0 7.29,-2.99 7.65,-7.6 l 1.64,0.01 9.28,0.57 c 0.18,2.32 0.55,1.41 0.55,2.92 0,3.74 -3.82,2.51 -3.82,8.78 l -1.26,0.17 -0.93,2.16 c 1.95,3.01 3.4,6.27 6.72,8.02 3.26,1.71 6.83,3.41 6.94,8.36 h -90.46 -77.13 v -309.85 l 0.34,-10.69 1,-10.01 1.67,-9.02 2,-8.35 3.01,-7.68 3.67,-7.01 4,-6.34 4.68,-5.34 5.67,-4.68 6.35,-4.34 7.35,-3.34 8.01,-2.67 9.01,-2.34 10.02,-1.67 10.68,-1 11.69,-0.33 h 65.44 l 14.36,0.67 13.36,1.67 13.02,3 12.02,3.67 11.02,5.01 10.68,6.35 9.68,7.01 9.02,8.34 8.35,9.35 7.01,10.02 6.01,10.35 4.67,11.02 3.67,11.69 3.01,12.02 1.33,13.02 0.67,13.35 -0.33,9.69 -1,9.34 -1.67,9.35 -2.01,8.68 -3,8.35 -3.67,8.35 -4.34,7.68 -4.68,7.34 -5.34,7.02 -5.68,6.34 -6.01,6.01 -6.34,5.34 -6.34,4.68 -7.02,4.34 -7.01,3.34 -7.68,3.34 z"
   id="path351"
   inkscape:connector-curvature="0"
   style="fill:none;fill-rule:nonzero;stroke:#ffffff;stroke-width:7.61999989;stroke-miterlimit:22.92560005" />
  <path
   class="fil3"
   d="m 19586.64,8003.27 -0.42,-0.43 c -1.57,-1.91 -2.84,-5.7 -2.82,-8.25 0.07,-7.01 2.92,-8.55 4.71,-12.97 0.65,-1.61 0.97,-2.81 1.18,-4.68 0.42,-3.74 -0.87,-6.79 -2.11,-9.5 1.85,1.81 3.04,5.19 3.32,8.54 0.3,3.52 -1.09,6.64 -2.51,9.15 -1.55,2.74 -2.92,4.64 -3.34,8.44 -0.2,1.85 -0.03,3.77 0.38,5.45 0.45,1.84 1.06,2.74 1.61,4.25 z m -9.56,-73.21 c 0,-1.09 0.06,-2.27 0.07,-3.38 0.01,-0.59 0.03,-0.95 0.17,-1.48 0.37,-1.3 0.32,-1.6 0.46,-2.87 l 0.73,-2.53 c 0.31,-0.59 0.17,-0.7 0.34,-1.28 0.2,-0.66 0.23,-0.52 0.37,-1.4 0.13,-0.76 0.3,-0.74 0.42,-1.19 0.47,-1.7 -0.23,-0.18 0.87,-2.41 l 1.15,-3.7 c 0.19,-0.56 0.42,-0.63 0.36,-1.25 -0.93,0.12 -0.82,0.74 -1.5,2.14 l -1.33,2.18 c -0.6,0.67 -0.19,0.6 -0.49,1.25 -0.36,0.76 -0.24,-0.02 -0.51,1.28 -0.14,0.68 -0.4,0.62 -0.57,1.15 -0.13,0.43 -0.01,0.34 -0.22,0.74 -0.68,1.33 -0.18,0.48 -0.45,1.31 -0.04,0.11 -0.24,0.49 -0.3,0.65 -0.65,1.75 -1.71,5.3 -1.81,7 -0.04,0.56 0.02,1.24 -0.03,1.76 -0.12,1.17 -0.36,-0.59 -0.36,3.38 0,0.83 0.34,1.31 0.37,2.3 0.02,1.08 0.52,5.26 0.85,5.94 l 0.81,3.26 c 0.04,0.66 0.09,0.51 0.38,0.96 0.35,0.51 0.11,0.42 0.38,0.96 0.36,0.75 0.21,0.01 0.31,1.06 0.06,0.61 0.17,0.56 0.43,0.93 0.43,0.6 0.17,0.45 0.31,1.06 0.15,0.64 0.23,0.23 0.48,0.87 0.27,0.7 -0.01,0.3 0.45,0.89 1.01,1.34 0.08,0.75 1.31,2.76 0.27,0.46 0.14,0.62 0.36,0.99 0.18,0.3 0.46,0.35 0.61,0.71 0.22,0.56 -0.1,0.46 0.35,1.03 1.05,1.32 0.41,0.21 0.86,1.82 0.17,0.58 0.72,1.08 0.94,1.8 0.13,0.41 0.15,0.64 0.3,1.03 0.48,1.29 0.22,1.45 0.55,2.17 0.35,0.78 0.32,2.6 0.2,3.55 -1.04,0.45 -1.81,0.57 -2.81,1.08 -2.55,1.29 -4.43,3.37 -5.93,5.84 -4.71,7.76 -4.61,19.16 0.39,26.63 1.69,2.53 5.4,6.46 10,6.46 h 1.22 c 4.24,0 8.13,-3.52 10.26,-6.88 2.35,-3.7 3.51,-8.34 3.52,-13.51 0.01,-6.64 -2.86,-14.35 -7.89,-17.66 -2.72,-1.78 -3.34,-1.7 -6.34,-2.19 -0.21,-0.71 -0.06,-1.94 -0.11,-2.75 -0.06,-1.01 -0.32,-1.43 -0.5,-2.28 l -1.84,-5.23 c -0.05,-0.14 -0.99,-1.59 -1.44,-2.77 -0.48,-1.23 -0.45,-0.35 -0.97,-1.89 -0.18,-0.55 -2.12,-3.84 -2.96,-6.61 l -1.88,-7.7 c -0.31,-1.97 -0.34,-3.85 -0.34,-5.98 z"
   id="path353"
   inkscape:connector-curvature="0"
   style="fill:#ffffff" />
  <path
   class="fil3"
   d="m 19561.11,7876.21 c 0.08,0.7 0.16,0.65 0.28,1.14 0.36,1.6 0.22,8.92 0.48,10.39 0.13,0.74 0.18,2.19 0.19,2.96 l 0.75,3.93 c 0.5,1.34 1.17,2.98 2,4.2 1.42,2.09 3.15,4.12 5.52,5.32 0.34,0.17 0.73,0.43 1.04,0.58 0.39,0.19 0.69,0.21 1.09,0.41 l 3.36,1.34 c 0.54,0.11 0.7,0.08 1.26,0.25 0.81,0.26 1.62,0.53 2.58,0.55 -0.15,-2.2 -0.98,-4.08 -1.35,-5.59 -0.34,-1.41 -1.37,-3.46 -1.99,-4.61 l -1.63,-2.84 c -1.25,-2.21 -3.85,-6.36 -5.23,-8.16 -0.37,-0.48 -1.74,-2.03 -1.89,-2.47 0.75,0.58 1.31,1.3 2.28,2.21 0.7,0.65 3.57,4.46 3.9,5.04 l 2.62,4 c 0.5,0.68 1.51,2.72 1.87,3.56 0.12,0.27 0.25,0.41 0.38,0.69 1.03,2.26 0.91,2.93 1.33,4.22 0.61,1.87 0.17,2.18 0.86,2.31 0.3,-0.58 -0.07,-0.45 0.43,-1.82 0.42,-1.13 0.88,-4.54 0.88,-5.82 -0.01,-5.63 -1.33,-6.54 -1.27,-7.52 -0.33,-0.22 -0.07,0.19 -0.39,-0.42 -0.11,-0.22 -0.05,-0.18 -0.13,-0.42 -0.17,-0.48 -0.15,-0.29 -0.38,-0.67 -1.3,-2.17 -0.87,-1.81 -2.84,-3.78 -0.64,-0.64 -1.52,-1.59 -2.36,-2.08 -1.7,-0.98 -2.42,-1.62 -4.12,-2.54 l -8.07,-5.07 c -0.48,-0.28 -0.7,-0.75 -1.43,-0.78 z"
   id="path355"
   inkscape:connector-curvature="0"
   style="fill:#ffffff" />
  <path
   class="fil3"
   d="m 19555.24,7927.38 c -1.24,-0.06 -3.29,-0.83 -4.06,-0.57 0.04,0.69 0.59,1.22 0.91,1.8 l 4.47,9.06 c 1.33,2.25 2.68,4.3 4.97,5.69 0.33,0.2 0.57,0.4 0.82,0.54 0.25,0.15 0.64,0.3 0.92,0.45 0.44,0.23 1.31,0.48 1.88,0.68 0.66,0.23 4.04,0.6 4.95,0.47 l 4.59,-0.7 c -0.1,-1.26 -3.78,-5.27 -5.09,-6.23 l -6.64,-4.73 c -0.57,-0.42 -4.59,-2.64 -4.66,-2.75 1.45,0.44 3.34,1.4 4.71,2.15 l 6.44,4.12 c 1.04,0.64 2.76,2.38 3.61,3.43 l 1.66,1.88 c 0.53,-0.8 -0.22,-2.76 -0.32,-3.22 -0.44,-2.17 -0.29,-0.92 -0.59,-1.97 -0.69,-2.37 -2.29,-4.4 -4.14,-5.88 l -2.18,-1.5 c -1.35,-0.76 -2.1,-1.03 -3.57,-1.41 z"
   id="path357"
   inkscape:connector-curvature="0"
   style="fill:#ffffff" />
  <path
   class="fil3"
   d="m 19591.98,7946.5 c -0.69,1.13 -2.36,3.4 -2.8,4.66 -0.21,0.6 -0.13,0.23 -0.36,0.71 l -1.1,3.11 c -0.74,2.26 0.53,1.72 2.12,1.31 0.7,-0.18 1.17,-0.12 1.84,-0.37 0.52,-0.2 0.98,-0.33 1.52,-0.51 3.75,-1.2 6.16,-3.75 7.84,-7.13 0.29,-0.59 0.26,-1 0.52,-1.54 l 0.84,-3.43 c 0.16,-1.31 0.09,-2.68 0.28,-3.93 0.34,-2.3 0.22,-2.44 0.41,-4 0.12,-0.91 0.53,-1.87 0.62,-3.59 -0.53,0.15 -1.3,0.74 -1.75,1.02 l -5.13,2.74 c -1.11,0.6 -2.32,1.18 -3.45,1.81 -3.56,1.96 -5.88,4.8 -7.1,8.72 -0.48,1.57 -0.55,3.02 -0.46,4.81 0.05,1 0.46,3.93 0.8,4.44 0.28,-0.33 1.17,-4.16 2.53,-6.1 1.4,-1.99 1.67,-2.72 3.53,-4.87 0.31,-0.36 0.41,-0.64 0.72,-1.02 l 2.41,-2.62 c 0.54,-0.72 1.06,-1.32 1.81,-1.67 z"
   id="path359"
   inkscape:connector-curvature="0"
   style="fill:#ffffff" />
  <path
   class="fil3"
   d="m 19592.36,7890.42 -0.15,0.08 c -0.02,0.01 -0.06,0.03 -0.08,0.05 l -1.95,0.86 c -2.95,1.9 -3.75,2.88 -5.55,5.68 -0.22,0.33 -0.32,0.61 -0.55,1.05 l -0.86,2.36 c -0.26,0.99 -0.31,4.94 -0.2,6.12 0.66,-0.14 0.92,-1.58 1.36,-2.22 1.66,-2.42 2.6,-3.74 4.77,-5.77 1.55,-1.46 6.33,-5.7 7.87,-6.17 l -5.89,5.3 c -0.42,0.55 -0.35,0.58 -0.84,1.06 -1.63,1.61 -2.88,2.77 -4.33,4.88 -0.62,0.9 -2.47,3.86 -2.36,4.76 1.21,0.26 3.9,-0.04 5.1,-0.18 2.56,-0.3 5.45,-1.41 7.38,-3.13 0.43,-0.37 0.98,-0.93 1.3,-1.39 1.34,-1.97 1.47,-1.81 2.45,-4.17 0.64,-1.54 1.17,-3.39 1.51,-5.03 0.18,-0.93 0.49,-1.24 0.64,-1.99 0.32,-1.57 1.39,-4.45 1.99,-5.87 -0.79,-0.07 -2.23,0.74 -2.92,0.98 -0.65,0.23 -0.8,0.16 -1.44,0.45 -0.43,0.2 -0.99,0.29 -1.43,0.48 -0.93,0.39 -1.79,0.49 -2.93,0.86 -0.55,0.18 -0.67,0.35 -1.34,0.51 -0.71,0.17 -0.81,0.35 -1.55,0.44 z"
   id="path361"
   inkscape:connector-curvature="0"
   style="fill:#ffffff" />
  <path
   class="fil2 str1"
   d="m 19877.38,7894.63 c 8.05,-10.92 25.16,-39.53 36.61,-34.39 20.27,10.6 41.63,18.46 59.36,33.7 3.38,2.91 6.98,7.12 10.1,10.44 1.25,1.33 2.66,2.76 2.69,4.61 l -0.07,0.82 -0.04,0.94 c -3.57,7.38 -8.57,18.67 -12.24,25.18 -0.74,1.74 -0.31,1.35 -1.87,1.99 l 1.12,0.65 c 2.34,2.44 9.62,7.84 12.21,9.98 1.45,1.14 1.86,1.44 3.26,2.89 l 9.41,9.08 c 7.73,9.21 17.44,19.57 22.34,30.29 4.15,9.04 7.64,14.76 -1.99,18.82 -21.07,9.04 -21.81,1.79 -40.18,-7.08 -2.2,-1.1 -5.93,-3.22 -6.08,-3.27 -36.82,-24.47 -5.73,3.74 -13.75,17 -8.43,13.96 -48.67,-7.12 -91.25,3.27 -7.18,3.91 -12.3,-3.21 -13.94,-6.11 -0.66,-1.17 -0.67,-5.76 -0.77,-7.36 -0.52,-1.67 -1.77,-4.51 -2.44,-5.79 -0.51,-0.41 -0.86,-0.62 -1.32,-1.27 -0.76,-1.06 -1.34,-1.81 -1.07,-3.15 0.04,-0.22 4.97,-1.72 6.3,-2.13 -0.52,-1.43 -0.44,-1.27 -1.97,-1.44 l -2.41,-0.2 c -0.62,-0.17 -2.8,0.28 -2.23,-2.34 1.05,-3.72 2.07,-4.11 1.76,-9.29 l -0.33,-0.84 c -1.26,0.05 -4.93,-0.92 -5.71,-1.75 -3.02,-1.36 -3.46,-5 -2.22,-7.89 2.41,-5.64 7.45,-9.65 9.83,-15.26 l 0.78,-1.77 -0.54,-5.37 c -0.28,-2.35 -0.31,-2.42 0.36,-3.4 0.06,-1.17 0.71,-2.66 0.95,-4.7 0.23,-2.05 0.61,-3.45 0.96,-5.13 -1.65,-2.2 -10.29,-2.14 -12.99,-3.62 -3.04,-0.48 -6.17,-1.82 -9.28,-2.61 -16.25,-4.16 -27,-13.75 -31.01,-30.02 l -0.75,-2.44 c -0.6,-2.5 -0.34,-2.23 1.31,-3.62 0.78,-0.66 1.47,-1.25 3.21,-1.97 4.74,-1.94 15.84,-3.6 21.58,-3.82 27.79,-0.36 33.16,6.12 52.31,8.37 z"
   id="path363"
   inkscape:connector-curvature="0"
   style="fill:none;stroke:#ffffff;stroke-width:7.61999989;stroke-miterlimit:22.92560005" />
 </g>
</svg>