<?xml version="1.0" encoding="UTF-8" standalone="no"?>
<svg
   xmlns:dc="http://purl.org/dc/elements/1.1/"
   xmlns:cc="http://creativecommons.org/ns#"
   xmlns:rdf="http://www.w3.org/1999/02/22-rdf-syntax-ns#"
   xmlns:svg="http://www.w3.org/2000/svg"
   xmlns="http://www.w3.org/2000/svg"
   xmlns:sodipodi="http://sodipodi.sourceforge.net/DTD/sodipodi-0.dtd"
   xmlns:inkscape="http://www.inkscape.org/namespaces/inkscape"
   width="13.906655mm"
   height="6.0000029mm"
   viewBox="0 0 13.906656 6.0000028"
   version="1.1"
   id="svg8"
   inkscape:version="1.0.2 (e86c870879, 2021-01-15, custom)"
   sodipodi:docname="inno.svg">
  <defs
     id="defs2">
    <style
       type="text/css"
       id="style833"><![CDATA[
    .fil0 {fill:#FFFFFE}
   ]]></style>
  </defs>
  <sodipodi:namedview
     id="base"
     pagecolor="#ffffff"
     bordercolor="#666666"
     borderopacity="1.0"
     inkscape:pageopacity="0.0"
     inkscape:pageshadow="2"
     inkscape:zoom="11.2"
     inkscape:cx="32.783304"
     inkscape:cy="3.7965104"
     inkscape:document-units="mm"
     inkscape:current-layer="layer1"
     inkscape:document-rotation="0"
     showgrid="false"
     fit-margin-top="0"
     fit-margin-left="0"
     fit-margin-right="0"
     fit-margin-bottom="0"
     inkscape:window-width="1343"
     inkscape:window-height="1030"
     inkscape:window-x="559"
     inkscape:window-y="0"
     inkscape:window-maximized="0" />
  <metadata
     id="metadata5">
    <rdf:RDF>
      <cc:Work
         rdf:about="">
        <dc:format>image/svg+xml</dc:format>
        <dc:type
           rdf:resource="http://purl.org/dc/dcmitype/StillImage" />
        <dc:title />
      </cc:Work>
    </rdf:RDF>
  </metadata>
  <g
     inkscape:label="Capa 1"
     inkscape:groupmode="layer"
     id="layer1"
     transform="translate(-116.55101,-56.946461)">
    <g
       style="clip-rule:evenodd;fill-rule:evenodd;image-rendering:optimizeQuality;shape-rendering:geometricPrecision;text-rendering:geometricPrecision"
       id="g890"
       transform="matrix(0.00849916,0,0,0.00849916,-20.208434,-10.885216)">
      <g
         id="Capa_x0020_1">
        <metadata
           id="CorelCorpID_0Corel-Layer" />
        <path
           class="fil0"
           d="m 16270.15,8211.63 c -24.92,40.56 -29.3,52.77 -0.31,93.87 l 38.3,9.21 c 0.23,60.05 0.47,121.15 0.17,182.19 -0.29,59.8 -4.89,127.19 63.33,125.39 64.31,-1.69 60.53,-62.33 60.24,-117.46 -0.33,-63.81 -0.08,-127.69 -0.08,-191.51 55.1,0 111.81,8.58 114.42,-51.1 2.8,-63.72 -57.02,-58.36 -113.63,-58.36 0.29,-127.19 41.1,-75.15 109.4,-107.59 53.82,-25.56 40.78,-109.75 -29.62,-114.85 -59.23,-4.29 -128.74,23.9 -155.96,54.52 -53.45,60.15 -28.62,102.88 -54.74,167.35 z m 37.42,101.58 h 123.02 l 1.92,-109.28 h -124.99 z"
           id="path838" />
        <path
           class="fil0"
           d="m 17686.13,8603.23 c -12.85,111.05 -109.5,20.64 -126.47,19.14 -22.81,58.19 90.19,87.64 137.09,42.81 40.67,-38.87 28.24,-160.15 -4.53,-191.55 -47.51,-45.53 -131.19,-19.09 -141.1,47.53 -11.63,78.2 59.84,112.09 135.01,82.07 z m -69.79,-115.67 c -69.88,27.34 -26.89,121.69 41.03,92.47 54.8,-23.58 23.84,-117.85 -41.03,-92.47 z"
           id="path840" />
        <path
           class="fil0"
           d="m 17691.6,8301.63 c 1.2,1.6 2.44,2.48 2.93,5.25 l 21.46,24.47 c 47.96,-129.49 -68.69,-243.8 -153.08,-159.38 -89.55,89.58 47.21,220.47 128.69,129.66 z m -94.22,-127.95 c -86.14,39.31 -32.16,166.27 59.06,131.29 81.2,-31.13 37.24,-175.24 -59.06,-131.29 z"
           id="path842" />
        <path
           class="fil0"
           d="m 17184.13,8150.15 c -123.06,39.15 -66.32,208.27 50.47,177.93 120.02,-31.17 66.69,-215.19 -50.47,-177.93 z m -5.33,25.48 c -90.77,44.56 -24.8,167.91 61.78,127.6 81.51,-37.95 28.66,-172 -61.78,-127.6 z"
           id="path844" />
        <path
           class="fil0"
           d="m 17121.92,8476.53 c -9.27,29.31 -27.69,65.33 -3.49,102.26 19.35,29.53 48.55,39.33 97.39,36.31 36.17,-23.3 56.24,-36.3 58.42,-94.22 1.45,-38.56 11.39,-111.02 -11.5,-139.37 -34.02,9.48 -18.35,37.7 -22.42,83.45 -57.83,-16.66 -75.96,-8.66 -118.4,11.57 z m 112.29,24.34 c -59.06,-39.11 -122.74,-0.51 -90.19,59.32 21.93,40.29 112.45,43.83 90.19,-59.32 z"
           id="path846" />
        <path
           class="fil0"
           d="m 17379.95,8616.07 c 49.19,-16.97 -10.34,-116.71 57.58,-131.4 74.27,-16.06 53.67,94.77 56.26,106.35 9.14,40.82 -7.84,11.92 18.99,25.86 30.46,-27.31 13.1,-115.16 -5.73,-137.6 -30.34,-36.16 -62.16,-22.95 -131.05,-25.42 -8.31,20.67 -16.89,133.3 3.95,162.21 z"
           id="path848" />
        <path
           class="fil0"
           d="m 16942.38,8616.89 c 31.99,-29.51 -13.11,-126.11 55.54,-132.87 15.61,-1.53 31.13,5.55 41.4,9.08 15.53,50.72 5.6,81.77 9.33,97.87 9.13,39.41 -4.76,12.83 18.75,25.95 27.26,-24.07 32.13,-163.29 -62.46,-164.69 l -74.33,1.62 -7.96,129.79 c 5.28,42.13 -2.19,21.52 19.73,33.25 z"
           id="path850" />
        <path
           class="fil0"
           d="m 16898.89,8609.69 c 2.68,-29.67 1.41,-59.74 1.73,-89.6 0.45,-41.39 10.23,-59.02 -20.75,-66.99 -31.1,38.1 19.83,136.66 -62.42,131.96 -80.5,-4.61 -8.11,-116.29 -62.59,-132.28 -21.01,24.71 -32.55,172.15 77.79,163.13 17.42,-1.43 17.28,-4.06 31.94,-4.79 25.52,-1.27 -11.58,1.6 16.64,0.6 8.77,-0.32 7.23,1.63 17.66,-2.03 z"
           id="path852" />
        <path
           class="fil0"
           d="m 16126.34,8203.87 c -68.94,29.68 -29.72,144.22 53.42,109.56 66.3,-27.63 28.86,-144.99 -53.42,-109.56 z"
           id="path854" />
        <path
           class="fil0"
           d="m 16622.38,8473.44 c 16.28,36.21 21.99,0.98 21.59,61.91 -0.55,81.82 -7.1,66.09 17.12,81.93 31.62,-25.44 6.33,-54.79 16.11,-126.21 l 43.04,-6.35 c -6.39,-32.17 -8.07,-24.42 -44.93,-24.73 12.5,-85.09 50.58,-14.66 54.93,-72.5 -27.65,-12.97 -55.71,-3.46 -70.35,14.47 -28.39,34.74 10.98,5.01 -37.51,71.48 z"
           id="path856" />
        <path
           class="fil0"
           d="m 17076.2,8330.43 c 18.37,-9.42 12.16,-67.18 11,-91.75 -2.64,-55.66 -18.14,-46.81 -30.04,-79.53 -39.29,-9.91 -81.82,-28.97 -111.89,11.45 l -29.75,-19.02 c -4.88,26.74 -2.39,64.4 -2.48,95.27 -0.26,93.46 -7.95,72.61 15.24,84.53 13.56,-31.23 1.82,-70.33 6.92,-107.73 10.22,-74.93 111.56,-73.2 129.96,-5.91 9.8,35.85 -9.07,84.94 11.04,112.69 z"
           id="path858" />
        <path
           class="fil0"
           d="m 16713.34,8152.55 -3.45,141.18 c 0,35.8 -4.65,24.53 13.71,36.66 25.42,-39.57 -24.45,-159.09 70.4,-163.46 102.51,-4.72 54.46,125.76 78.06,163.21 17.28,-8.81 13.75,17.52 13.75,-75.48 0,-46.21 -11.86,-75.7 -42.35,-96.42 -31.09,-21.11 -79.91,-16.53 -100.37,13.35 l -13.65,-15.94 c -0.97,-0.68 -3.12,-2.55 -4.13,-3.07 -0.83,-0.43 -3.24,-1.04 -4,-1.3 z"
           id="path860" />
        <path
           class="fil0"
           d="m 17419.02,8330.88 c 10.67,-9.37 92.23,-158.6 78.13,-184.42 -32.59,16.01 -32.33,71.31 -78.13,141.08 -33.36,-32.35 -42.08,-110.78 -78.14,-141.3 -7.11,10.63 -10.74,-16.45 -5.23,19.68 0.44,2.94 61.37,147.78 83.37,164.96 z"
           id="path862" />
        <path
           class="fil0"
           d="m 17304.72,8489.07 2.77,123.72 25.67,0.94 4.49,-116.85 c 0,-33.47 4.57,-34.6 -20.21,-44.55 -15.5,16.8 -12.72,5.52 -12.72,36.74 z"
           id="path864" />
      </g>
    </g>
  </g>
</svg>
