<?xml version="1.0" encoding="UTF-8" standalone="no"?>
<!-- Creator: CorelDRAW 2018 (64 Bit) -->

<svg
   xmlns:dc="http://purl.org/dc/elements/1.1/"
   xmlns:cc="http://creativecommons.org/ns#"
   xmlns:rdf="http://www.w3.org/1999/02/22-rdf-syntax-ns#"
   xmlns:svg="http://www.w3.org/2000/svg"
   xmlns="http://www.w3.org/2000/svg"
   xmlns:sodipodi="http://sodipodi.sourceforge.net/DTD/sodipodi-0.dtd"
   xmlns:inkscape="http://www.inkscape.org/namespaces/inkscape"
   xml:space="preserve"
   width="7.6076927mm"
   height="6.1970029mm"
   version="1.1"
   style="clip-rule:evenodd;fill-rule:evenodd;image-rendering:optimizeQuality;shape-rendering:geometricPrecision;text-rendering:geometricPrecision"
   viewBox="0 0 760.76928 619.70028"
   id="svg24"
   sodipodi:docname="pte_icono.svg"
   inkscape:version="0.92.4 (5da689c313, 2019-01-14)"><metadata
   id="metadata28"><rdf:RDF><cc:Work
       rdf:about=""><dc:format>image/svg+xml</dc:format><dc:type
         rdf:resource="http://purl.org/dc/dcmitype/StillImage" /><dc:title></dc:title></cc:Work></rdf:RDF></metadata><sodipodi:namedview
   pagecolor="#ffffff"
   bordercolor="#666666"
   borderopacity="1"
   objecttolerance="10"
   gridtolerance="10"
   guidetolerance="10"
   inkscape:pageopacity="0"
   inkscape:pageshadow="2"
   inkscape:window-width="1920"
   inkscape:window-height="1017"
   id="namedview26"
   showgrid="false"
   fit-margin-top="0"
   fit-margin-left="0"
   fit-margin-right="0"
   fit-margin-bottom="0"
   inkscape:zoom="8.5468655"
   inkscape:cx="74.408537"
   inkscape:cy="0.055310795"
   inkscape:window-x="-8"
   inkscape:window-y="-8"
   inkscape:window-maximized="1"
   inkscape:current-layer="svg24" />
 <defs
   id="defs12">
  <style
   type="text/css"
   id="style10">
   <![CDATA[
    .fil0 {fill:#FEFEFE}
    .fil1 {fill:#FEFEFE;fill-rule:nonzero}
   ]]>
  </style>
 </defs>
 <g
   id="Capa_x0020_1"
   transform="translate(-11002.779,-14972.219)">
  <metadata
   id="CorelCorpID_0Corel-Layer" />
  <path
   class="fil0"
   d="m 11296.6,14972.3 c 166.05,-3.82 303.75,127.69 307.58,293.74 0.93,40.86 -6.33,80.03 -20.29,115.88 l 165.14,104.63 c 14.56,9.2 18.88,28.65 9.7,43.18 l -30.19,47.66 c -9.21,14.56 -28.64,18.91 -43.18,9.69 l -165.42,-105.34 c -53.06,55.04 -127.02,89.98 -209.5,91.87 -166.05,3.83 -303.76,-127.69 -307.58,-293.74 -3.81,-166.03 127.69,-303.74 293.74,-307.57 z m 1.23,53.58 c 136.46,-3.14 249.62,104.93 252.77,241.39 3.14,136.46 -104.93,249.62 -241.39,252.76 -136.46,3.14 -249.62,-104.92 -252.76,-241.39 -3.14,-136.45 104.92,-249.61 241.38,-252.76 z"
   id="path15"
   inkscape:connector-curvature="0"
   style="fill:#fefefe" />
  
  <path
   class="fil1"
   d="m 11127.76,15342.87 24.29,-137.89 c 0.94,-5.15 2.38,-8.57 4.41,-10.29 1.98,-1.71 5.46,-2.58 10.41,-2.58 h 36.45 c 9.65,0 17.84,0.67 24.54,2 6.69,1.33 12.82,3.77 18.34,7.36 5.53,3.58 9.23,8.92 11.11,16.02 1.87,7.08 1.87,15.92 0,26.51 -3.28,18.08 -10.13,30.5 -20.58,37.29 -10.43,6.77 -24.38,10.16 -41.82,10.16 h -26.18 l -9.2,51.53 c -0.89,5.06 -2.25,8.46 -4.13,10.17 -1.86,1.71 -5.33,2.57 -10.47,2.57 h -6.74 c -4.95,0 -8.17,-0.86 -9.61,-2.57 -1.49,-1.71 -1.76,-5.15 -0.82,-10.28 z m 75.36,-119.9 h -22.2 l -6.73,37.87 h 22.16 c 8.41,0 14.71,-1.56 18.93,-4.68 4.21,-3.11 6.94,-8.03 8.18,-14.73 1.09,-6.7 0.07,-11.45 -3.04,-14.25 -3.12,-2.81 -8.89,-4.21 -17.3,-4.21 z m 85.07,119.9 21.26,-119.9 h -26.64 c -4.98,0 -8.17,-0.86 -9.57,-2.57 -1.41,-1.71 -1.72,-5.15 -0.95,-10.28 l 0.95,-5.14 c 0.93,-5.15 2.4,-8.57 4.44,-10.29 2.02,-1.71 5.53,-2.58 10.51,-2.58 h 83.24 c 4.99,0 8.19,0.87 9.58,2.58 1.4,1.72 1.64,5.14 0.7,10.29 l -0.94,5.14 c -0.77,5.13 -2.17,8.57 -4.19,10.28 -2.04,1.71 -5.54,2.57 -10.52,2.57 l -23.84,0.04 -21.5,119.97 c -0.94,5.06 -2.33,8.46 -4.28,10.17 -2,1.71 -5.55,2.57 -10.68,2.57 h -7.01 c -5.03,0 -8.27,-0.86 -9.74,-2.57 -1.48,-1.71 -1.75,-5.15 -0.82,-10.28 z m 89.59,-0.04 24.46,-137.85 c 0.94,-5.15 2.42,-8.57 4.49,-10.29 2.02,-1.71 5.52,-2.58 10.55,-2.58 h 67.35 c 4.98,0 8.17,0.87 9.59,2.58 1.4,1.72 1.62,5.14 0.69,10.29 l -0.93,5.14 c -0.78,5.13 -2.18,8.57 -4.22,10.28 -2.02,1.71 -5.52,2.57 -10.51,2.57 h -48.14 l -6.12,34.36 h 39.04 c 4.99,0 8.18,0.85 9.58,2.57 1.4,1.71 1.62,5.13 0.69,10.28 l -0.93,5.14 c -0.93,5.15 -2.42,8.57 -4.44,10.28 -2.02,1.72 -5.53,2.57 -10.52,2.57 h -38.86 l -6.55,36.69 h 50.25 c 4.97,0 8.17,0.87 9.58,2.58 1.4,1.72 1.63,5.14 0.69,10.29 l -0.93,5.14 c -0.93,5.13 -2.37,8.57 -4.32,10.28 -1.95,1.71 -5.42,2.57 -10.41,2.57 h -69.52 c -4.99,0 -8.26,-0.86 -9.74,-2.57 -1.47,-1.71 -1.75,-5.15 -0.82,-10.32 z"
   id="path19"
   inkscape:connector-curvature="0"
   style="fill:#fefefe;fill-rule:nonzero" />
  
 </g>
</svg>