<?xml version="1.0" encoding="UTF-8" standalone="no"?>
<!-- Creator: CorelDRAW 2018 (64 Bit) -->

<svg
   xmlns:dc="http://purl.org/dc/elements/1.1/"
   xmlns:cc="http://creativecommons.org/ns#"
   xmlns:rdf="http://www.w3.org/1999/02/22-rdf-syntax-ns#"
   xmlns:svg="http://www.w3.org/2000/svg"
   xmlns="http://www.w3.org/2000/svg"
   xmlns:sodipodi="http://sodipodi.sourceforge.net/DTD/sodipodi-0.dtd"
   xmlns:inkscape="http://www.inkscape.org/namespaces/inkscape"
   xml:space="preserve"
   width="25.877975mm"
   height="6.2035918mm"
   version="1.1"
   style="clip-rule:evenodd;fill-rule:evenodd;image-rendering:optimizeQuality;shape-rendering:geometricPrecision;text-rendering:geometricPrecision"
   viewBox="0 0 2587.7975 620.35918"
   id="svg264"
   sodipodi:docname="pte_logo.svg"
   inkscape:version="0.92.4 (5da689c313, 2019-01-14)"><metadata
   id="metadata268"><rdf:RDF><cc:Work
       rdf:about=""><dc:format>image/svg+xml</dc:format><dc:type
         rdf:resource="http://purl.org/dc/dcmitype/StillImage" /><dc:title></dc:title></cc:Work></rdf:RDF></metadata><sodipodi:namedview
   pagecolor="#ffffff"
   bordercolor="#666666"
   borderopacity="1"
   objecttolerance="10"
   gridtolerance="10"
   guidetolerance="10"
   inkscape:pageopacity="0"
   inkscape:pageshadow="2"
   inkscape:window-width="1920"
   inkscape:window-height="1017"
   id="namedview266"
   showgrid="false"
   fit-margin-top="0"
   fit-margin-left="0"
   fit-margin-right="0"
   fit-margin-bottom="0"
   inkscape:zoom="0.5946522"
   inkscape:cx="393.60165"
   inkscape:cy="-61.824671"
   inkscape:window-x="-8"
   inkscape:window-y="-8"
   inkscape:window-maximized="1"
   inkscape:current-layer="svg264" />
 <defs
   id="defs250">
  <style
   type="text/css"
   id="style248">
   <![CDATA[
    .fil0 {fill:#FEFEFE}
    .fil1 {fill:#FEFEFE;fill-rule:nonzero}
   ]]>
  </style>
 </defs>
 <g
   id="Capa_x0020_1"
   transform="translate(-11002.779,-14971.56)">
  <metadata
   id="CorelCorpID_0Corel-Layer" />
  <path
   class="fil0"
   d="m 11296.6,14972.3 c 166.05,-3.82 303.75,127.69 307.58,293.74 0.93,40.86 -6.33,80.03 -20.29,115.88 l 165.14,104.63 c 14.56,9.2 18.88,28.65 9.7,43.18 l -30.19,47.66 c -9.21,14.56 -28.64,18.91 -43.18,9.69 l -165.42,-105.34 c -53.06,55.04 -127.02,89.98 -209.5,91.87 -166.05,3.83 -303.76,-127.69 -307.58,-293.74 -3.81,-166.03 127.69,-303.74 293.74,-307.57 z m 1.23,53.58 c 136.46,-3.14 249.62,104.93 252.77,241.39 3.14,136.46 -104.93,249.62 -241.39,252.76 -136.46,3.14 -249.62,-104.92 -252.76,-241.39 -3.14,-136.45 104.92,-249.61 241.38,-252.76 z"
   id="path253"
   inkscape:connector-curvature="0"
   style="fill:#fefefe" />
  <path
   class="fil1"
   d="m 12077.56,15438.76 h -70.52 l -6.4,37.99 h 64.94 c 4.78,0 8.17,1.08 10.15,3.2 2.02,2.13 2.69,4.97 2.09,8.45 -0.58,3.5 -2.22,6.37 -4.87,8.58 -2.72,2.19 -6.48,3.31 -11.32,3.31 h -64.95 l -7.42,44.04 h 72.93 c 4.92,0 8.44,1.14 10.53,3.4 2.15,2.28 2.88,5.33 2.25,9.11 -0.61,3.64 -2.36,6.63 -5.27,8.89 -2.86,2.26 -6.77,3.42 -11.69,3.42 h -85.06 c -6.8,0 -11.44,-1.51 -13.91,-4.53 -2.47,-3.02 -3.17,-7.92 -2.04,-14.65 l 19.57,-116.22 c 0.76,-4.5 2.06,-8.16 3.88,-11.01 1.8,-2.84 4.24,-4.93 7.31,-6.23 3.05,-1.3 6.8,-1.94 11.22,-1.94 h 82.65 c 5,0 8.52,1.12 10.55,3.31 2.04,2.22 2.77,5.16 2.18,8.71 -0.62,3.66 -2.35,6.61 -5.13,8.85 -2.77,2.2 -6.67,3.32 -11.67,3.32 z m 116.77,95.42 c -1.33,7.91 -4.42,14.71 -9.23,20.37 -4.79,5.64 -11.23,9.92 -19.29,12.85 -8.04,2.91 -17.46,4.33 -28.28,4.33 -10.33,0 -18.91,-1.58 -25.76,-4.74 -6.86,-3.13 -11.61,-7.09 -14.34,-11.84 -2.7,-4.7 -3.66,-9.47 -2.86,-14.24 0.54,-3.18 2.11,-5.87 4.74,-8.1 2.61,-2.28 5.65,-3.38 9.1,-3.38 3.03,0 5.2,0.75 6.57,2.22 1.37,1.48 2.58,3.53 3.59,6.23 2.1,5.11 4.98,8.95 8.65,11.48 3.68,2.54 9.06,3.82 16.16,3.82 5.77,0 10.68,-1.3 14.78,-3.85 4.14,-2.57 6.48,-5.51 7.04,-8.82 0.85,-5.07 -0.44,-8.75 -3.87,-11.08 -3.45,-2.3 -9.37,-4.54 -17.78,-6.67 -9.49,-2.43 -17.13,-5.03 -22.88,-7.73 -5.74,-2.69 -10.1,-6.29 -13.11,-10.72 -2.95,-4.42 -3.9,-9.9 -2.81,-16.34 0.98,-5.78 3.62,-11.22 7.89,-16.36 4.32,-5.16 10.09,-9.22 17.34,-12.29 7.19,-3.05 15.56,-4.59 25.05,-4.59 7.46,0 14.02,0.75 19.66,2.3 5.66,1.54 10.29,3.64 13.81,6.22 3.56,2.63 6.09,5.52 7.6,8.68 1.57,3.17 2.08,6.22 1.57,9.29 -0.55,3.26 -2.14,6.01 -4.71,8.1 -2.54,2.1 -5.89,3.15 -9.96,3.15 -2.96,0 -5.32,-0.84 -7.13,-2.52 -1.76,-1.68 -3.73,-4.21 -5.85,-7.6 -1.68,-2.8 -3.84,-5.06 -6.51,-6.76 -2.68,-1.68 -6.52,-2.51 -11.59,-2.51 -5.19,0 -9.7,1.11 -13.53,3.3 -3.79,2.24 -5.98,5.01 -6.54,8.32 -0.51,3.02 0.32,5.51 2.53,7.42 2.21,1.93 5.34,3.56 9.39,4.82 4.09,1.25 9.73,2.79 16.94,4.63 8.56,2.16 15.42,4.79 20.56,7.82 5.13,3.02 8.81,6.58 11.04,10.71 2.22,4.11 2.91,8.78 2.02,14.08 z m 38.92,-76.86 h 3.16 l 2.91,-17.3 c 0.78,-4.65 1.52,-8.29 2.21,-10.9 0.69,-2.67 1.75,-4.95 3.19,-6.81 1.44,-1.98 3.35,-3.59 5.67,-4.82 2.3,-1.23 4.74,-1.84 7.36,-1.84 3.64,0 6.69,1.37 9.16,4.11 1.67,1.83 2.53,4.06 2.62,6.72 0.1,2.64 -0.27,6.37 -1.09,11.23 l -3.31,19.61 h 10.55 c 4.07,0 7.02,0.96 8.83,2.88 1.82,1.95 2.49,4.42 1.99,7.41 -0.66,3.88 -2.65,6.58 -5.99,8.12 -3.31,1.56 -7.79,2.32 -13.51,2.32 h -5.36 l -8.9,52.88 c -0.75,4.51 -1.21,8 -1.29,10.42 -0.08,2.38 0.41,4.36 1.53,5.89 1.14,1.5 3.25,2.28 6.34,2.28 1.64,0 4.02,-0.3 6.99,-0.92 2.98,-0.57 5.3,-0.91 6.88,-0.91 2.35,0 4.25,0.95 5.82,2.83 1.56,1.86 2.07,4.15 1.6,6.9 -0.78,4.63 -3.87,8.17 -9.34,10.61 -5.49,2.49 -12.95,3.7 -22.46,3.7 -8.99,0 -15.54,-1.51 -19.64,-4.52 -4.14,-3.02 -6.44,-7.21 -6.99,-12.56 -0.54,-5.32 -0.06,-12.46 1.44,-21.38 l 9.3,-55.22 h -3.77 c -4.17,0 -7.17,-0.97 -9.01,-2.95 -1.86,-1.94 -2.51,-4.47 -2,-7.49 0.49,-2.99 2.07,-5.46 4.66,-7.41 2.61,-1.92 6.09,-2.88 10.45,-2.88 z m 131.01,98.27 c -7.89,5.39 -15.3,9.42 -22.22,12.12 -6.99,2.7 -14.5,4.02 -22.56,4.02 -7.38,0 -13.64,-1.47 -18.73,-4.38 -5.09,-2.91 -8.73,-6.84 -10.93,-11.83 -2.17,-5 -2.77,-10.4 -1.79,-16.24 1.33,-7.87 4.93,-14.57 10.87,-20.11 5.94,-5.58 13.43,-9.29 22.5,-11.2 1.87,-0.43 6.56,-1.37 14.04,-2.82 7.49,-1.49 13.92,-2.82 19.29,-4.07 5.36,-1.23 11.21,-2.7 17.55,-4.47 0.92,-7.59 0.34,-13.17 -1.76,-16.69 -2.14,-3.58 -7.41,-5.33 -15.95,-5.33 -7.29,0 -12.97,1 -16.99,3.05 -4.04,2.02 -7.71,5.08 -11.05,9.19 -3.29,4.06 -5.61,6.71 -6.92,8.06 -1.33,1.3 -3.79,1.93 -7.34,1.93 -3.25,0 -5.88,-1.04 -7.87,-3.12 -2,-2.07 -2.73,-4.72 -2.18,-7.96 0.85,-5.07 3.48,-10.01 7.86,-14.78 4.4,-4.78 10.63,-8.72 18.76,-11.81 8.11,-3.09 17.83,-4.65 29.17,-4.65 12.62,0 22.33,1.53 29.06,4.51 6.74,2.99 11.04,7.69 12.95,14.18 1.89,6.47 1.95,15.04 0.15,25.72 -1.13,6.76 -2.13,12.5 -2.97,17.21 -0.83,4.7 -1.74,9.96 -2.78,15.71 -0.91,5.4 -0.98,11.06 -0.16,16.91 0.82,5.84 1.05,9.62 0.77,11.31 -0.51,2.95 -2.32,5.63 -5.5,8.05 -3.21,2.42 -6.55,3.63 -10.07,3.63 -2.95,0 -5.63,-1.35 -8.05,-4.12 -2.4,-2.79 -4.81,-6.77 -7.15,-12.02 z m 5.11,-41.71 c -4.46,1.56 -10.87,3.21 -19.21,4.89 -8.32,1.73 -14.12,3.03 -17.34,3.82 -3.24,0.83 -6.44,2.4 -9.65,4.75 -3.2,2.37 -5.16,5.65 -5.87,9.89 -0.73,4.36 0.3,8.06 3.08,11.13 2.77,3.05 6.83,4.59 12.2,4.59 5.68,0 11.14,-1.26 16.34,-3.73 5.26,-2.53 9.32,-5.73 12.24,-9.68 3.32,-4.36 5.84,-11.55 7.52,-21.56 z m -0.36,-100.39 h 14.24 c 3.61,0 5.32,0.55 5.15,1.58 -0.1,0.55 -2.46,2.85 -7.07,6.85 -4.62,3.99 -9.23,7.81 -13.88,11.47 -4.59,3.64 -7.79,5.86 -9.46,6.63 -4.33,2.05 -8.82,3.05 -13.39,3.05 -3.03,0 -4.39,-0.88 -4.09,-2.63 0.2,-1.19 1.44,-3.28 3.79,-6.23 l 6.23,-8.81 c 3.62,-5.14 6.56,-8.41 8.85,-9.82 2.28,-1.42 5.48,-2.09 9.63,-2.09 z m 91.16,57.14 -0.58,3.49 c 6.19,-6.7 12.55,-11.59 19.08,-14.73 6.56,-3.12 13.71,-4.66 21.52,-4.66 7.6,0 14.07,1.65 19.53,4.96 5.43,3.28 9.1,7.96 11.04,13.99 1.31,3.54 1.89,7.31 1.78,11.42 -0.16,4.06 -0.74,9.25 -1.8,15.57 l -9.03,53.58 c -0.96,5.75 -3.02,10.12 -6.15,13.06 -3.12,2.95 -6.82,4.42 -11.03,4.42 -4.29,0 -7.52,-1.51 -9.7,-4.52 -2.16,-3.02 -2.77,-7.35 -1.82,-12.96 l 8.08,-47.99 c 1.6,-9.47 1.5,-16.75 -0.3,-21.78 -1.78,-5 -6.6,-7.52 -14.48,-7.52 -5.11,0 -10.05,1.52 -14.8,4.57 -4.72,3.05 -8.53,7.28 -11.38,12.64 -2.13,4.26 -4.18,12.25 -6.18,24.04 l -6.06,36.04 c -0.98,5.82 -3.08,10.19 -6.28,13.1 -3.19,2.91 -6.92,4.38 -11.18,4.38 -4.12,0 -7.29,-1.51 -9.45,-4.52 -2.15,-3.02 -2.74,-7.35 -1.8,-12.96 l 14.01,-83.18 c 0.92,-5.48 2.8,-9.58 5.61,-12.27 2.87,-2.7 6.35,-4.07 10.49,-4.07 2.51,0 4.71,0.61 6.53,1.8 1.85,1.18 3.16,2.98 3.98,5.37 0.84,2.36 0.95,5.32 0.37,8.73 z m 168.88,84.67 0.48,-2.84 c -4.59,4.42 -9.02,8.02 -13.27,10.79 -4.2,2.76 -8.65,4.89 -13.29,6.34 -4.62,1.42 -9.54,2.14 -14.76,2.14 -6.86,0 -12.98,-1.47 -18.37,-4.38 -5.37,-2.91 -9.78,-7.05 -13.14,-12.49 -3.38,-5.39 -5.55,-11.76 -6.55,-19.07 -0.96,-7.29 -0.73,-15.22 0.69,-23.7 3.03,-18 9.78,-32.03 20.24,-42.07 10.48,-10.03 22.92,-15.08 37.23,-15.08 8.31,0 15.06,1.44 20.26,4.28 5.21,2.85 10.05,7.23 14.44,13.16 l 7.16,-42.47 c 0.99,-5.91 2.92,-10.37 5.78,-13.4 2.89,-3.02 6.48,-4.52 10.84,-4.52 4.35,0 7.45,1.4 9.37,4.15 1.88,2.79 2.37,6.9 1.45,12.29 l -21.35,126.87 c -0.92,5.47 -2.89,9.59 -5.87,12.34 -3.02,2.74 -6.51,4.09 -10.51,4.09 -3.92,0 -6.94,-1.42 -9.04,-4.26 -2.06,-2.85 -2.68,-6.92 -1.79,-12.17 z m -49.44,-42.25 c -1.33,7.81 -1.22,14.44 0.27,19.94 1.49,5.47 4.11,9.56 7.88,12.34 3.75,2.77 8.12,4.19 13.09,4.19 5.08,0 9.9,-1.35 14.52,-3.96 4.6,-2.65 8.63,-6.67 12.03,-12.1 3.4,-5.47 5.82,-12.24 7.19,-20.41 1.29,-7.63 1.12,-14.21 -0.44,-19.7 -1.54,-5.56 -4.22,-9.77 -7.97,-12.68 -3.76,-2.91 -8.16,-4.36 -13.23,-4.36 -5.26,0 -10.22,1.49 -14.86,4.47 -4.63,2.98 -8.55,7.26 -11.8,12.83 -3.21,5.63 -5.45,12.1 -6.68,19.44 z m 178.25,42.54 c -7.89,5.39 -15.31,9.42 -22.22,12.12 -6.99,2.7 -14.52,4.02 -22.58,4.02 -7.36,0 -13.62,-1.47 -18.71,-4.38 -5.1,-2.91 -8.74,-6.84 -10.93,-11.83 -2.17,-5 -2.78,-10.4 -1.79,-16.24 1.33,-7.87 4.93,-14.57 10.87,-20.11 5.93,-5.58 13.43,-9.29 22.5,-11.2 1.87,-0.43 6.56,-1.37 14.04,-2.82 7.49,-1.49 13.92,-2.82 19.29,-4.07 5.36,-1.23 11.21,-2.7 17.55,-4.47 0.91,-7.59 0.34,-13.17 -1.76,-16.69 -2.14,-3.58 -7.41,-5.33 -15.95,-5.33 -7.29,0 -12.97,1 -16.99,3.05 -4.04,2.02 -7.71,5.08 -11.05,9.19 -3.29,4.06 -5.61,6.71 -6.93,8.06 -1.32,1.3 -3.78,1.93 -7.33,1.93 -3.25,0 -5.88,-1.04 -7.87,-3.12 -2,-2.07 -2.73,-4.72 -2.18,-7.96 0.85,-5.07 3.48,-10.01 7.86,-14.78 4.39,-4.78 10.63,-8.72 18.75,-11.81 8.12,-3.09 17.84,-4.65 29.18,-4.65 12.62,0 22.33,1.53 29.06,4.51 6.73,2.99 11.04,7.69 12.95,14.18 1.89,6.47 1.95,15.04 0.15,25.72 -1.14,6.76 -2.13,12.5 -2.97,17.21 -0.83,4.7 -1.75,9.96 -2.78,15.71 -0.91,5.4 -0.98,11.06 -0.16,16.91 0.82,5.84 1.05,9.62 0.77,11.31 -0.51,2.95 -2.32,5.63 -5.5,8.05 -3.21,2.42 -6.55,3.63 -10.07,3.63 -2.95,0 -5.64,-1.35 -8.05,-4.12 -2.41,-2.79 -4.81,-6.77 -7.15,-12.02 z m 5.11,-41.71 c -4.46,1.56 -10.87,3.21 -19.21,4.89 -8.32,1.73 -14.12,3.03 -17.34,3.82 -3.24,0.83 -6.46,2.4 -9.65,4.75 -3.2,2.37 -5.16,5.65 -5.87,9.89 -0.73,4.36 0.3,8.06 3.08,11.13 2.77,3.05 6.83,4.59 12.19,4.59 5.69,0 11.13,-1.26 16.35,-3.73 5.26,-2.53 9.31,-5.73 12.24,-9.68 3.32,-4.36 5.84,-11.55 7.52,-21.56 z m 83.21,16.34 -4.06,24.03 c -0.97,5.82 -3.08,10.19 -6.3,13.1 -3.22,2.91 -6.93,4.38 -11.14,4.38 -4.14,0 -7.3,-1.47 -9.47,-4.42 -2.16,-2.94 -2.77,-7.31 -1.79,-13.06 l 13.5,-80.13 c 2.16,-12.9 7.94,-19.39 17.25,-19.39 4.75,0 7.96,1.5 9.53,4.52 1.61,3.03 2.01,7.54 1.23,13.43 4.41,-5.89 8.69,-10.4 12.83,-13.43 4.16,-3.02 9.23,-4.52 15.27,-4.52 6.05,0 11.66,1.5 16.83,4.52 5.19,3.03 7.35,7.06 6.5,12.06 -0.59,3.53 -2.27,6.4 -5.1,8.72 -2.8,2.29 -5.61,3.41 -8.42,3.41 -1.05,0 -3.48,-0.65 -7.3,-1.95 -3.85,-1.28 -7.29,-1.94 -10.38,-1.94 -4.22,0 -7.83,1.12 -10.89,3.32 -3.04,2.23 -5.68,5.5 -7.9,9.85 -2.2,4.36 -4.08,9.54 -5.67,15.55 -1.55,6.01 -3.06,13.3 -4.52,21.95 z"
   id="path255"
   inkscape:connector-curvature="0"
   style="fill:#fefefe;fill-rule:nonzero" />
  <path
   class="fil1"
   d="m 12092.13,15153.39 c 5.14,0 8.42,0.84 9.85,2.57 1.43,1.71 1.67,5.23 0.72,10.56 l -1.14,6.85 c -0.95,5.15 -2.48,8.62 -4.57,10.43 -2.11,1.81 -5.72,2.72 -10.86,2.72 l -33.14,0.05 -27.1,153.46 c -0.94,5.47 -2.43,9.05 -4.42,10.76 -2.01,1.71 -5.67,2.57 -11,2.57 h -8.58 c -5.32,0 -8.7,-0.86 -10.13,-2.57 -1.43,-1.71 -1.67,-5.23 -0.72,-10.58 l 26.85,-153.69 h -35.98 c -5.15,0 -8.38,-0.91 -9.73,-2.72 -1.32,-1.81 -1.51,-5.28 -0.56,-10.43 l 1.14,-6.85 c 0.77,-5.33 2.19,-8.85 4.29,-10.56 2.09,-1.73 5.71,-2.57 10.85,-2.57 z m 79.22,68.84 -1.99,12.57 c -1.34,7.43 -5.15,10.67 -11.44,9.71 -1.71,-0.38 -3.7,-0.57 -5.99,-0.57 -7.62,0 -15.19,3.81 -22.71,11.38 -7.52,7.62 -13.15,19.28 -16.77,35 l -7.66,49.71 c -0.8,5.47 -2.23,9.05 -4.24,10.76 -1.99,1.71 -5.57,2.57 -10.71,2.57 h -6.24 c -5.34,0 -8.72,-0.86 -10.14,-2.57 -1.43,-1.71 -1.67,-5.23 -0.71,-10.58 l 19.18,-110.41 c 0.9,-5.23 2.43,-8.71 4.48,-10.42 2.09,-1.73 5.81,-2.57 11.14,-2.57 h 3.38 c 5.34,0 8.72,0.84 10.14,2.57 1.43,1.71 1.62,5.23 0.67,10.56 l -2.38,15.53 c 3.24,-9.77 8.75,-17.77 16.57,-24.1 7.8,-6.29 16.28,-9.43 25.43,-9.43 0.56,0 1.19,0.05 1.85,0.15 0.66,0.09 1.1,0.14 1.29,0.14 5.71,0.38 8,3.71 6.85,10 z m 134.22,7.71 -19.7,110.56 c -0.96,5.34 -2.29,8.86 -4,10.57 -1.73,1.72 -5.15,2.57 -10.29,2.57 h -1.15 c -5.14,0 -8.52,-0.8 -10.13,-2.43 -1.63,-1.61 -2.72,-4.99 -3.3,-10.13 l -0.28,-8.57 c -10.47,15.8 -24.38,23.7 -41.71,23.7 -18.66,0 -32.28,-6.61 -40.85,-19.85 -8.58,-13.23 -10.67,-31.76 -6.29,-55.57 3.82,-20.76 11.86,-37.13 24.15,-49.13 12.28,-12 26.99,-18.01 44.14,-18.01 17.71,0 29.61,7.24 35.7,21.72 l 1.14,-5.43 c 0.77,-5.33 2.2,-8.85 4.29,-10.56 2.09,-1.73 5.81,-2.57 11.15,-2.57 h 6.28 c 5.32,0 8.72,0.84 10.14,2.57 1.43,1.71 1.67,5.23 0.71,10.56 z m -42.85,56 c 2.1,-11.8 1.1,-22 -3,-30.57 -4.09,-8.57 -11,-12.85 -20.71,-12.85 -9.33,0 -17.38,3.76 -24.14,11.28 -6.76,7.52 -11.38,18.23 -13.85,32.14 -2.49,13.91 -1.58,24.28 2.71,31.14 4.29,6.85 11.28,10.29 20.99,10.29 9.91,0 18.24,-4 25.01,-12 6.75,-8 11.09,-17.81 12.99,-29.43 z m 107.33,-55.95 -1.86,10.72 c 3.43,-8 8.9,-14.48 16.52,-19.52 7.62,-5.01 16.38,-7.54 26.23,-7.54 13.34,0 23.01,4.53 29.1,13.57 6.1,9.05 7.62,21.95 4.57,38.76 l -12.85,74.15 c -0.9,5.43 -2.39,8.99 -4.44,10.66 -1.99,1.71 -5.61,2.57 -10.75,2.57 h -6.62 c -5.18,0 -8.58,-0.91 -10.09,-2.72 -1.53,-1.8 -1.81,-5.28 -0.86,-10.43 l 11.66,-67.42 c 3.24,-18.65 -1.47,-28 -14.19,-28 -8.71,0 -16.33,3.4 -22.76,10.11 -6.43,6.76 -10.71,15.7 -12.76,26.9 l -10.33,58.56 c -0.95,5.28 -2.38,8.76 -4.43,10.43 -1.99,1.71 -5.61,2.57 -10.75,2.57 h -6.62 c -5.38,0 -8.82,-0.86 -10.25,-2.57 -1.42,-1.71 -1.66,-5.23 -0.7,-10.58 l 19.18,-110.41 c 0.9,-5.23 2.43,-8.71 4.52,-10.42 2.11,-1.73 5.87,-2.57 11.24,-2.57 h 6.63 c 5.13,0 8.46,0.84 9.89,2.57 1.43,1.71 1.67,5.23 0.72,10.61 z m 157.78,-16.34 c 17.35,0 30.29,4 38.86,12 3.81,3.24 5.52,6.2 5.14,8.87 -0.56,2.47 -2.29,5.23 -5.14,8.28 l -4,3.72 c -3.62,3.8 -7.14,5.71 -10.56,5.71 -2.29,0 -4.76,-1.05 -7.43,-3.14 -5.53,-4.58 -12,-6.86 -19.43,-6.86 -9.9,0 -15.53,3.81 -16.86,11.43 -0.56,3.61 0.53,6.67 3.3,9.14 2.75,2.47 6.37,4.33 10.85,5.57 4.47,1.24 9.33,2.95 14.56,5.14 5.24,2.19 9.95,4.77 14.15,7.71 4.18,2.95 7.33,7.53 9.43,13.72 2.09,6.19 2.37,13.75 0.84,22.72 -2.09,11.6 -7.6,20.94 -16.56,27.98 -8.95,7.05 -21.61,10.57 -38,10.57 -23.42,0 -39.8,-5.52 -49.13,-16.56 -2.48,-2.67 -3.43,-5.15 -2.87,-7.44 0.2,-2.27 2.11,-5.04 5.73,-8.28 l 4.28,-3.72 c 4.19,-3.61 7.34,-5.61 9.43,-5.99 2.09,-0.38 4.47,0.57 7.14,2.86 0.96,0.58 2.47,1.62 4.58,3.13 2.09,1.53 3.9,2.72 5.42,3.58 1.52,0.86 3.76,1.71 6.72,2.57 2.94,0.86 6.03,1.29 9.27,1.29 12.76,0 20,-4.48 21.72,-13.43 0.75,-5.14 -0.82,-9.14 -4.72,-12 -3.9,-2.85 -8.86,-5.09 -14.85,-6.71 -5.99,-1.61 -11.96,-3.62 -17.85,-6 -5.91,-2.38 -10.53,-6.81 -13.87,-13.28 -3.32,-6.48 -4.14,-14.96 -2.42,-25.43 2.28,-12.57 8.09,-21.91 17.43,-28 9.33,-6.09 20.95,-9.15 34.84,-9.15 z m 42.29,187.13 30,-170.69 c 0.94,-5.44 2.47,-9 4.56,-10.71 2.11,-1.73 5.77,-2.57 11.1,-2.57 h 6.57 c 5.14,0 8.42,0.84 9.85,2.57 1.43,1.71 1.67,5.23 0.72,10.56 l -0.24,1.1 c 10.29,-11.58 23.14,-17.39 38.57,-17.39 17.71,0 30.9,6.25 39.57,18.72 8.66,12.48 10.81,31 6.43,55.56 -4,22.67 -12.05,39.72 -24.14,51.14 -12.1,11.43 -26.44,17.14 -43,17.14 -17.71,0 -29.81,-5.9 -36.28,-17.75 l -10.9,62.18 c -0.96,5.43 -2.47,9 -4.58,10.71 -2.09,1.71 -5.71,2.57 -10.86,2.57 h -6.51 c -5.15,0 -8.44,-0.86 -9.87,-2.57 -1.43,-1.71 -1.75,-5.24 -0.99,-10.57 z m 52.95,-114.88 c -2.29,13.23 -1.14,23.46 3.42,30.65 4.58,7.2 11.62,10.82 21.15,10.82 9.71,0 17.99,-3.68 24.84,-11 6.86,-7.34 11.44,-17.67 13.71,-31 2.49,-12.96 1.53,-23.33 -2.85,-31.15 -4.38,-7.8 -11.32,-11.7 -20.85,-11.7 -9.53,0 -17.85,3.86 -25,11.62 -7.14,7.76 -11.95,18.33 -14.42,31.76 z m 250.73,-55.96 -19.7,110.56 c -0.97,5.34 -2.29,8.86 -4,10.57 -1.73,1.72 -5.15,2.57 -10.29,2.57 h -1.15 c -5.14,0 -8.52,-0.8 -10.13,-2.43 -1.63,-1.61 -2.72,-4.99 -3.3,-10.13 l -0.28,-8.57 c -10.47,15.8 -24.38,23.7 -41.71,23.7 -18.66,0 -32.28,-6.61 -40.85,-19.85 -8.58,-13.23 -10.67,-31.76 -6.29,-55.57 3.82,-20.76 11.86,-37.13 24.14,-49.13 12.29,-12 27,-18.01 44.15,-18.01 17.71,0 29.61,7.24 35.7,21.72 l 1.14,-5.43 c 0.77,-5.33 2.19,-8.85 4.29,-10.56 2.09,-1.73 5.81,-2.57 11.15,-2.57 h 6.27 c 5.33,0 8.73,0.84 10.15,2.57 1.43,1.71 1.67,5.23 0.71,10.56 z m -42.86,56 c 2.11,-11.8 1.11,-22 -2.99,-30.57 -4.09,-8.57 -11,-12.85 -20.71,-12.85 -9.33,0 -17.38,3.76 -24.14,11.28 -6.76,7.52 -11.38,18.23 -13.85,32.14 -2.49,13.91 -1.59,24.28 2.71,31.14 4.28,6.85 11.28,10.29 20.99,10.29 9.91,0 18.23,-4 25,-12 6.76,-8 11.1,-17.81 12.99,-29.43 z m 153.76,-63.71 -2,12.57 c -1.34,7.43 -5.14,10.67 -11.43,9.71 -1.71,-0.38 -3.7,-0.57 -5.99,-0.57 -7.62,0 -15.2,3.81 -22.72,11.38 -7.52,7.62 -13.14,19.28 -16.76,35 l -7.66,49.71 c -0.81,5.47 -2.23,9.05 -4.24,10.76 -1.99,1.71 -5.57,2.57 -10.72,2.57 h -6.23 c -5.34,0 -8.72,-0.86 -10.15,-2.57 -1.42,-1.71 -1.66,-5.23 -0.7,-10.58 l 19.18,-110.41 c 0.9,-5.23 2.43,-8.71 4.48,-10.42 2.09,-1.73 5.81,-2.57 11.13,-2.57 h 3.38 c 5.35,0 8.72,0.84 10.15,2.57 1.43,1.71 1.61,5.23 0.67,10.56 l -2.38,15.53 c 3.24,-9.77 8.75,-17.77 16.57,-24.1 7.8,-6.29 16.28,-9.43 25.42,-9.43 0.57,0 1.19,0.05 1.86,0.15 0.66,0.09 1.1,0.14 1.28,0.14 5.71,0.38 8,3.71 6.86,10 z m 55.94,80.27 h -28 c 0.58,16.77 9.73,25.15 27.44,25.15 9.71,0 19.7,-2.96 29.99,-8.86 4,-2.48 7,-3.76 9,-3.86 2,-0.09 3.95,1 5.85,3.29 l 6.29,7.42 c 4,4.58 1.62,9.81 -7.15,15.72 -14.47,9.91 -29.79,14.85 -45.99,14.85 -21.71,0 -37.71,-6.19 -47.99,-18.57 -10.29,-12.38 -13.34,-30.66 -9.14,-54.84 3.8,-21.34 12.14,-38.19 24.99,-50.57 12.86,-12.38 29.1,-18.58 48.72,-18.58 19.22,0 32.51,4.87 39.84,14.58 7.34,9.71 9.77,21.33 7.3,34.85 -2.29,13.33 -8.91,23.24 -19.86,29.71 -10.96,6.48 -24.72,9.71 -41.29,9.71 z m 11.44,-60.27 c -18.48,0 -30.48,11.43 -36,34.28 h 26.85 c 15.42,0 24.09,-5.63 25.99,-16.86 2.29,-11.61 -3.33,-17.42 -16.84,-17.42 z m 116.46,-12.24 -1.86,10.72 c 3.43,-8 8.9,-14.48 16.52,-19.52 7.62,-5.01 16.38,-7.54 26.23,-7.54 13.35,0 23.01,4.53 29.11,13.57 6.09,9.05 7.61,21.95 4.56,38.76 l -12.85,74.15 c -0.9,5.43 -2.39,8.99 -4.43,10.66 -2,1.71 -5.62,2.57 -10.76,2.57 h -6.62 c -5.18,0 -8.58,-0.91 -10.09,-2.72 -1.52,-1.8 -1.81,-5.28 -0.86,-10.43 l 11.66,-67.42 c 3.24,-18.65 -1.47,-28 -14.19,-28 -8.71,0 -16.33,3.4 -22.76,10.11 -6.43,6.76 -10.71,15.7 -12.76,26.9 l -10.33,58.56 c -0.95,5.28 -2.38,8.76 -4.43,10.43 -1.99,1.71 -5.61,2.57 -10.75,2.57 h -6.62 c -5.38,0 -8.82,-0.86 -10.24,-2.57 -1.43,-1.71 -1.67,-5.23 -0.71,-10.58 l 19.18,-110.41 c 0.9,-5.23 2.43,-8.71 4.52,-10.42 2.11,-1.73 5.87,-2.57 11.24,-2.57 h 6.63 c 5.13,0 8.46,0.84 9.89,2.57 1.43,1.71 1.67,5.23 0.72,10.61 z m 165.78,13.38 c -9.71,0 -17.89,3.77 -24.56,11.29 -6.66,7.52 -11.14,17.85 -13.43,31 -2.27,12.94 -1.28,22.99 3,30.13 4.29,7.14 11.19,10.71 20.72,10.71 5.53,0 12.47,-2.47 20.85,-7.42 3.81,-1.91 6.57,-2.87 8.28,-2.87 1.91,0 4.2,1.63 6.87,4.87 l 3.42,4 c 2.47,3.23 3.43,6.19 2.85,8.86 -0.38,2.09 -2.19,4.46 -5.42,7.14 -12.77,10.09 -26,15.13 -39.71,15.13 -20.96,0 -36.18,-6.37 -45.71,-19.13 -9.52,-12.77 -12.19,-30.86 -8,-54.28 3.81,-21.71 12.19,-38.67 25.13,-50.86 12.97,-12.18 28.97,-18.29 48,-18.29 15.44,0 28.19,4.77 38.29,14.29 2.66,2.68 3.71,5.05 3.14,7.14 -0.38,2.48 -2.29,5.25 -5.71,8.29 l -6.57,5.42 c -5.91,5.15 -11.15,5.73 -15.72,1.73 -5.14,-4.77 -10.37,-7.15 -15.72,-7.15 z m 75.99,-74.56 c 1.15,-6.29 4.06,-11.66 8.72,-16.14 4.67,-4.49 10.33,-6.72 16.99,-6.72 6.67,0 11.44,2.19 14.29,6.57 2.86,4.39 3.72,9.81 2.57,16.29 -0.94,6.29 -3.66,11.43 -8.14,15.42 -4.48,4 -10.05,6 -16.7,6 -6.68,0 -11.54,-2 -14.58,-6 -3.05,-3.99 -4.1,-9.13 -3.15,-15.42 z m -25.13,171.4 19.18,-110.41 c 0.9,-5.23 2.43,-8.71 4.52,-10.42 2.11,-1.73 5.87,-2.57 11.24,-2.57 h 6.63 c 5.13,0 8.47,0.84 9.89,2.57 1.43,1.71 1.67,5.23 0.72,10.61 l -19.43,110.37 c -0.95,5.28 -2.38,8.76 -4.43,10.43 -1.99,1.71 -5.61,2.57 -10.75,2.57 h -6.62 c -5.38,0 -8.82,-0.86 -10.24,-2.57 -1.43,-1.71 -1.67,-5.23 -0.71,-10.58 z m 204.82,-110.27 -19.7,110.56 c -0.96,5.34 -2.29,8.86 -4,10.57 -1.73,1.72 -5.15,2.57 -10.29,2.57 h -1.15 c -5.14,0 -8.52,-0.8 -10.13,-2.43 -1.63,-1.61 -2.72,-4.99 -3.3,-10.13 l -0.28,-8.57 c -10.47,15.8 -24.38,23.7 -41.71,23.7 -18.66,0 -32.28,-6.61 -40.85,-19.85 -8.58,-13.23 -10.67,-31.76 -6.29,-55.57 3.82,-20.76 11.86,-37.13 24.15,-49.13 12.28,-12 26.99,-18.01 44.14,-18.01 17.71,0 29.61,7.24 35.7,21.72 l 1.14,-5.43 c 0.77,-5.33 2.2,-8.85 4.29,-10.56 2.09,-1.73 5.81,-2.57 11.15,-2.57 h 6.28 c 5.32,0 8.72,0.84 10.14,2.57 1.43,1.71 1.67,5.23 0.71,10.56 z m -42.85,56 c 2.1,-11.8 1.1,-22 -3,-30.57 -4.09,-8.57 -11,-12.85 -20.71,-12.85 -9.33,0 -17.38,3.76 -24.14,11.28 -6.76,7.52 -11.38,18.23 -13.85,32.14 -2.49,13.91 -1.58,24.28 2.71,31.14 4.29,6.85 11.28,10.29 20.99,10.29 9.91,0 18.24,-4 25.01,-12 6.75,-8 11.09,-17.81 12.99,-29.43 z"
   id="path257"
   inkscape:connector-curvature="0"
   style="fill:#fefefe;fill-rule:nonzero" />
  <path
   class="fil1"
   d="m 11127.76,15342.87 24.29,-137.89 c 0.94,-5.15 2.38,-8.57 4.41,-10.29 1.98,-1.71 5.46,-2.58 10.41,-2.58 h 36.45 c 9.65,0 17.84,0.67 24.54,2 6.69,1.33 12.82,3.77 18.34,7.36 5.53,3.58 9.23,8.92 11.11,16.02 1.87,7.08 1.87,15.92 0,26.51 -3.28,18.08 -10.13,30.5 -20.58,37.29 -10.43,6.77 -24.38,10.16 -41.82,10.16 h -26.18 l -9.2,51.53 c -0.89,5.06 -2.25,8.46 -4.13,10.17 -1.86,1.71 -5.33,2.57 -10.47,2.57 h -6.74 c -4.95,0 -8.17,-0.86 -9.61,-2.57 -1.49,-1.71 -1.76,-5.15 -0.82,-10.28 z m 75.36,-119.9 h -22.2 l -6.73,37.87 h 22.16 c 8.41,0 14.71,-1.56 18.93,-4.68 4.21,-3.11 6.94,-8.03 8.18,-14.73 1.09,-6.7 0.07,-11.45 -3.04,-14.25 -3.12,-2.81 -8.89,-4.21 -17.3,-4.21 z m 85.07,119.9 21.26,-119.9 h -26.64 c -4.98,0 -8.17,-0.86 -9.57,-2.57 -1.41,-1.71 -1.72,-5.15 -0.95,-10.28 l 0.95,-5.14 c 0.93,-5.15 2.4,-8.57 4.44,-10.29 2.02,-1.71 5.53,-2.58 10.51,-2.58 h 83.24 c 4.99,0 8.19,0.87 9.58,2.58 1.4,1.72 1.64,5.14 0.7,10.29 l -0.94,5.14 c -0.77,5.13 -2.17,8.57 -4.19,10.28 -2.04,1.71 -5.54,2.57 -10.52,2.57 l -23.84,0.04 -21.5,119.97 c -0.94,5.06 -2.33,8.46 -4.28,10.17 -2,1.71 -5.55,2.57 -10.68,2.57 h -7.01 c -5.03,0 -8.27,-0.86 -9.74,-2.57 -1.48,-1.71 -1.75,-5.15 -0.82,-10.28 z m 89.59,-0.04 24.46,-137.85 c 0.94,-5.15 2.42,-8.57 4.49,-10.29 2.02,-1.71 5.52,-2.58 10.55,-2.58 h 67.35 c 4.98,0 8.17,0.87 9.59,2.58 1.4,1.72 1.62,5.14 0.69,10.29 l -0.93,5.14 c -0.78,5.13 -2.18,8.57 -4.22,10.28 -2.02,1.71 -5.52,2.57 -10.51,2.57 h -48.14 l -6.12,34.36 h 39.04 c 4.99,0 8.18,0.85 9.58,2.57 1.4,1.71 1.62,5.13 0.69,10.28 l -0.93,5.14 c -0.93,5.15 -2.42,8.57 -4.44,10.28 -2.02,1.72 -5.53,2.57 -10.52,2.57 h -38.86 l -6.55,36.69 h 50.25 c 4.97,0 8.17,0.87 9.58,2.58 1.4,1.72 1.63,5.14 0.69,10.29 l -0.93,5.14 c -0.93,5.13 -2.37,8.57 -4.32,10.28 -1.95,1.71 -5.42,2.57 -10.41,2.57 h -69.52 c -4.99,0 -8.26,-0.86 -9.74,-2.57 -1.47,-1.71 -1.75,-5.15 -0.82,-10.32 z"
   id="path259"
   inkscape:connector-curvature="0"
   style="fill:#fefefe;fill-rule:nonzero" />
  <path
   class="fil1"
   d="m 11992.23,15100.82 19.66,-111.66 c 0.48,-3.41 1.4,-5.67 2.75,-6.77 1.35,-1.1 3.71,-1.65 7.13,-1.65 h 28.1 c 7.35,0 13.62,0.55 18.82,1.65 5.2,1.1 9.85,3.07 13.97,5.88 4.1,2.81 6.85,6.91 8.25,12.31 1.42,5.38 1.44,12.06 0.1,20.01 -2.57,13.95 -7.96,23.69 -16.17,29.21 -8.2,5.51 -19.15,8.26 -32.87,8.26 h -19.84 l -7.49,42.68 c -0.65,3.47 -1.59,5.78 -2.88,6.91 -1.26,1.1 -3.62,1.65 -7.04,1.65 h -5.51 c -3.44,0 -5.6,-0.55 -6.52,-1.65 -0.92,-1.11 -1.07,-3.37 -0.46,-6.83 z m 57.21,-98.77 h -17.45 l -6.1,34.7 h 17.49 c 7.35,0 12.92,-1.37 16.72,-4.13 3.79,-2.75 6.23,-7.32 7.34,-13.68 1.1,-6.12 0.25,-10.47 -2.58,-13.05 -2.81,-2.57 -7.95,-3.84 -15.42,-3.84 z m 122.14,65 c -2.45,14.1 -7.96,24.95 -16.53,32.61 -8.58,7.65 -19.16,11.48 -31.77,11.48 -13.47,0 -23.36,-4.13 -29.67,-12.4 -6.3,-8.27 -8.11,-20.05 -5.41,-35.35 2.44,-14.09 7.96,-24.92 16.52,-32.51 8.58,-7.6 19.04,-11.39 31.41,-11.39 13.6,0 23.57,4.1 29.93,12.31 6.38,8.2 8.22,19.96 5.52,35.25 z m -62.08,-1.83 c -1.6,8.58 -0.98,15.25 1.84,20.02 2.81,4.78 7.35,7.17 13.59,7.17 6.36,0 11.82,-2.39 16.34,-7.17 4.54,-4.77 7.59,-11.44 9.19,-20.02 1.47,-8.44 0.76,-15.06 -2.12,-19.83 -2.87,-4.78 -7.49,-7.17 -13.87,-7.17 -6.24,0 -11.6,2.39 -16.07,7.17 -4.46,4.77 -7.43,11.39 -8.9,19.83 z m 135.21,-40.22 -1.29,8.07 c -0.86,4.78 -3.31,6.87 -7.35,6.25 -1.1,-0.24 -2.39,-0.37 -3.86,-0.37 -4.89,0 -9.76,2.46 -14.6,7.33 -4.83,4.89 -8.44,12.39 -10.77,22.5 l -4.93,31.96 c -0.51,3.52 -1.43,5.8 -2.71,6.91 -1.29,1.1 -3.59,1.65 -6.9,1.65 h -4 c -3.44,0 -5.61,-0.55 -6.53,-1.65 -0.92,-1.11 -1.06,-3.37 -0.45,-6.8 l 12.33,-70.98 c 0.58,-3.37 1.56,-5.6 2.87,-6.7 1.35,-1.11 3.74,-1.66 7.17,-1.66 h 2.18 c 3.42,0 5.59,0.55 6.51,1.66 0.92,1.1 1.05,3.36 0.43,6.79 l -1.53,9.98 c 2.08,-6.27 5.64,-11.42 10.66,-15.49 5.02,-4.04 10.46,-6.06 16.34,-6.06 0.36,0 0.76,0.03 1.2,0.08 0.42,0.07 0.69,0.1 0.82,0.1 3.67,0.24 5.14,2.39 4.41,6.43 z m 41.07,-19.06 -2.75,15.57 h 11.66 c 3.28,0 5.35,0.55 6.27,1.66 0.92,1.1 1.15,3.36 0.65,6.79 l -0.55,2.93 c -0.49,3.31 -1.44,5.54 -2.81,6.71 -1.41,1.16 -3.77,1.74 -7.04,1.74 h -11.67 l -6.24,35.11 c -1.6,9.64 0.48,14.49 6.21,14.49 0.12,0 2.72,-0.18 7.81,-0.55 3.03,-0.26 4.19,1.65 3.45,5.68 l -1.47,8.09 c -0.61,3.8 -2.87,5.88 -6.78,6.24 -1.97,0.24 -5.03,0.37 -9.19,0.37 -18.25,0 -25.63,-9.71 -22.13,-29.12 l 7.25,-40.31 h -4.23 c -3.29,0 -5.44,-0.58 -6.42,-1.74 -0.99,-1.17 -1.17,-3.4 -0.55,-6.71 l 0.55,-2.93 c 0.48,-3.3 1.43,-5.54 2.84,-6.71 1.45,-1.16 3.81,-1.74 7.14,-1.74 h 4.23 l 8.1,-14.51 c 0.12,-0.24 0.44,-0.74 0.92,-1.47 0.49,-0.74 0.86,-1.25 1.14,-1.56 0.24,-0.31 0.58,-0.76 1,-1.38 0.43,-0.61 0.77,-1.06 1.01,-1.37 0.25,-0.32 0.59,-0.71 1.02,-1.19 0.42,-0.5 0.82,-0.86 1.18,-1.1 0.37,-0.26 0.78,-0.5 1.2,-0.74 0.43,-0.25 0.87,-0.44 1.32,-0.55 0.42,-0.13 0.89,-0.18 1.37,-0.18 h 1.29 c 2.33,0 3.77,0.55 4.32,1.65 0.55,1.1 0.52,3.39 -0.1,6.83 z m 107.66,24.02 -12.67,71.07 c -0.61,3.44 -1.47,5.7 -2.58,6.8 -1.1,1.1 -3.3,1.65 -6.6,1.65 h -0.73 c -3.31,0 -5.49,-0.52 -6.53,-1.55 -1.03,-1.05 -1.74,-3.22 -2.11,-6.53 l -0.18,-5.51 c -6.74,10.16 -15.68,15.25 -26.82,15.25 -12,0 -20.76,-4.26 -26.26,-12.76 -5.51,-8.51 -6.85,-20.43 -4.04,-35.72 2.45,-13.36 7.62,-23.89 15.52,-31.59 7.9,-7.72 17.36,-11.58 28.37,-11.58 11.39,0 19.04,4.65 22.97,13.95 l 0.73,-3.48 c 0.48,-3.43 1.4,-5.69 2.74,-6.79 1.36,-1.11 3.75,-1.66 7.17,-1.66 h 4.04 c 3.44,0 5.6,0.55 6.52,1.66 0.92,1.1 1.07,3.36 0.46,6.79 z m -27.54,35.99 c 1.34,-7.59 0.7,-14.13 -1.94,-19.65 -2.63,-5.51 -7.07,-8.26 -13.32,-8.26 -5.99,0 -11.16,2.41 -15.51,7.26 -4.34,4.83 -7.31,11.72 -8.91,20.65 -1.6,8.95 -1,15.62 1.75,20.03 2.75,4.41 7.25,6.61 13.5,6.61 6.36,0 11.72,-2.57 16.07,-7.71 4.34,-5.15 7.13,-11.45 8.36,-18.93 z m 35.44,34.9 21.12,-120.75 c 0.61,-3.49 1.6,-5.8 2.94,-6.9 1.34,-1.1 3.73,-1.64 7.17,-1.64 h 4.22 c 3.31,0 5.42,0.61 6.34,1.8 0.91,1.2 1.07,3.67 0.45,7.45 l -21.15,119.98 c -0.6,3.49 -1.55,5.78 -2.88,6.86 -1.29,1.1 -3.6,1.65 -6.91,1.65 h -4.26 c -3.46,0 -5.66,-0.55 -6.58,-1.65 -0.92,-1.11 -1.06,-3.37 -0.46,-6.8 z m 146.08,8.45 h -0.73 c -3.44,0 -5.7,-0.55 -6.8,-1.65 -1.1,-1.11 -1.71,-3.31 -1.84,-6.62 l 0.19,-4.59 c -6.73,9.79 -15.55,14.7 -26.45,14.7 -12.13,0 -20.93,-4.13 -26.44,-12.4 -5.52,-8.27 -6.92,-19.8 -4.23,-34.63 2.57,-13.82 7.9,-24.72 15.98,-32.68 8.08,-7.97 17.76,-11.94 29.02,-11.94 10.77,0 18.05,4.62 21.85,13.87 l 9.4,-53.42 c 0.58,-3.28 1.56,-5.48 2.97,-6.64 1.4,-1.16 3.73,-1.74 7.01,-1.74 h 4.19 c 3.28,0 5.35,0.54 6.27,1.64 0.92,1.1 1.15,3.38 0.65,6.77 l -21.3,120.85 c -0.62,3.46 -1.57,5.72 -2.88,6.83 -1.34,1.1 -3.62,1.65 -6.86,1.65 z m -5.2,-43.35 0.19,-1.06 c 1.21,-7.38 0.48,-13.68 -2.21,-18.95 -2.7,-5.26 -7.11,-7.9 -13.23,-7.9 -6.12,0 -11.35,2.41 -15.7,7.26 -4.34,4.83 -7.31,11.72 -8.91,20.65 -1.59,8.95 -1.04,15.62 1.66,20.03 2.7,4.41 7.16,6.61 13.41,6.61 6.36,0 11.77,-2.57 16.25,-7.71 4.47,-5.15 7.31,-11.45 8.54,-18.93 z m 75.49,10.66 h -18 c 0.36,10.77 6.24,16.17 17.64,16.17 6.23,0 12.66,-1.91 19.28,-5.7 2.57,-1.6 4.49,-2.42 5.78,-2.49 1.28,-0.05 2.54,0.65 3.77,2.12 l 4.03,4.78 c 2.57,2.93 1.04,6.31 -4.58,10.09 -9.32,6.38 -19.17,9.56 -29.57,9.56 -13.97,0 -24.25,-3.99 -30.86,-11.95 -6.61,-7.95 -8.58,-19.7 -5.88,-35.26 2.45,-13.71 7.81,-24.54 16.08,-32.5 8.25,-7.97 18.69,-11.94 31.3,-11.94 12.37,0 20.91,3.13 25.63,9.37 4.71,6.24 6.27,13.71 4.68,22.41 -1.47,8.56 -5.73,14.94 -12.77,19.09 -7.04,4.17 -15.88,6.25 -26.53,6.25 z m 7.34,-38.76 c -11.87,0 -19.59,7.35 -23.14,22.05 h 17.26 c 9.92,0 15.49,-3.62 16.72,-10.84 1.47,-7.46 -2.15,-11.21 -10.84,-11.21 z"
   id="path261"
   inkscape:connector-curvature="0"
   style="fill:#fefefe;fill-rule:nonzero" />
 </g>
</svg>