<?xml version="1.0" encoding="UTF-8" standalone="no"?>
<!-- Creator: CorelDRAW 2018 (64 Bit) -->

<svg
   xmlns:dc="http://purl.org/dc/elements/1.1/"
   xmlns:cc="http://creativecommons.org/ns#"
   xmlns:rdf="http://www.w3.org/1999/02/22-rdf-syntax-ns#"
   xmlns:svg="http://www.w3.org/2000/svg"
   xmlns="http://www.w3.org/2000/svg"
   xmlns:sodipodi="http://sodipodi.sourceforge.net/DTD/sodipodi-0.dtd"
   xmlns:inkscape="http://www.inkscape.org/namespaces/inkscape"
   xml:space="preserve"
   width="146"
   height="48"
   version="1.1"
   style="clip-rule:evenodd;fill-rule:evenodd;image-rendering:optimizeQuality;shape-rendering:geometricPrecision;text-rendering:geometricPrecision"
   viewBox="0 0 3862.9166 1269.9999"
   id="svg296"
   sodipodi:docname="grc_texto.svg"
   inkscape:version="0.92.4 (5da689c313, 2019-01-14)"><metadata
   id="metadata300"><rdf:RDF><cc:Work
       rdf:about=""><dc:format>image/svg+xml</dc:format><dc:type
         rdf:resource="http://purl.org/dc/dcmitype/StillImage" /><dc:title></dc:title></cc:Work></rdf:RDF></metadata><sodipodi:namedview
   pagecolor="#ffffff"
   bordercolor="#666666"
   borderopacity="1"
   objecttolerance="10"
   gridtolerance="10"
   guidetolerance="10"
   inkscape:pageopacity="0"
   inkscape:pageshadow="2"
   inkscape:window-width="1920"
   inkscape:window-height="1017"
   id="namedview298"
   showgrid="false"
   fit-margin-top="0"
   fit-margin-left="0"
   fit-margin-right="0"
   fit-margin-bottom="0"
   inkscape:zoom="9.444665"
   inkscape:cx="78.672686"
   inkscape:cy="25.308584"
   inkscape:window-x="-8"
   inkscape:window-y="-8"
   inkscape:window-maximized="1"
   inkscape:current-layer="svg296"
   units="px" />
 <defs
   id="defs285">
  <style
   type="text/css"
   id="style283">
   <![CDATA[
    .fil0 {fill:white;fill-rule:nonzero}
   ]]>
  </style>
 </defs>
 <g
   id="Capa_x0020_1"
   transform="matrix(3.1162189,0,0,3.1162189,-10.501658,-22.10903)">
  <metadata
   id="CorelCorpID_0Corel-Layer" />
  <g
   id="_1269768671184">
   <path
   class="fil0"
   d="M 3.49,58 V 46.57 c 0,-12.04 3.08,-21.44 9.25,-28.2 6.18,-6.75 14.72,-10.13 25.63,-10.13 10.9,0 19.65,3.38 26.25,10.13 4.65,4.77 6.98,11.91 6.98,21.44 H 55.11 c 0,-10.3 -5.37,-15.46 -16.11,-15.46 -3.21,0 -5.94,0.63 -8.18,1.89 -2.24,1.25 -3.91,2.7 -5.01,4.35 -1.1,1.64 -1.95,4.07 -2.54,7.27 -0.59,3.21 -0.93,5.89 -1.01,8.06 -0.09,2.17 -0.13,5.07 -0.13,8.71 0,3.63 0.02,6.08 0.06,7.34 0.05,1.25 0.17,3.29 0.38,6.1 0.22,2.82 0.55,4.83 1.02,6.05 0.46,1.21 1.14,2.77 2.03,4.67 0.89,1.91 2.01,3.25 3.36,4.03 3.47,2.25 7.4,3.38 11.79,3.38 7.36,0 12.56,-3.21 15.6,-9.62 V 70.35 H 45.47 V 55.27 h 26 V 83.21 C 68.85,89.53 64.7,94.3 59.04,97.5 c -5.67,3.21 -12.09,4.81 -19.28,4.81 -12.77,0 -22.01,-3.66 -27.71,-10.98 C 6.34,84.01 3.49,72.9 3.49,58 Z M 156.07,50.99 V 58 c 0,15.51 -2.86,26.77 -8.56,33.79 -5.71,7.01 -14.87,10.52 -27.46,10.52 -12.6,0 -21.71,-3.51 -27.34,-10.52 -5.62,-7.02 -8.43,-18.41 -8.43,-34.18 v -6.75 c 0,-14.38 2.85,-25.08 8.56,-32.1 5.71,-7.01 14.75,-10.52 27.14,-10.52 12.39,0 21.5,3.55 27.33,10.65 5.84,7.11 8.76,17.8 8.76,32.1 z m -17.63,6.62 v -4.8 c 0,-8.32 -1.02,-14.95 -3.05,-19.88 -2.37,-5.72 -7.44,-8.58 -15.22,-8.58 -7.86,0 -12.98,2.86 -15.34,8.58 -1.95,4.67 -2.92,11.3 -2.92,19.88 v 4.8 c 0,11.18 1.52,18.71 4.56,22.61 1.19,1.65 2.94,3.06 5.27,4.22 2.32,1.17 5.11,1.76 8.37,1.76 3.25,0 6.02,-0.56 8.31,-1.69 2.28,-1.13 4.06,-2.51 5.32,-4.16 1.27,-1.64 2.24,-3.81 2.92,-6.49 1.18,-4.25 1.78,-9.66 1.78,-16.25 z m 98.55,17.28 c 0,8.58 -2.27,15.16 -6.79,19.75 -4.52,4.6 -10.84,6.89 -18.96,6.89 h -12.18 c -9.97,0 -17.06,-1.77 -21.24,-5.33 -4.19,-3.55 -6.28,-9.7 -6.28,-18.45 V 9.02 h 38.18 c 8.62,0 15.11,2.21 19.47,6.63 4.35,4.41 6.53,10.65 6.53,18.71 0,4.67 -1.16,8.66 -3.49,11.95 -2.33,3.29 -4.88,5.63 -7.67,7.02 8.28,3.98 12.43,11.17 12.43,21.56 z M 208.32,45.14 c 6.51,0 9.77,-3.33 9.77,-10 0,-6.67 -3.26,-10.01 -9.77,-10.01 h -19.15 v 20.01 z m 11.04,28.85 c 0,-4.16 -0.72,-7.3 -2.16,-9.42 -1.44,-2.13 -4.02,-3.19 -7.74,-3.19 h -20.29 v 14.55 c 0,3.56 0.87,6.02 2.6,7.41 1.73,1.39 4.59,2.08 8.56,2.08 h 9.13 c 6.6,0 9.9,-3.81 9.9,-11.43 z m 53.27,27.54 H 255 V 9.02 h 17.63 z m 80.54,0 H 321.2 c -10.14,0 -17.27,-1.8 -21.37,-5.39 -4.1,-3.6 -6.15,-9.94 -6.15,-19.04 V 9.02 h 59.49 v 16.11 h -41.86 v 21.7 h 29.3 l -1.27,16.11 H 311.31 V 75.8 c 0,3.64 0.8,6.15 2.41,7.54 1.61,1.39 4.53,2.08 8.75,2.08 h 30.7 z m 85.61,0 h -20.42 l -17.63,-34.3 h -12.68 v 34.3 H 370.42 V 28.9 c 0,-6.93 1.56,-11.98 4.69,-15.14 3.13,-3.16 8.37,-4.74 15.73,-4.74 h 14.96 c 8.97,0 16.09,2.79 21.38,8.38 5.28,5.59 7.92,12.67 7.92,21.24 0,6.24 -1.58,11.63 -4.75,16.18 -3.17,4.55 -7.09,7.69 -11.74,9.42 z M 404.66,52.16 c 3.72,0 6.79,-1.32 9.2,-3.97 2.41,-2.64 3.61,-5.93 3.61,-9.87 0,-3.94 -1.16,-7.13 -3.49,-9.55 -2.32,-2.43 -5.43,-3.64 -9.32,-3.64 h -8.75 c -5.24,0 -7.86,2.73 -7.86,8.19 V 52.16 Z M 523.76,9.02 v 83.16 c 0,2.86 -0.85,5.3 -2.54,7.34 -1.69,2.03 -3.68,3.05 -5.96,3.05 -5.83,0 -10.61,-3.46 -14.33,-10.39 l -31.2,-50.03 v 59.38 H 452.1 V 9.02 h 16.99 l 37.04,60.55 V 9.02 Z m 84.47,41.97 V 58 c 0,15.51 -2.85,26.77 -8.56,33.79 -5.71,7.01 -14.86,10.52 -27.46,10.52 -12.6,0 -21.71,-3.51 -27.33,-10.52 -5.63,-7.02 -8.44,-18.41 -8.44,-34.18 v -6.75 c 0,-14.38 2.86,-25.08 8.56,-32.1 5.71,-7.01 14.76,-10.52 27.15,-10.52 12.38,0 21.49,3.55 27.33,10.65 5.83,7.11 8.75,17.8 8.75,32.1 z m -17.63,6.62 v -4.8 c 0,-8.32 -1.01,-14.95 -3.04,-19.88 -2.37,-5.72 -7.44,-8.58 -15.22,-8.58 -7.87,0 -12.98,2.86 -15.35,8.58 -1.95,4.67 -2.92,11.3 -2.92,19.88 v 4.8 c 0,11.18 1.52,18.71 4.57,22.61 1.18,1.65 2.94,3.06 5.26,4.22 2.33,1.17 5.12,1.76 8.37,1.76 3.26,0 6.03,-0.56 8.31,-1.69 2.28,-1.13 4.06,-2.51 5.33,-4.16 1.27,-1.64 2.24,-3.81 2.91,-6.49 1.19,-4.25 1.78,-9.66 1.78,-16.25 z m 130.89,43.92 h -20.42 l -17.63,-34.3 h -12.68 v 34.3 H 653.13 V 28.9 c 0,-6.93 1.56,-11.98 4.69,-15.14 3.13,-3.16 8.37,-4.74 15.73,-4.74 h 14.97 c 8.96,0 16.08,2.79 21.37,8.38 5.28,5.59 7.92,12.67 7.92,21.24 0,6.24 -1.58,11.63 -4.75,16.18 -3.17,4.55 -7.08,7.69 -11.73,9.42 z M 687.37,52.16 c 3.73,0 6.79,-1.32 9.2,-3.97 2.41,-2.64 3.61,-5.93 3.61,-9.87 0,-3.94 -1.16,-7.13 -3.48,-9.55 -2.33,-2.43 -5.44,-3.64 -9.33,-3.64 h -8.75 c -5.24,0 -7.86,2.73 -7.86,8.19 v 18.84 z m 108.19,49.37 H 763.6 c -10.15,0 -17.27,-1.8 -21.37,-5.39 -4.1,-3.6 -6.15,-9.94 -6.15,-19.04 V 9.02 h 59.48 v 16.11 h -41.85 v 21.7 h 29.3 l -1.27,16.11 H 753.71 V 75.8 c 0,3.64 0.8,6.15 2.41,7.54 1.6,1.39 4.52,2.08 8.75,2.08 h 30.69 z M 807.23,58 V 46.57 c 0,-12.04 3.09,-21.44 9.26,-28.2 6.17,-6.75 14.71,-10.13 25.62,-10.13 10.91,0 19.66,3.38 26.26,10.13 4.65,4.77 6.97,11.91 6.97,21.44 h -16.49 c 0,-10.3 -5.37,-15.46 -16.1,-15.46 -3.22,0 -5.94,0.63 -8.18,1.89 -2.25,1.25 -3.92,2.7 -5.01,4.35 -1.1,1.64 -1.95,4.07 -2.54,7.27 -0.59,3.21 -0.93,5.89 -1.02,8.06 -0.08,2.17 -0.12,5.07 -0.12,8.71 0,3.63 0.02,6.08 0.06,7.34 0.04,1.25 0.17,3.29 0.38,6.1 0.21,2.82 0.55,4.83 1.02,6.05 0.46,1.21 1.14,2.77 2.02,4.67 0.89,1.91 2.01,3.25 3.37,4.03 3.46,2.25 7.39,3.38 11.79,3.38 7.36,0 12.56,-3.21 15.6,-9.62 V 70.35 H 849.21 V 55.27 h 26.01 v 27.94 c -2.63,6.32 -6.77,11.09 -12.43,14.29 -5.67,3.21 -12.1,4.81 -19.28,4.81 -12.77,0 -22.01,-3.66 -27.72,-10.98 -5.7,-7.32 -8.56,-18.43 -8.56,-33.33 z m 104.01,43.53 H 893.61 V 9.02 h 17.63 z M 998.5,50.99 V 58 c 0,15.51 -2.85,26.77 -8.56,33.79 -5.71,7.01 -14.86,10.52 -27.46,10.52 -12.6,0 -21.71,-3.51 -27.33,-10.52 -5.63,-7.02 -8.44,-18.41 -8.44,-34.18 v -6.75 c 0,-14.38 2.85,-25.08 8.56,-32.1 5.71,-7.01 14.76,-10.52 27.14,-10.52 12.39,0 21.5,3.55 27.34,10.65 5.83,7.11 8.75,17.8 8.75,32.1 z m -17.63,6.62 v -4.8 c 0,-8.32 -1.02,-14.95 -3.05,-19.88 -2.36,-5.72 -7.44,-8.58 -15.21,-8.58 -7.87,0 -12.98,2.86 -15.35,8.58 -1.95,4.67 -2.92,11.3 -2.92,19.88 v 4.8 c 0,11.18 1.52,18.71 4.57,22.61 1.18,1.65 2.94,3.06 5.26,4.22 2.33,1.17 5.12,1.76 8.37,1.76 3.26,0 6.03,-0.56 8.31,-1.69 2.28,-1.13 4.06,-2.51 5.33,-4.16 1.26,-1.64 2.24,-3.81 2.91,-6.49 1.19,-4.25 1.78,-9.66 1.78,-16.25 z M 1084.36,9.02 v 83.16 c 0,2.86 -0.84,5.3 -2.53,7.34 -1.69,2.03 -3.68,3.05 -5.96,3.05 -5.84,0 -10.61,-3.46 -14.34,-10.39 l -31.2,-50.03 v 59.38 H 1012.7 V 9.02 h 17 l 37.04,60.55 V 9.02 Z m 86.76,92.51 h -18.39 l -5.07,-15.98 h -30.32 l -4.94,15.98 H 1094 l 28.92,-84.71 c 1.27,-2.95 2.69,-4.99 4.25,-6.11 1.57,-1.13 3.49,-1.69 5.77,-1.69 2.29,0 4.12,0.52 5.52,1.56 1.39,1.04 2.64,3.12 3.74,6.24 z m -27.52,-31.18 -10.66,-36.64 -11.16,36.64 z m 95.63,31.18 h -26.89 c -10.15,0 -17.48,-2.01 -22.01,-6.04 -4.52,-4.03 -6.78,-10.59 -6.78,-19.69 V 9.02 h 17.63 V 75.8 c 0,3.64 0.8,6.15 2.41,7.54 1.6,1.39 4.52,2.08 8.75,2.08 h 26.89 z"
   id="path288"
   inkscape:connector-curvature="0"
   style="fill:#ffffff;fill-rule:nonzero" />
   <path
   class="fil0"
   d="m 91.16,241.51 h 28.04 c 0,20.19 -4.93,35.7 -14.78,46.53 -9.85,10.84 -23.76,16.25 -41.72,16.25 -39.56,0 -59.33,-23.82 -59.33,-71.46 v -13.36 c 0,-37.55 10.14,-61.07 30.42,-70.57 7.97,-3.86 17.6,-5.79 28.91,-5.79 16.51,0 29.95,4.64 40.31,13.91 10.36,9.28 15.54,22.67 15.54,40.19 H 90.3 c -1.6,-8.76 -4.42,-15.36 -8.48,-19.82 -4.06,-4.45 -10.43,-6.67 -19.12,-6.67 -10.15,0 -17.68,3.26 -22.61,9.79 -3.47,4.6 -5.5,12.47 -6.08,23.6 -0.29,3.56 -0.44,8.39 -0.44,14.47 v 13.8 c 0,17.07 2.32,28.72 6.96,34.96 4.78,6.23 12.2,9.35 22.27,9.35 10.07,0 17.03,-2.86 20.87,-8.57 3.84,-5.72 6.33,-14.59 7.49,-26.61 z m 171.04,61.45 h -31.51 l -8.7,-27.38 h -51.94 l -8.47,27.38 H 130.06 L 179.61,157.8 c 2.18,-5.04 4.6,-8.53 7.28,-10.46 2.68,-1.93 5.98,-2.9 9.89,-2.9 3.91,0 7.07,0.9 9.46,2.68 2.39,1.78 4.52,5.34 6.41,10.68 z m -47.16,-53.43 -18.26,-62.78 -19.12,62.78 z M 362.6,144.44 v 101.97 c 0,21.22 -4.27,36.18 -12.82,44.86 -8.55,8.68 -20.94,13.02 -37.16,13.02 -10.44,0 -19.17,-1.4 -26.19,-4.23 -7.03,-2.82 -13.51,-7.27 -19.45,-13.35 l 16.95,-18.93 c 2.46,2.53 6.19,4.64 11.19,6.35 5,1.71 10.72,2.56 17.17,2.56 6.45,0 11.41,-1.6 14.89,-4.79 3.47,-3.19 5.21,-9.16 5.21,-17.92 V 144.44 Z m 149.3,158.52 h -31.51 l -8.69,-27.38 h -51.94 l -8.48,27.38 H 379.77 L 429.32,157.8 c 2.17,-5.04 4.6,-8.53 7.28,-10.46 2.68,-1.93 5.97,-2.9 9.89,-2.9 3.91,0 7.06,0.9 9.45,2.68 2.39,1.78 4.53,5.34 6.41,10.68 z m -47.16,-53.43 -18.25,-62.78 -19.13,62.78 z m 182.77,-41.19 -27.82,60.11 c -4.05,8.02 -9.09,12.02 -15.1,12.02 -6.01,0 -11.05,-4.23 -15.11,-12.69 l -28.25,-59.44 v 94.62 H 531.02 V 144.44 h 29.78 l 43.68,91.51 43.46,-91.51 h 29.78 v 158.52 h -30.21 z m 179.29,94.62 h -31.51 l -8.69,-27.38 h -51.94 l -8.48,27.38 H 694.67 L 744.22,157.8 c 2.17,-5.04 4.6,-8.53 7.28,-10.46 2.68,-1.93 5.97,-2.9 9.89,-2.9 3.91,0 7.06,0.9 9.45,2.68 2.39,1.78 4.53,5.34 6.41,10.68 z m -47.16,-53.43 -18.25,-62.78 -19.13,62.78 z m 185.59,53.43 h -34.98 l -30.21,-58.78 h -21.73 v 58.78 H 848.1 V 178.51 c 0,-11.88 2.68,-20.52 8.04,-25.94 5.36,-5.42 14.34,-8.13 26.95,-8.13 h 25.64 c 15.36,0 27.57,4.79 36.62,14.36 9.06,9.58 13.58,21.71 13.58,36.4 0,10.69 -2.71,19.93 -8.15,27.72 -5.43,7.79 -12.13,13.17 -20.1,16.14 z m -58.45,-84.6 c 6.37,0 11.62,-2.26 15.75,-6.79 4.13,-4.53 6.2,-10.17 6.2,-16.92 0,-6.76 -2,-12.21 -5.98,-16.36 -3.99,-4.16 -9.31,-6.24 -15.97,-6.24 h -15 c -8.98,0 -13.47,4.68 -13.47,14.03 v 32.28 z m 161.68,23.15 h 28.04 c 0,20.19 -4.93,35.7 -14.78,46.53 -9.85,10.84 -23.76,16.25 -41.73,16.25 -39.55,0 -59.33,-23.82 -59.33,-71.46 v -13.36 c 0,-37.55 10.15,-61.07 30.43,-70.57 7.97,-3.86 17.6,-5.79 28.9,-5.79 16.52,0 29.96,4.64 40.32,13.91 10.36,9.28 15.54,22.67 15.54,40.19 h -28.26 c -1.59,-8.76 -4.42,-15.36 -8.47,-19.82 -4.06,-4.45 -10.43,-6.67 -19.13,-6.67 -10.14,0 -17.67,3.26 -22.6,9.79 -3.47,4.6 -5.5,12.47 -6.08,23.6 -0.29,3.56 -0.44,8.39 -0.44,14.47 v 13.8 c 0,17.07 2.32,28.72 6.96,34.96 4.78,6.23 12.2,9.35 22.27,9.35 10.07,0 17.03,-2.86 20.87,-8.57 3.83,-5.72 6.33,-14.59 7.49,-26.61 z m 171.04,61.45 h -31.52 l -8.69,-27.38 h -51.94 l -8.47,27.38 h -31.52 l 49.55,-145.16 c 2.18,-5.04 4.6,-8.53 7.28,-10.46 2.68,-1.93 5.98,-2.9 9.89,-2.9 3.91,0 7.07,0.9 9.46,2.68 2.39,1.78 4.52,5.34 6.41,10.68 z m -47.16,-53.43 -18.26,-62.78 -19.12,62.78 z"
   id="path290"
   inkscape:connector-curvature="0"
   style="fill:#ffffff;fill-rule:nonzero" />
   <path
   class="fil0"
   d="m 502.71,362.15 h 8.2 l 12.61,39.73 h -6.78 l -2.99,-9.42 h -14.03 l -2.95,9.42 h -6.67 z m 9.46,24.34 -5.47,-18.63 -5.46,18.63 z M 552,401.88 c -3.12,0 -5.35,-0.75 -6.7,-2.26 -1.35,-1.51 -1.99,-4.05 -1.92,-7.64 l 0.21,-13.57 h -4.41 v -4.31 l 4.62,-1.07 0.95,-8.08 h 5.09 v 8.08 h 7.15 v 5.38 h -7.15 v 13.51 c 0,1.69 0.31,2.87 0.92,3.53 0.62,0.66 1.41,1.05 2.39,1.16 l 3.53,0.37 v 4.9 z m 17.92,0.32 c -2.63,0 -4.65,-0.75 -6.07,-2.26 -1.42,-1.5 -2.13,-3.67 -2.13,-6.51 v -20.4 h 6.52 v 18.46 c 0,1.8 0.39,3.04 1.18,3.74 0.79,0.7 1.99,1.05 3.6,1.05 2.45,0 4.73,-0.77 6.83,-2.31 v -20.94 h 6.51 v 28.85 h -5.3 l -1.21,-3.01 c -3.36,2.22 -6.68,3.33 -9.93,3.33 z m 46.87,0 c -1.86,0 -3.89,-0.09 -6.1,-0.29 -2.2,-0.2 -3.8,-0.48 -4.78,-0.84 v -3.93 h 12.14 c 1.44,0 2.48,-0.19 3.13,-0.59 0.64,-0.39 0.97,-1.2 0.97,-2.42 v -1.02 c 0,-0.97 -0.31,-1.7 -0.92,-2.18 -0.61,-0.49 -1.6,-0.73 -2.97,-0.73 H 614 c -5.67,0 -8.51,-2.53 -8.51,-7.59 v -1.62 c 0,-2.79 0.82,-4.87 2.47,-6.21 1.65,-1.35 4.43,-2.02 8.35,-2.02 1.58,0 3.39,0.12 5.44,0.35 2.05,0.23 3.64,0.49 4.76,0.78 v 3.93 h -11.46 c -1.36,0 -2.37,0.24 -3.02,0.73 -0.64,0.48 -0.97,1.3 -0.97,2.44 v 1.03 c 0,1.11 0.33,1.85 1,2.23 0.66,0.38 1.72,0.57 3.15,0.57 h 4.36 c 2.7,0 4.73,0.64 6.1,1.94 1.36,1.29 2.05,3.12 2.05,5.49 v 2.36 c 0,2.8 -0.91,4.77 -2.74,5.9 -1.82,1.13 -4.55,1.69 -8.19,1.69 z m 27.85,-0.05 c -3.12,0 -5.56,-0.44 -7.33,-1.32 -1.77,-0.88 -3.05,-2.37 -3.84,-4.47 -0.79,-2.1 -1.18,-5.07 -1.18,-8.91 0,-3.91 0.38,-6.92 1.13,-9.04 0.75,-2.12 2,-3.61 3.73,-4.47 1.73,-0.86 4.18,-1.29 7.33,-1.29 2.77,0 4.96,0.29 6.57,0.86 1.61,0.58 2.78,1.57 3.52,2.99 0.74,1.42 1.1,3.4 1.1,5.95 0,2.65 -0.74,4.56 -2.23,5.7 -1.49,1.15 -3.65,1.73 -6.49,1.73 h -8.25 c 0.07,1.86 0.32,3.31 0.74,4.33 0.42,1.02 1.16,1.77 2.23,2.23 1.07,0.47 2.62,0.7 4.65,0.7 h 8.51 v 3.93 c -1.89,0.36 -3.58,0.63 -5.07,0.81 -1.49,0.18 -3.19,0.27 -5.12,0.27 z m 1.68,-16.31 c 1.26,0 2.17,-0.25 2.73,-0.75 0.56,-0.51 0.84,-1.39 0.84,-2.64 0,-1.87 -0.4,-3.16 -1.21,-3.88 -0.8,-0.72 -2.2,-1.07 -4.2,-1.07 -1.51,0 -2.67,0.24 -3.49,0.72 -0.83,0.49 -1.42,1.32 -1.79,2.51 -0.37,1.18 -0.55,2.88 -0.55,5.11 z m 15.13,-12.81 h 5.05 l 1.47,4.63 c 1.23,-1.58 2.53,-2.81 3.91,-3.69 1.39,-0.88 2.96,-1.32 4.71,-1.32 0.84,0 1.63,0.11 2.36,0.32 v 6.79 c -1.33,-0.15 -2.4,-0.22 -3.2,-0.22 -1.65,0 -3.07,0.28 -4.26,0.84 -1.19,0.55 -2.37,1.44 -3.52,2.66 v 18.84 h -6.52 z m 19.5,0 h 6.67 l 7.04,22.66 7.2,-22.66 h 6.62 l -10.24,28.85 h -7.47 z m 32.47,-4.58 c -0.28,0 -0.51,-0.09 -0.71,-0.27 -0.19,-0.18 -0.29,-0.41 -0.29,-0.7 v -4.89 c 0,-0.33 0.09,-0.59 0.27,-0.79 0.17,-0.19 0.42,-0.29 0.73,-0.29 h 4.94 c 0.32,0 0.55,0.1 0.71,0.29 0.16,0.2 0.24,0.46 0.24,0.79 v 4.89 c 0,0.65 -0.32,0.97 -0.95,0.97 z m -0.84,4.58 h 6.52 v 28.85 h -6.52 z m 23.96,29.17 c -3.71,0 -6.57,-1.08 -8.59,-3.25 -2.01,-2.17 -3.02,-5.97 -3.02,-11.39 0,-3.84 0.46,-6.84 1.37,-9.01 0.91,-2.18 2.21,-3.7 3.91,-4.58 1.7,-0.88 3.86,-1.32 6.49,-1.32 3.36,0 6.57,0.38 9.62,1.13 v 3.82 h -7.67 c -1.76,0 -3.15,0.28 -4.18,0.84 -1.04,0.55 -1.81,1.55 -2.31,2.99 -0.51,1.43 -0.77,3.48 -0.77,6.13 0,2.62 0.26,4.62 0.77,6 0.5,1.39 1.27,2.33 2.31,2.83 1.03,0.5 2.44,0.75 4.23,0.75 h 8.04 v 3.77 c -1.37,0.36 -2.97,0.67 -4.81,0.92 -1.84,0.25 -3.64,0.37 -5.39,0.37 z m 15.82,-33.75 c -0.28,0 -0.52,-0.09 -0.71,-0.27 -0.19,-0.18 -0.29,-0.41 -0.29,-0.7 v -4.89 c 0,-0.33 0.09,-0.59 0.26,-0.79 0.18,-0.19 0.43,-0.29 0.74,-0.29 h 4.94 c 0.31,0 0.55,0.1 0.71,0.29 0.16,0.2 0.24,0.46 0.24,0.79 v 4.89 c 0,0.65 -0.32,0.97 -0.95,0.97 z m -0.84,4.58 h 6.52 v 28.85 h -6.52 z m 24.96,29.12 c -3.05,0 -5.48,-0.45 -7.3,-1.35 -1.83,-0.89 -3.17,-2.4 -4.02,-4.52 -0.86,-2.11 -1.29,-5.07 -1.29,-8.88 0,-3.95 0.43,-6.98 1.29,-9.1 0.85,-2.11 2.18,-3.58 3.99,-4.41 1.8,-0.83 4.25,-1.24 7.33,-1.24 3.12,0 5.58,0.42 7.38,1.27 1.81,0.84 3.15,2.33 4.02,4.46 0.88,2.14 1.32,5.14 1.32,9.02 0,3.88 -0.42,6.87 -1.27,8.99 -0.84,2.12 -2.17,3.61 -3.99,4.47 -1.82,0.86 -4.31,1.29 -7.46,1.29 z m 0,-5.33 c 1.58,0 2.79,-0.21 3.65,-0.65 0.86,-0.43 1.5,-1.31 1.92,-2.66 0.42,-1.34 0.63,-3.4 0.63,-6.16 0,-2.73 -0.21,-4.77 -0.63,-6.11 -0.42,-1.35 -1.06,-2.23 -1.92,-2.64 -0.86,-0.41 -2.07,-0.62 -3.65,-0.62 -1.54,0 -2.74,0.21 -3.6,0.62 -0.86,0.41 -1.5,1.29 -1.92,2.64 -0.42,1.34 -0.63,3.38 -0.63,6.11 0,2.76 0.21,4.82 0.63,6.16 0.42,1.35 1.06,2.23 1.92,2.66 0.86,0.44 2.06,0.65 3.6,0.65 z m 43.03,5.38 c -3.71,0 -6.57,-1.08 -8.59,-3.25 -2.01,-2.17 -3.02,-5.97 -3.02,-11.39 0,-3.84 0.46,-6.84 1.37,-9.01 0.91,-2.18 2.21,-3.7 3.91,-4.58 1.7,-0.88 3.86,-1.32 6.49,-1.32 3.36,0 6.57,0.38 9.62,1.13 v 3.82 h -7.67 c -1.76,0 -3.15,0.28 -4.18,0.84 -1.03,0.55 -1.81,1.55 -2.31,2.99 -0.51,1.43 -0.77,3.48 -0.77,6.13 0,2.62 0.26,4.62 0.77,6 0.5,1.39 1.28,2.33 2.31,2.83 1.03,0.5 2.44,0.75 4.23,0.75 h 8.04 v 3.77 c -1.37,0.36 -2.97,0.67 -4.81,0.92 -1.84,0.25 -3.63,0.37 -5.39,0.37 z m 26.75,-0.05 c -3.05,0 -5.48,-0.45 -7.3,-1.35 -1.82,-0.89 -3.16,-2.4 -4.02,-4.52 -0.86,-2.11 -1.29,-5.07 -1.29,-8.88 0,-3.95 0.43,-6.98 1.29,-9.1 0.86,-2.11 2.19,-3.58 3.99,-4.41 1.8,-0.83 4.25,-1.24 7.33,-1.24 3.12,0 5.58,0.42 7.38,1.27 1.81,0.84 3.15,2.33 4.02,4.46 0.88,2.14 1.32,5.14 1.32,9.02 0,3.88 -0.42,6.87 -1.26,8.99 -0.84,2.12 -2.18,3.61 -4,4.47 -1.82,0.86 -4.31,1.29 -7.46,1.29 z m 0,-5.33 c 1.58,0 2.79,-0.21 3.65,-0.65 0.86,-0.43 1.5,-1.31 1.92,-2.66 0.42,-1.34 0.63,-3.4 0.63,-6.16 0,-2.73 -0.21,-4.77 -0.63,-6.11 -0.42,-1.35 -1.06,-2.23 -1.92,-2.64 -0.86,-0.41 -2.07,-0.62 -3.65,-0.62 -1.54,0 -2.74,0.21 -3.6,0.62 -0.86,0.41 -1.5,1.29 -1.92,2.64 -0.42,1.34 -0.63,3.38 -0.63,6.11 0,2.76 0.21,4.82 0.63,6.16 0.42,1.35 1.06,2.23 1.92,2.66 0.86,0.44 2.06,0.65 3.6,0.65 z m 18.5,-23.79 h 5.3 l 1.21,3.01 c 1.3,-1 2.78,-1.84 4.44,-2.5 1.67,-0.66 3.32,-1 4.97,-1 3.08,0 5.31,0.93 6.67,2.78 1.37,1.84 2.05,4.29 2.05,7.34 v 19.22 h -6.51 v -18.41 c 0,-1.54 -0.42,-2.74 -1.27,-3.6 -0.84,-0.87 -1.97,-1.3 -3.41,-1.3 -1.3,0 -2.49,0.2 -3.57,0.59 -1.09,0.4 -2.21,0.99 -3.37,1.78 v 20.94 h -6.51 z m 55.17,28.85 c -3.12,0 -5.35,-0.75 -6.7,-2.26 -1.35,-1.51 -1.99,-4.05 -1.92,-7.64 l 0.21,-13.57 h -4.41 v -4.31 l 4.62,-1.07 0.95,-8.08 h 5.1 v 8.08 h 7.14 v 5.38 h -7.14 v 13.51 c 0,1.69 0.3,2.87 0.92,3.53 0.61,0.66 1.41,1.05 2.39,1.16 l 3.52,0.37 v 4.9 z m 9.77,-28.85 h 5.05 l 1.47,4.63 c 1.23,-1.58 2.53,-2.81 3.91,-3.69 1.39,-0.88 2.96,-1.32 4.71,-1.32 0.84,0 1.63,0.11 2.36,0.32 v 6.79 c -1.33,-0.15 -2.4,-0.22 -3.2,-0.22 -1.65,0 -3.07,0.28 -4.26,0.84 -1.19,0.55 -2.37,1.44 -3.52,2.66 v 18.84 h -6.52 z m 26.8,29.17 c -2.13,0 -3.86,-0.65 -5.17,-1.96 -1.32,-1.31 -1.97,-3.08 -1.97,-5.3 v -2.43 c 0,-2.29 0.76,-4.12 2.28,-5.49 1.53,-1.36 3.79,-2.04 6.81,-2.04 h 8.04 v -2.53 c 0,-1.08 -0.18,-1.94 -0.53,-2.58 -0.35,-0.65 -1,-1.14 -1.94,-1.49 -0.95,-0.34 -2.32,-0.51 -4.1,-0.51 H 951.4 V 374 c 3.19,-0.9 6.87,-1.35 11.04,-1.35 3.57,0 6.23,0.72 7.96,2.15 1.74,1.44 2.6,3.84 2.6,7.22 v 19.86 h -5.09 l -1.11,-3.12 c -0.35,0.32 -1.07,0.76 -2.15,1.32 -1.09,0.55 -2.36,1.05 -3.81,1.48 -1.46,0.43 -2.9,0.64 -4.34,0.64 z m 3.16,-4.68 c 0.98,0 2.28,-0.26 3.91,-0.78 1.63,-0.52 2.6,-0.87 2.92,-1.05 v -7.54 l -6.1,0.33 c -3.05,0.25 -4.57,1.63 -4.57,4.14 v 1.19 c 0,1.29 0.36,2.22 1.08,2.8 0.71,0.57 1.63,0.87 2.76,0.91 z m 19.8,-24.49 h 5.31 l 1.21,3.01 c 1.3,-1 2.78,-1.84 4.44,-2.5 1.66,-0.66 3.32,-1 4.97,-1 3.08,0 5.3,0.93 6.67,2.78 1.37,1.84 2.05,4.29 2.05,7.34 v 19.22 h -6.52 v -18.41 c 0,-1.54 -0.42,-2.74 -1.26,-3.6 -0.84,-0.87 -1.98,-1.3 -3.41,-1.3 -1.3,0 -2.49,0.2 -3.58,0.59 -1.08,0.4 -2.2,0.99 -3.36,1.78 v 20.94 h -6.52 z m 41.25,29.17 c -1.85,0 -3.88,-0.09 -6.09,-0.29 -2.21,-0.2 -3.8,-0.48 -4.78,-0.84 v -3.93 h 12.13 c 1.44,0 2.48,-0.19 3.13,-0.59 0.65,-0.39 0.97,-1.2 0.97,-2.42 v -1.02 c 0,-0.97 -0.3,-1.7 -0.92,-2.18 -0.61,-0.49 -1.6,-0.73 -2.96,-0.73 h -4.26 c -5.68,0 -8.51,-2.53 -8.51,-7.59 v -1.62 c 0,-2.79 0.82,-4.87 2.47,-6.21 1.64,-1.35 4.43,-2.02 8.35,-2.02 1.58,0 3.39,0.12 5.44,0.35 2.05,0.23 3.63,0.49 4.76,0.78 v 3.93 h -11.46 c -1.37,0 -2.37,0.24 -3.02,0.73 -0.65,0.48 -0.97,1.3 -0.97,2.44 v 1.03 c 0,1.11 0.33,1.85 0.99,2.23 0.67,0.38 1.72,0.57 3.16,0.57 h 4.36 c 2.7,0 4.73,0.64 6.09,1.94 1.37,1.29 2.05,3.12 2.05,5.49 v 2.36 c 0,2.8 -0.91,4.77 -2.73,5.9 -1.82,1.13 -4.55,1.69 -8.2,1.69 z m 16.35,-29.17 h 5.41 l 1.1,2.85 c 1.12,-0.9 2.41,-1.66 3.86,-2.29 1.46,-0.62 2.94,-0.94 4.44,-0.94 3.44,0 5.97,1.32 7.6,3.96 1.63,2.64 2.44,6.25 2.44,10.84 0,4.92 -0.78,8.62 -2.34,11.09 -1.56,2.48 -4.12,3.72 -7.7,3.72 -1.4,0 -2.83,-0.2 -4.3,-0.59 -1.48,-0.4 -2.81,-0.94 -4,-1.62 v 14.59 h -6.51 z m 12.77,23.74 c 3.71,0 5.56,-3.11 5.56,-9.32 0,-3.3 -0.49,-5.69 -1.49,-7.18 -1,-1.49 -2.34,-2.24 -4.02,-2.24 -1.89,0 -4,0.63 -6.31,1.89 v 15.07 c 0.88,0.54 1.88,0.97 3,1.29 1.12,0.33 2.2,0.49 3.26,0.49 z m 23.69,5.43 c -2.13,0 -3.86,-0.65 -5.17,-1.96 -1.32,-1.31 -1.97,-3.08 -1.97,-5.3 v -2.43 c 0,-2.29 0.76,-4.12 2.28,-5.49 1.53,-1.36 3.79,-2.04 6.81,-2.04 h 8.04 v -2.53 c 0,-1.08 -0.18,-1.94 -0.53,-2.58 -0.35,-0.65 -1,-1.14 -1.94,-1.49 -0.95,-0.34 -2.31,-0.51 -4.1,-0.51 h -8.51 V 374 c 3.18,-0.9 6.86,-1.35 11.03,-1.35 3.57,0 6.23,0.72 7.96,2.15 1.74,1.44 2.6,3.84 2.6,7.22 v 19.86 h -5.09 l -1.11,-3.12 c -0.35,0.32 -1.07,0.76 -2.15,1.32 -1.09,0.55 -2.36,1.05 -3.81,1.48 -1.45,0.43 -2.9,0.64 -4.34,0.64 z m 3.16,-4.68 c 0.98,0 2.28,-0.26 3.91,-0.78 1.63,-0.52 2.6,-0.87 2.92,-1.05 v -7.54 l -6.1,0.33 c -3.05,0.25 -4.57,1.63 -4.57,4.14 v 1.19 c 0,1.29 0.36,2.22 1.08,2.8 0.72,0.57 1.64,0.87 2.76,0.91 z m 19.81,-24.49 h 5.04 l 1.47,4.63 c 1.23,-1.58 2.53,-2.81 3.92,-3.69 1.38,-0.88 2.95,-1.32 4.7,-1.32 0.84,0 1.63,0.11 2.36,0.32 v 6.79 c -1.33,-0.15 -2.4,-0.22 -3.2,-0.22 -1.65,0 -3.07,0.28 -4.26,0.84 -1.19,0.55 -2.36,1.44 -3.52,2.66 v 18.84 h -6.51 z m 33.52,29.12 c -3.12,0 -5.56,-0.44 -7.33,-1.32 -1.77,-0.88 -3.05,-2.37 -3.83,-4.47 -0.79,-2.1 -1.19,-5.07 -1.19,-8.91 0,-3.91 0.38,-6.92 1.13,-9.04 0.76,-2.12 2,-3.61 3.73,-4.47 1.74,-0.86 4.18,-1.29 7.33,-1.29 2.77,0 4.96,0.29 6.57,0.86 1.61,0.58 2.79,1.57 3.52,2.99 0.74,1.42 1.11,3.4 1.11,5.95 0,2.65 -0.75,4.56 -2.24,5.7 -1.49,1.15 -3.65,1.73 -6.49,1.73 h -8.25 c 0.07,1.86 0.32,3.31 0.74,4.33 0.42,1.02 1.16,1.77 2.23,2.23 1.07,0.47 2.62,0.7 4.65,0.7 h 8.51 v 3.93 c -1.89,0.36 -3.58,0.63 -5.07,0.81 -1.48,0.18 -3.19,0.27 -5.12,0.27 z m 1.68,-16.31 c 1.26,0 2.17,-0.25 2.74,-0.75 0.56,-0.51 0.84,-1.39 0.84,-2.64 0,-1.87 -0.41,-3.16 -1.21,-3.88 -0.81,-0.72 -2.21,-1.07 -4.21,-1.07 -1.5,0 -2.67,0.24 -3.49,0.72 -0.82,0.49 -1.42,1.32 -1.79,2.51 -0.36,1.18 -0.55,2.88 -0.55,5.11 z m 15.14,-12.81 h 5.3 l 1.21,3.01 c 1.3,-1 2.78,-1.84 4.44,-2.5 1.67,-0.66 3.32,-1 4.97,-1 3.08,0 5.31,0.93 6.67,2.78 1.37,1.84 2.05,4.29 2.05,7.34 v 19.22 h -6.51 v -18.41 c 0,-1.54 -0.43,-2.74 -1.27,-3.6 -0.84,-0.87 -1.97,-1.3 -3.41,-1.3 -1.3,0 -2.49,0.2 -3.57,0.59 -1.09,0.4 -2.21,0.99 -3.37,1.78 v 20.94 h -6.51 z m 41.93,29.17 c -3.72,0 -6.58,-1.08 -8.59,-3.25 -2.02,-2.17 -3.02,-5.97 -3.02,-11.39 0,-3.84 0.45,-6.84 1.36,-9.01 0.91,-2.18 2.22,-3.7 3.92,-4.58 1.7,-0.88 3.86,-1.32 6.49,-1.32 3.36,0 6.56,0.38 9.61,1.13 v 3.82 h -7.67 c -1.75,0 -3.14,0.28 -4.18,0.84 -1.03,0.55 -1.8,1.55 -2.31,2.99 -0.51,1.43 -0.76,3.48 -0.76,6.13 0,2.62 0.25,4.62 0.76,6 0.51,1.39 1.28,2.33 2.31,2.83 1.04,0.5 2.45,0.75 4.23,0.75 h 8.04 v 3.77 c -1.36,0.36 -2.97,0.67 -4.81,0.92 -1.83,0.25 -3.63,0.37 -5.38,0.37 z m 15.81,-33.75 c -0.28,0 -0.51,-0.09 -0.7,-0.27 -0.2,-0.18 -0.29,-0.41 -0.29,-0.7 v -4.89 c 0,-0.33 0.08,-0.59 0.26,-0.79 0.17,-0.19 0.42,-0.29 0.73,-0.29 h 4.95 c 0.31,0 0.55,0.1 0.7,0.29 0.16,0.2 0.24,0.46 0.24,0.79 v 4.89 c 0,0.65 -0.31,0.97 -0.94,0.97 z m -0.84,4.58 h 6.52 v 28.85 h -6.52 z m 19.03,29.17 c -2.14,0 -3.87,-0.65 -5.18,-1.96 -1.31,-1.31 -1.97,-3.08 -1.97,-5.3 v -2.43 c 0,-2.29 0.76,-4.12 2.29,-5.49 1.52,-1.36 3.79,-2.04 6.8,-2.04 h 8.04 v -2.53 c 0,-1.08 -0.17,-1.94 -0.52,-2.58 -0.36,-0.65 -1,-1.14 -1.95,-1.49 -0.95,-0.34 -2.31,-0.51 -4.1,-0.51 h -8.51 V 374 c 3.19,-0.9 6.87,-1.35 11.03,-1.35 3.58,0 6.23,0.72 7.97,2.15 1.73,1.44 2.6,3.84 2.6,7.22 v 19.86 h -5.1 l -1.1,-3.12 c -0.35,0.32 -1.07,0.76 -2.16,1.32 -1.08,0.55 -2.35,1.05 -3.81,1.48 -1.45,0.43 -2.9,0.64 -4.33,0.64 z m 3.15,-4.68 c 0.98,0 2.28,-0.26 3.91,-0.78 1.63,-0.52 2.61,-0.87 2.92,-1.05 v -7.54 l -6.1,0.33 c -3.04,0.25 -4.57,1.63 -4.57,4.14 v 1.19 c 0,1.29 0.36,2.22 1.08,2.8 0.72,0.57 1.64,0.87 2.76,0.91 z"
   id="path292"
   inkscape:connector-curvature="0"
   style="fill:#ffffff;fill-rule:nonzero" />
  </g>
 </g>
</svg>